<?xml version="1.0" standalone="no"?>
<!DOCTYPE svg PUBLIC "-//W3C//DTD SVG 20010904//EN"
 "http://www.w3.org/TR/2001/REC-SVG-20010904/DTD/svg10.dtd">
<svg version="1.0" xmlns="http://www.w3.org/2000/svg"
 width="3610.000000pt" height="3350.000000pt" viewBox="0 0 3610.000000 3350.000000"
 preserveAspectRatio="xMidYMid meet">

<g transform="translate(0.000000,3350.000000) scale(0.100000,-0.100000)"
fill="#000000" stroke="none">
<path d="M18013 32243 c86 -2 228 -2 315 0 86 1 15 3 -158 3 -173 0 -244 -2
-157 -3z"/>
<path d="M17548 32233 c17 -2 47 -2 65 0 17 2 3 4 -33 4 -36 0 -50 -2 -32 -4z"/>
<path d="M18708 32233 c17 -2 47 -2 65 0 17 2 3 4 -33 4 -36 0 -50 -2 -32 -4z"/>
<path d="M17318 32223 c7 -3 16 -2 19 1 4 3 -2 6 -13 5 -11 0 -14 -3 -6 -6z"/>
<path d="M17363 32223 c9 -2 23 -2 30 0 6 3 -1 5 -18 5 -16 0 -22 -2 -12 -5z"/>
<path d="M18943 32223 c15 -2 37 -2 50 0 12 2 0 4 -28 4 -27 0 -38 -2 -22 -4z"/>
<path d="M17173 32213 c9 -2 25 -2 35 0 9 3 1 5 -18 5 -19 0 -27 -2 -17 -5z"/>
<path d="M19118 32213 c12 -2 32 -2 45 0 12 2 2 4 -23 4 -25 0 -35 -2 -22 -4z"/>
<path d="M17038 32203 c6 -2 18 -2 25 0 6 3 1 5 -13 5 -14 0 -19 -2 -12 -5z"/>
<path d="M19268 32203 c12 -2 30 -2 40 0 9 3 -1 5 -23 4 -22 0 -30 -2 -17 -4z"/>
<path d="M16908 32193 c6 -2 18 -2 25 0 6 3 1 5 -13 5 -14 0 -19 -2 -12 -5z"/>
<path d="M19388 32193 c6 -2 18 -2 25 0 6 3 1 5 -13 5 -14 0 -19 -2 -12 -5z"/>
<path d="M16783 32183 c9 -2 23 -2 30 0 6 3 -1 5 -18 5 -16 0 -22 -2 -12 -5z"/>
<path d="M19513 32183 c9 -2 25 -2 35 0 9 3 1 5 -18 5 -19 0 -27 -2 -17 -5z"/>
<path d="M16678 32173 c6 -2 18 -2 25 0 6 3 1 5 -13 5 -14 0 -19 -2 -12 -5z"/>
<path d="M19623 32173 c9 -2 23 -2 30 0 6 3 -1 5 -18 5 -16 0 -22 -2 -12 -5z"/>
<path d="M16588 32163 c7 -3 16 -2 19 1 4 3 -2 6 -13 5 -11 0 -14 -3 -6 -6z"/>
<path d="M19723 32163 c9 -2 23 -2 30 0 6 3 -1 5 -18 5 -16 0 -22 -2 -12 -5z"/>
<path d="M16478 32153 c6 -2 18 -2 25 0 6 3 1 5 -13 5 -14 0 -19 -2 -12 -5z"/>
<path d="M19818 32153 c6 -2 18 -2 25 0 6 3 1 5 -13 5 -14 0 -19 -2 -12 -5z"/>
<path d="M16388 32143 c6 -2 18 -2 25 0 6 3 1 5 -13 5 -14 0 -19 -2 -12 -5z"/>
<path d="M19908 32143 c6 -2 18 -2 25 0 6 3 1 5 -13 5 -14 0 -19 -2 -12 -5z"/>
<path d="M16318 32133 c7 -3 16 -2 19 1 4 3 -2 6 -13 5 -11 0 -14 -3 -6 -6z"/>
<path d="M19988 32133 c7 -3 16 -2 19 1 4 3 -2 6 -13 5 -11 0 -14 -3 -6 -6z"/>
<path d="M16228 32123 c6 -2 18 -2 25 0 6 3 1 5 -13 5 -14 0 -19 -2 -12 -5z"/>
<path d="M16148 32113 c6 -2 18 -2 25 0 6 3 1 5 -13 5 -14 0 -19 -2 -12 -5z"/>
<path d="M20148 32113 c6 -2 18 -2 25 0 6 3 1 5 -13 5 -14 0 -19 -2 -12 -5z"/>
<path d="M20228 32103 c7 -3 16 -2 19 1 4 3 -2 6 -13 5 -11 0 -14 -3 -6 -6z"/>
<path d="M16008 32093 c7 -3 16 -2 19 1 4 3 -2 6 -13 5 -11 0 -14 -3 -6 -6z"/>
<path d="M20298 32093 c7 -3 16 -2 19 1 4 3 -2 6 -13 5 -11 0 -14 -3 -6 -6z"/>
<path d="M15938 32083 c7 -3 16 -2 19 1 4 3 -2 6 -13 5 -11 0 -14 -3 -6 -6z"/>
<path d="M20368 32083 c7 -3 16 -2 19 1 4 3 -2 6 -13 5 -11 0 -14 -3 -6 -6z"/>
<path d="M20438 32073 c7 -3 16 -2 19 1 4 3 -2 6 -13 5 -11 0 -14 -3 -6 -6z"/>
<path d="M15808 32063 c7 -3 16 -2 19 1 4 3 -2 6 -13 5 -11 0 -14 -3 -6 -6z"/>
<path d="M20498 32063 c7 -3 16 -2 19 1 4 3 -2 6 -13 5 -11 0 -14 -3 -6 -6z"/>
<path d="M15738 32053 c7 -3 16 -2 19 1 4 3 -2 6 -13 5 -11 0 -14 -3 -6 -6z"/>
<path d="M15618 32033 c7 -3 16 -2 19 1 4 3 -2 6 -13 5 -11 0 -14 -3 -6 -6z"/>
<path d="M20688 32033 c7 -3 16 -2 19 1 4 3 -2 6 -13 5 -11 0 -14 -3 -6 -6z"/>
<path d="M20748 32023 c7 -3 16 -2 19 1 4 3 -2 6 -13 5 -11 0 -14 -3 -6 -6z"/>
<path d="M15448 32003 c7 -3 16 -2 19 1 4 3 -2 6 -13 5 -11 0 -14 -3 -6 -6z"/>
<path d="M20858 32003 c7 -3 16 -2 19 1 4 3 -2 6 -13 5 -11 0 -14 -3 -6 -6z"/>
<path d="M15338 31983 c7 -3 16 -2 19 1 4 3 -2 6 -13 5 -11 0 -14 -3 -6 -6z"/>
<path d="M20968 31983 c7 -3 16 -2 19 1 4 3 -2 6 -13 5 -11 0 -14 -3 -6 -6z"/>
<path d="M15288 31973 c7 -3 16 -2 19 1 4 3 -2 6 -13 5 -11 0 -14 -3 -6 -6z"/>
<path d="M21318 31913 c7 -3 16 -2 19 1 4 3 -2 6 -13 5 -11 0 -14 -3 -6 -6z"/>
<path d="M8969 29143 c-13 -16 -12 -17 4 -4 16 13 21 21 13 21 -2 0 -10 -8
-17 -17z"/>
<path d="M27410 29096 c0 -2 8 -10 18 -17 15 -13 16 -12 3 4 -13 16 -21 21
-21 13z"/>
<path d="M27500 29026 c0 -2 8 -10 18 -17 15 -13 16 -12 3 4 -13 16 -21 21
-21 13z"/>
<path d="M27550 28986 c0 -2 8 -10 18 -17 15 -13 16 -12 3 4 -13 16 -21 21
-21 13z"/>
<path d="M27600 28946 c0 -2 8 -10 18 -17 15 -13 16 -12 3 4 -13 16 -21 21
-21 13z"/>
<path d="M27650 28906 c0 -2 8 -10 18 -17 15 -13 16 -12 3 4 -13 16 -21 21
-21 13z"/>
<path d="M27700 28866 c0 -2 8 -10 18 -17 15 -13 16 -12 3 4 -13 16 -21 21
-21 13z"/>
<path d="M8589 28843 c-13 -16 -12 -17 4 -4 9 7 17 15 17 17 0 8 -8 3 -21 -13z"/>
<path d="M8539 28803 c-13 -16 -12 -17 4 -4 16 13 21 21 13 21 -2 0 -10 -8
-17 -17z"/>
<path d="M27760 28816 c0 -2 8 -10 18 -17 15 -13 16 -12 3 4 -13 16 -21 21
-21 13z"/>
<path d="M27810 28776 c0 -2 8 -10 18 -17 15 -13 16 -12 3 4 -13 16 -21 21
-21 13z"/>
<path d="M8479 28753 c-13 -16 -12 -17 4 -4 16 13 21 21 13 21 -2 0 -10 -8
-17 -17z"/>
<path d="M27870 28726 c0 -2 8 -10 18 -17 15 -13 16 -12 3 4 -13 16 -21 21
-21 13z"/>
<path d="M8419 28703 c-13 -16 -12 -17 4 -4 16 13 21 21 13 21 -2 0 -10 -8
-17 -17z"/>
<path d="M27940 28666 c0 -2 8 -10 18 -17 15 -13 16 -12 3 4 -13 16 -21 21
-21 13z"/>
<path d="M8349 28643 c-13 -16 -12 -17 4 -4 9 7 17 15 17 17 0 8 -8 3 -21 -13z"/>
<path d="M28015 28600 c10 -11 20 -20 23 -20 3 0 -3 9 -13 20 -10 11 -20 20
-23 20 -3 0 3 -9 13 -20z"/>
<path d="M8284 28588 l-19 -23 23 19 c21 18 27 26 19 26 -2 0 -12 -10 -23 -22z"/>
<path d="M28085 28540 c10 -11 20 -20 23 -20 3 0 -3 9 -13 20 -10 11 -20 20
-23 20 -3 0 3 -9 13 -20z"/>
<path d="M8209 28523 c-13 -16 -12 -17 4 -4 9 7 17 15 17 17 0 8 -8 3 -21 -13z"/>
<path d="M28165 28470 c10 -11 20 -20 23 -20 3 0 -3 9 -13 20 -10 11 -20 20
-23 20 -3 0 3 -9 13 -20z"/>
<path d="M8124 28448 l-19 -23 23 19 c21 18 27 26 19 26 -2 0 -12 -10 -23 -22z"/>
<path d="M28260 28385 c13 -14 26 -25 28 -25 3 0 -5 11 -18 25 -13 14 -26 25
-28 25 -3 0 5 -11 18 -25z"/>
<path d="M8039 28373 l-24 -28 28 24 c15 14 27 26 27 28 0 8 -8 1 -31 -24z"/>
<path d="M28340 28317 c0 -2 15 -16 33 -33 l32 -29 -29 33 c-28 30 -36 37 -36
29z"/>
<path d="M7934 28278 l-29 -33 33 29 c30 28 37 36 29 36 -2 0 -16 -15 -33 -32z"/>
<path d="M17765 28278 c-27 -4 -84 -8 -125 -7 -70 0 -106 -1 -325 -17 -104 -7
-218 -17 -335 -30 -25 -2 -65 -7 -90 -9 -25 -3 -63 -7 -85 -10 -22 -3 -58 -7
-80 -10 -47 -6 -101 -13 -150 -20 -83 -12 -111 -16 -135 -18 -14 -1 -30 -6
-37 -10 -6 -4 -18 -4 -27 -1 -9 3 -23 1 -31 -6 -8 -6 -23 -9 -34 -5 -10 3 -22
1 -26 -5 -4 -6 -16 -8 -26 -5 -11 4 -26 1 -34 -5 -8 -6 -23 -9 -34 -5 -10 3
-22 1 -26 -5 -4 -6 -15 -8 -25 -5 -10 3 -21 1 -25 -4 -3 -6 -16 -11 -28 -11
-41 0 -72 -5 -84 -13 -7 -5 -18 -5 -23 -2 -6 4 -17 2 -24 -4 -7 -6 -20 -9 -29
-5 -8 3 -18 1 -21 -5 -4 -6 -13 -8 -21 -4 -9 3 -21 0 -29 -6 -7 -6 -16 -8 -19
-4 -4 3 -13 0 -21 -6 -8 -7 -20 -10 -26 -6 -6 4 -17 2 -24 -4 -7 -6 -21 -9
-30 -5 -9 4 -16 1 -16 -6 0 -7 -7 -10 -16 -6 -9 4 -23 1 -30 -5 -7 -6 -18 -8
-23 -5 -5 4 -13 2 -16 -4 -4 -6 -15 -8 -25 -5 -10 3 -21 1 -25 -5 -3 -6 -11
-8 -16 -4 -5 3 -16 0 -24 -6 -8 -6 -19 -9 -24 -6 -5 4 -13 1 -16 -5 -4 -5 -13
-8 -21 -5 -7 3 -16 1 -20 -5 -3 -6 -12 -8 -20 -5 -7 3 -16 1 -20 -5 -3 -6 -12
-8 -20 -5 -7 3 -16 1 -20 -5 -3 -6 -12 -8 -20 -5 -7 3 -16 1 -19 -4 -3 -5 -12
-7 -19 -4 -8 3 -17 1 -20 -5 -4 -6 -13 -8 -21 -4 -8 3 -15 0 -15 -7 0 -7 -7
-10 -15 -7 -8 4 -17 2 -21 -4 -3 -6 -12 -8 -20 -5 -7 3 -16 1 -19 -4 -3 -5
-12 -7 -20 -3 -8 3 -15 0 -15 -7 0 -7 -7 -10 -15 -7 -8 4 -17 2 -20 -3 -3 -5
-12 -7 -20 -3 -8 3 -15 0 -15 -7 0 -7 -7 -10 -15 -7 -8 4 -17 2 -20 -3 -3 -5
-12 -7 -20 -3 -8 3 -15 0 -15 -7 0 -7 -7 -10 -15 -7 -8 4 -17 2 -20 -3 -3 -5
-12 -7 -20 -3 -8 3 -15 0 -15 -6 0 -6 -7 -8 -15 -5 -8 4 -15 1 -15 -6 0 -7 -7
-10 -15 -7 -8 4 -17 2 -20 -4 -4 -5 -10 -7 -15 -4 -5 3 -11 1 -15 -4 -3 -6
-12 -8 -20 -4 -8 3 -15 0 -15 -7 0 -7 -7 -10 -15 -6 -8 3 -15 1 -15 -5 0 -6
-6 -9 -14 -6 -8 3 -17 3 -21 -1 -4 -4 -11 -8 -16 -8 -5 -1 -11 -3 -14 -4 -3
-1 -9 -4 -15 -5 -5 -1 -12 -4 -15 -5 -3 -1 -9 -4 -15 -5 -5 -1 -12 -4 -15 -5
-3 -1 -9 -4 -15 -5 -5 -1 -12 -4 -15 -5 -3 -1 -9 -4 -15 -5 -5 -1 -12 -4 -15
-5 -3 -1 -9 -4 -15 -5 -5 -1 -12 -4 -15 -5 -3 -1 -9 -4 -15 -5 -5 -1 -12 -4
-15 -5 -3 -1 -9 -4 -15 -5 -5 -1 -12 -4 -15 -5 -3 -1 -9 -4 -15 -5 -5 -1 -13
-4 -17 -5 -5 -1 -11 -2 -15 -1 -5 0 -8 -4 -8 -10 0 -6 -7 -9 -15 -5 -8 3 -15
1 -15 -4 0 -5 -7 -7 -15 -4 -8 4 -15 1 -15 -6 0 -6 -4 -9 -9 -5 -5 3 -12 1
-16 -5 -4 -6 -10 -8 -15 -5 -5 3 -11 1 -15 -5 -4 -6 -11 -8 -16 -5 -5 4 -9 2
-9 -4 0 -6 -7 -8 -15 -5 -8 4 -15 1 -15 -6 0 -6 -4 -9 -9 -5 -5 3 -12 1 -16
-5 -4 -6 -11 -8 -16 -5 -5 4 -9 1 -9 -5 0 -7 -7 -10 -15 -6 -8 3 -15 1 -15 -5
0 -6 -4 -8 -9 -4 -5 3 -12 1 -16 -5 -4 -6 -11 -8 -16 -5 -5 4 -9 1 -9 -5 0 -7
-7 -10 -15 -6 -8 3 -15 1 -15 -5 0 -6 -4 -8 -9 -4 -5 3 -12 1 -16 -5 -4 -6
-11 -8 -16 -5 -5 4 -9 1 -9 -5 0 -6 -4 -9 -9 -5 -5 3 -12 1 -16 -5 -4 -6 -11
-8 -16 -5 -5 4 -9 1 -9 -5 0 -6 -4 -9 -9 -5 -5 3 -12 1 -16 -5 -4 -6 -11 -8
-16 -5 -5 4 -9 1 -9 -5 0 -6 -4 -9 -9 -5 -5 3 -12 1 -16 -5 -4 -6 -11 -8 -16
-5 -5 4 -9 1 -9 -5 0 -6 -4 -9 -9 -5 -5 3 -12 1 -16 -5 -4 -6 -11 -8 -16 -5
-5 4 -9 1 -9 -5 0 -6 -4 -8 -10 -5 -5 3 -10 1 -10 -5 0 -6 -4 -9 -9 -5 -5 3
-12 1 -16 -5 -4 -6 -11 -8 -16 -5 -5 4 -9 1 -9 -5 0 -6 -4 -9 -9 -5 -5 3 -12
1 -16 -5 -4 -6 -11 -8 -16 -5 -5 4 -9 1 -9 -5 0 -6 -4 -8 -10 -5 -5 3 -10 1
-10 -6 0 -7 -3 -9 -6 -6 -4 3 -16 1 -28 -5 -11 -7 -24 -11 -28 -10 -5 1 -8 -3
-8 -9 0 -5 -4 -7 -10 -4 -5 3 -10 2 -10 -2 0 -5 -10 -10 -22 -10 -13 -1 -24
-7 -26 -13 -2 -5 -8 -8 -13 -4 -5 3 -9 0 -9 -6 0 -6 -4 -8 -10 -5 -5 3 -10 1
-10 -4 0 -6 -3 -10 -7 -9 -5 1 -18 -3 -29 -10 -12 -6 -24 -8 -28 -5 -3 3 -6 1
-6 -6 0 -7 -4 -9 -10 -6 -5 3 -10 1 -10 -5 0 -6 -4 -8 -10 -5 -5 3 -10 1 -10
-5 0 -6 -4 -8 -10 -5 -5 3 -10 1 -10 -4 0 -6 -3 -10 -7 -9 -5 1 -21 -5 -38
-12 -16 -7 -33 -13 -37 -12 -5 1 -8 -3 -8 -9 0 -5 -4 -7 -10 -4 -5 3 -10 1
-10 -5 0 -6 -4 -8 -10 -5 -5 3 -10 1 -10 -5 0 -6 -4 -8 -10 -5 -5 3 -10 1 -10
-5 0 -6 -4 -8 -10 -5 -5 3 -10 1 -10 -5 0 -6 -4 -8 -10 -5 -5 3 -10 1 -10 -5
0 -6 -4 -8 -10 -5 -5 3 -10 1 -10 -5 0 -6 -4 -8 -10 -5 -5 3 -10 1 -10 -5 0
-6 -4 -8 -10 -5 -5 3 -10 1 -10 -5 0 -6 -4 -8 -10 -5 -5 3 -10 1 -10 -5 0 -6
-4 -8 -10 -5 -5 3 -10 1 -10 -5 0 -6 -4 -8 -10 -5 -5 3 -10 1 -10 -5 0 -6 -4
-8 -10 -5 -5 3 -10 1 -10 -5 0 -6 -4 -8 -10 -5 -5 3 -10 1 -10 -5 0 -6 -4 -8
-10 -5 -5 3 -10 1 -10 -5 0 -6 -4 -8 -10 -5 -5 3 -10 1 -10 -5 0 -6 -4 -8 -10
-5 -5 3 -10 1 -10 -5 0 -6 -4 -8 -10 -5 -5 3 -10 1 -10 -5 0 -6 -4 -8 -10 -5
-5 3 -10 2 -10 -4 0 -5 -16 -15 -35 -22 -19 -7 -35 -17 -35 -22 0 -4 -4 -5
-10 -2 -5 3 -10 1 -10 -5 0 -6 -4 -8 -10 -5 -5 3 -10 1 -10 -5 0 -6 -4 -8 -10
-5 -5 3 -10 1 -10 -5 0 -6 -4 -8 -10 -5 -5 3 -10 2 -10 -4 0 -6 -11 -13 -25
-17 -14 -3 -25 -10 -25 -16 0 -5 -4 -6 -10 -3 -5 3 -10 1 -10 -5 0 -6 -4 -8
-10 -5 -5 3 -10 1 -10 -5 0 -6 -4 -8 -10 -5 -5 3 -10 1 -10 -4 0 -6 -7 -11
-15 -11 -8 0 -15 -5 -15 -11 0 -5 -4 -7 -10 -4 -5 3 -10 1 -10 -5 0 -6 -4 -8
-10 -5 -5 3 -10 1 -10 -4 0 -6 -7 -11 -15 -11 -8 0 -15 -5 -15 -11 0 -5 -4 -7
-10 -4 -5 3 -10 1 -10 -5 0 -6 -4 -8 -10 -5 -5 3 -10 1 -10 -4 0 -6 -7 -11
-15 -11 -8 0 -15 -5 -15 -11 0 -5 -4 -7 -10 -4 -5 3 -10 1 -10 -5 0 -6 -4 -9
-9 -6 -5 3 -12 -1 -15 -10 -3 -8 -10 -12 -16 -9 -5 3 -10 1 -10 -5 0 -6 -4 -8
-10 -5 -5 3 -10 1 -10 -4 0 -6 -7 -11 -15 -11 -8 0 -15 -5 -15 -11 0 -5 -4 -7
-10 -4 -5 3 -10 1 -10 -4 0 -6 -7 -11 -15 -11 -8 0 -15 -5 -15 -11 0 -5 -4 -8
-9 -5 -5 3 -12 -1 -15 -10 -3 -8 -10 -12 -16 -9 -5 3 -10 1 -10 -5 0 -6 -4 -9
-9 -6 -5 3 -12 -1 -15 -10 -3 -8 -10 -12 -16 -9 -5 3 -10 1 -10 -4 0 -6 -7
-11 -15 -11 -8 0 -15 -5 -15 -11 0 -5 -5 -7 -10 -4 -6 3 -13 -1 -16 -9 -3 -9
-10 -13 -15 -10 -5 3 -9 0 -9 -5 0 -6 -7 -11 -15 -11 -8 0 -15 -5 -15 -11 0
-5 -4 -8 -9 -5 -5 3 -12 -1 -15 -10 -3 -8 -10 -13 -15 -10 -5 3 -12 -1 -15
-10 -3 -8 -10 -12 -16 -9 -5 3 -10 1 -10 -4 0 -6 -7 -11 -15 -11 -8 0 -15 -4
-15 -10 0 -5 -7 -10 -15 -10 -8 0 -15 -4 -15 -10 0 -5 -7 -10 -15 -10 -8 0
-15 -5 -15 -11 0 -5 -5 -7 -10 -4 -6 3 -13 -1 -16 -9 -3 -9 -10 -13 -15 -10
-5 3 -12 -2 -15 -10 -3 -9 -10 -13 -15 -10 -5 3 -12 -2 -15 -10 -3 -9 -12 -16
-20 -16 -8 0 -14 -4 -14 -10 0 -5 -6 -10 -14 -10 -8 0 -17 -7 -20 -16 -3 -8
-10 -13 -15 -10 -5 3 -12 -1 -15 -10 -3 -8 -10 -13 -15 -10 -5 3 -12 -1 -15
-10 -3 -8 -10 -12 -16 -9 -6 3 -13 -1 -16 -9 -3 -9 -12 -16 -19 -16 -7 0 -16
-7 -19 -16 -3 -8 -10 -12 -16 -9 -6 3 -13 -1 -16 -9 -3 -9 -10 -14 -15 -11 -4
3 -13 -4 -19 -15 -6 -11 -15 -18 -21 -15 -5 4 -12 -1 -15 -9 -3 -9 -12 -16
-19 -16 -7 0 -16 -7 -19 -16 -3 -8 -10 -13 -15 -9 -6 3 -15 -4 -21 -15 -6 -11
-15 -18 -20 -15 -5 3 -14 -4 -20 -15 -6 -11 -15 -18 -20 -15 -5 3 -14 -4 -20
-15 -6 -11 -15 -18 -20 -15 -5 3 -14 -4 -20 -15 -6 -11 -15 -18 -20 -15 -5 3
-14 -4 -20 -15 -6 -11 -15 -18 -20 -15 -5 3 -14 -4 -20 -15 -6 -11 -17 -20
-25 -20 -8 0 -19 -9 -25 -20 -6 -11 -15 -18 -19 -15 -5 2 -16 -7 -25 -20 -9
-14 -21 -23 -26 -20 -5 3 -14 -4 -20 -15 -6 -11 -17 -20 -24 -20 -8 0 -21 -11
-30 -25 -9 -14 -21 -23 -25 -20 -5 2 -16 -7 -25 -20 -9 -14 -21 -23 -26 -20
-5 3 -18 -8 -30 -25 -12 -17 -25 -28 -30 -25 -5 3 -18 -8 -30 -25 -12 -17 -25
-28 -30 -25 -5 3 -18 -8 -30 -25 -12 -16 -27 -30 -34 -30 -8 0 -26 -16 -40
-35 -15 -20 -31 -33 -36 -30 -4 3 -23 -13 -40 -35 -17 -22 -35 -38 -40 -35 -4
3 -27 -17 -50 -45 -23 -28 -45 -48 -50 -45 -4 3 -33 -24 -65 -60 -31 -36 -61
-65 -65 -65 -12 0 -495 -483 -493 -492 2 -4 -27 -32 -62 -63 -36 -32 -63 -61
-60 -65 3 -5 -17 -27 -45 -51 -27 -23 -47 -45 -45 -50 3 -4 -13 -22 -35 -40
-22 -18 -40 -38 -40 -44 0 -7 -16 -25 -35 -39 -20 -15 -33 -31 -30 -36 3 -5
-8 -18 -25 -30 -16 -12 -30 -27 -30 -35 0 -8 -14 -23 -30 -35 -17 -12 -28 -25
-25 -30 3 -5 -6 -17 -20 -26 -14 -9 -25 -22 -25 -29 0 -7 -11 -20 -25 -29 -14
-9 -23 -21 -20 -26 3 -5 -6 -17 -20 -26 -13 -9 -22 -20 -20 -25 3 -4 -6 -16
-20 -25 -13 -9 -22 -20 -20 -25 3 -4 -4 -13 -15 -19 -11 -6 -20 -17 -20 -25 0
-8 -9 -19 -20 -25 -11 -6 -18 -15 -15 -20 3 -5 -4 -14 -15 -20 -11 -6 -18 -15
-15 -20 3 -5 -3 -15 -15 -22 -11 -7 -20 -18 -20 -25 0 -7 -9 -17 -20 -23 -11
-6 -18 -15 -15 -20 3 -5 -4 -14 -15 -20 -11 -6 -18 -15 -15 -21 4 -5 -1 -12
-9 -15 -9 -3 -16 -13 -16 -20 0 -8 -7 -17 -15 -20 -8 -4 -13 -10 -10 -15 3 -4
-4 -13 -15 -19 -11 -6 -18 -15 -15 -21 4 -5 -1 -12 -9 -15 -9 -3 -16 -12 -16
-19 0 -7 -7 -16 -16 -19 -8 -3 -12 -10 -9 -16 3 -6 -1 -13 -9 -16 -9 -3 -16
-12 -16 -19 0 -7 -7 -16 -16 -19 -8 -3 -12 -10 -9 -16 3 -6 -1 -13 -9 -16 -9
-3 -13 -10 -10 -15 3 -5 -2 -12 -10 -15 -9 -3 -16 -12 -16 -19 0 -7 -7 -16
-16 -19 -8 -3 -13 -10 -10 -15 3 -5 -1 -12 -10 -15 -8 -3 -12 -10 -9 -16 3 -6
-1 -13 -9 -16 -9 -3 -13 -10 -10 -15 3 -5 -2 -12 -10 -15 -9 -3 -13 -10 -10
-15 3 -5 -2 -12 -10 -15 -9 -3 -13 -10 -10 -15 3 -5 -2 -12 -10 -15 -9 -3 -13
-10 -10 -15 3 -5 -2 -12 -10 -15 -9 -3 -13 -10 -10 -15 3 -5 -2 -12 -10 -15
-9 -3 -13 -10 -10 -15 3 -5 -2 -12 -10 -15 -9 -3 -14 -10 -11 -14 3 -4 -2 -11
-11 -14 -8 -3 -12 -10 -9 -16 3 -5 1 -10 -4 -10 -6 0 -11 -7 -11 -15 0 -8 -5
-15 -11 -15 -5 0 -7 -5 -4 -10 3 -6 -1 -13 -9 -16 -9 -3 -14 -10 -11 -14 3 -4
-2 -11 -11 -14 -8 -3 -12 -10 -9 -16 3 -5 1 -10 -5 -10 -6 0 -8 -5 -5 -10 3
-6 -1 -13 -9 -16 -9 -3 -14 -10 -11 -14 3 -4 -2 -11 -11 -14 -8 -3 -12 -10 -9
-16 3 -5 1 -10 -5 -10 -6 0 -8 -5 -5 -10 3 -6 -1 -13 -9 -16 -9 -3 -13 -10
-10 -15 3 -5 0 -9 -6 -9 -6 0 -8 -5 -5 -10 3 -6 -1 -13 -9 -16 -9 -3 -13 -10
-10 -15 3 -5 0 -9 -5 -9 -6 0 -11 -7 -11 -15 0 -8 -5 -15 -11 -15 -5 0 -7 -4
-4 -10 3 -5 1 -10 -5 -10 -6 0 -8 -5 -5 -10 3 -6 -1 -13 -9 -16 -9 -3 -13 -10
-10 -15 3 -5 0 -9 -6 -9 -6 0 -9 -4 -6 -8 3 -5 -3 -18 -14 -29 -10 -12 -16
-24 -13 -27 4 -3 1 -6 -6 -6 -7 0 -9 -5 -6 -10 3 -6 -1 -13 -9 -16 -9 -3 -13
-10 -10 -15 3 -5 0 -9 -6 -9 -6 0 -8 -4 -5 -10 3 -5 1 -10 -5 -10 -6 0 -8 -4
-5 -10 3 -5 1 -10 -4 -10 -6 0 -11 -7 -11 -15 0 -8 -5 -15 -11 -15 -5 0 -7 -4
-4 -10 3 -5 1 -10 -5 -10 -6 0 -8 -4 -5 -10 3 -5 2 -10 -3 -10 -6 0 -13 -11
-16 -25 -4 -14 -11 -25 -17 -25 -6 0 -7 -4 -4 -10 3 -5 1 -10 -5 -10 -6 0 -8
-4 -5 -10 3 -5 1 -10 -5 -10 -6 0 -8 -4 -5 -10 3 -5 2 -10 -3 -10 -6 0 -13
-11 -16 -25 -4 -14 -11 -25 -17 -25 -6 0 -7 -4 -4 -10 3 -5 1 -10 -5 -10 -6 0
-8 -4 -5 -10 3 -5 1 -10 -5 -10 -6 0 -8 -4 -5 -10 3 -5 1 -10 -5 -10 -6 0 -8
-4 -5 -10 3 -5 1 -10 -5 -10 -6 0 -8 -4 -5 -10 3 -5 1 -10 -5 -10 -6 0 -8 -4
-5 -10 3 -5 1 -10 -5 -10 -6 0 -9 -4 -6 -9 4 -5 3 -11 -1 -13 -10 -4 -128
-241 -125 -250 1 -5 -3 -8 -9 -8 -5 0 -7 -4 -4 -10 3 -5 1 -10 -5 -10 -6 0 -8
-4 -5 -10 3 -5 1 -10 -5 -10 -6 0 -8 -4 -5 -10 3 -5 1 -10 -5 -10 -6 0 -8 -4
-5 -10 3 -5 1 -10 -5 -10 -6 0 -8 -4 -5 -10 3 -5 1 -10 -5 -10 -6 0 -8 -4 -5
-10 3 -5 1 -10 -6 -10 -7 0 -9 -3 -6 -6 3 -4 1 -16 -5 -28 -7 -11 -11 -24 -10
-28 1 -5 -3 -8 -9 -8 -5 0 -7 -4 -4 -10 3 -5 1 -10 -5 -10 -6 0 -8 -4 -5 -10
3 -5 1 -10 -5 -10 -6 0 -8 -4 -5 -10 3 -5 1 -10 -5 -10 -6 0 -9 -4 -5 -9 3 -5
1 -12 -5 -16 -6 -4 -8 -11 -5 -16 4 -5 1 -9 -5 -9 -6 0 -8 -4 -5 -10 3 -5 1
-10 -5 -10 -6 0 -8 -4 -5 -10 3 -5 1 -10 -5 -10 -6 0 -9 -4 -5 -9 3 -5 1 -12
-5 -16 -6 -4 -8 -11 -5 -16 4 -5 1 -9 -5 -9 -6 0 -8 -4 -5 -10 3 -5 2 -10 -2
-10 -5 0 -10 -10 -10 -22 -1 -13 -7 -24 -13 -26 -5 -2 -8 -8 -4 -13 3 -5 0 -9
-6 -9 -6 0 -9 -4 -5 -9 3 -5 1 -12 -5 -16 -6 -4 -8 -11 -5 -16 4 -5 1 -9 -5
-9 -6 0 -8 -4 -5 -10 3 -5 1 -10 -5 -10 -6 0 -9 -4 -5 -9 3 -5 1 -12 -5 -16
-6 -4 -8 -11 -5 -16 4 -5 1 -9 -5 -9 -6 0 -9 -4 -5 -9 3 -5 1 -12 -5 -16 -6
-4 -8 -11 -5 -16 4 -5 1 -9 -5 -9 -6 0 -8 -4 -5 -10 3 -5 2 -10 -4 -10 -6 0
-8 -7 -5 -15 4 -8 1 -15 -6 -15 -6 0 -8 -4 -5 -10 3 -5 2 -10 -4 -10 -6 0 -8
-7 -5 -15 4 -8 1 -15 -6 -15 -6 0 -9 -4 -5 -9 3 -5 1 -12 -5 -16 -6 -4 -8 -11
-5 -16 4 -5 1 -9 -5 -9 -6 0 -9 -4 -5 -9 3 -5 1 -12 -5 -16 -6 -4 -8 -11 -5
-16 4 -5 1 -9 -5 -9 -6 0 -9 -4 -5 -9 3 -5 1 -12 -5 -16 -6 -4 -8 -10 -5 -15
3 -5 1 -11 -5 -15 -6 -4 -8 -11 -5 -16 4 -5 1 -9 -5 -9 -6 0 -9 -4 -5 -9 3 -5
1 -12 -5 -16 -6 -4 -8 -10 -5 -15 3 -5 1 -11 -5 -15 -6 -4 -8 -11 -5 -16 4 -5
2 -9 -4 -9 -6 0 -8 -7 -5 -15 4 -8 1 -15 -6 -15 -6 0 -9 -4 -5 -9 3 -5 1 -12
-5 -16 -6 -4 -8 -10 -5 -15 3 -5 1 -11 -5 -15 -6 -4 -8 -11 -5 -16 4 -5 1 -9
-5 -9 -7 0 -10 -7 -6 -15 3 -8 1 -15 -4 -15 -5 0 -7 -7 -4 -15 4 -8 1 -15 -5
-15 -6 0 -10 -3 -10 -7 1 -5 0 -11 -1 -15 -1 -5 -4 -12 -5 -18 -1 -5 -4 -12
-5 -15 -1 -3 -4 -9 -5 -15 -1 -5 -4 -12 -5 -15 -1 -3 -4 -9 -5 -15 -1 -5 -4
-12 -5 -15 -1 -3 -4 -9 -5 -15 -1 -5 -4 -12 -5 -15 -1 -3 -4 -9 -5 -15 -1 -5
-4 -12 -5 -15 -1 -3 -4 -9 -5 -15 -1 -5 -4 -12 -5 -15 -1 -3 -4 -9 -5 -15 -1
-5 -4 -12 -5 -15 -1 -3 -3 -9 -4 -14 0 -5 -4 -12 -8 -16 -4 -4 -4 -13 -1 -21
3 -8 0 -14 -6 -14 -6 0 -8 -7 -5 -15 4 -8 1 -15 -6 -15 -7 0 -10 -7 -7 -15 4
-8 2 -17 -4 -20 -5 -4 -7 -10 -4 -15 3 -5 1 -11 -5 -15 -6 -4 -8 -10 -5 -15 3
-5 1 -11 -4 -15 -6 -3 -8 -12 -4 -20 3 -8 0 -15 -7 -15 -7 0 -10 -7 -7 -15 4
-8 2 -17 -3 -20 -5 -3 -7 -12 -3 -20 3 -8 0 -15 -7 -15 -6 0 -8 -5 -5 -10 4
-6 1 -17 -5 -25 -7 -8 -9 -15 -5 -15 4 0 2 -6 -4 -13 -6 -8 -8 -17 -4 -20 3
-4 0 -13 -7 -22 -7 -8 -9 -15 -5 -15 4 0 2 -7 -5 -15 -6 -8 -9 -19 -6 -24 4
-5 2 -12 -3 -16 -6 -3 -8 -12 -4 -20 3 -8 0 -15 -7 -15 -7 0 -10 -7 -7 -15 4
-8 2 -17 -4 -21 -6 -3 -8 -12 -5 -20 3 -7 1 -16 -4 -19 -5 -3 -7 -12 -4 -19 3
-8 1 -17 -5 -20 -6 -4 -8 -13 -5 -20 3 -8 1 -17 -5 -20 -6 -4 -8 -13 -4 -21 3
-8 0 -15 -7 -15 -7 0 -9 -8 -5 -20 4 -12 2 -20 -5 -20 -7 0 -9 -8 -5 -20 4
-12 2 -20 -5 -20 -7 0 -9 -8 -5 -19 3 -11 1 -22 -5 -26 -6 -3 -8 -11 -4 -16 3
-5 0 -16 -6 -24 -6 -8 -9 -19 -6 -24 4 -5 2 -13 -4 -16 -6 -4 -8 -15 -5 -26 4
-11 2 -19 -5 -19 -7 0 -9 -8 -5 -19 3 -11 1 -22 -4 -25 -6 -4 -8 -13 -5 -20 3
-8 0 -17 -6 -21 -6 -4 -8 -15 -5 -25 3 -10 1 -21 -5 -25 -6 -4 -8 -15 -5 -25
3 -10 2 -21 -4 -24 -5 -3 -7 -15 -4 -26 3 -12 0 -20 -7 -20 -7 0 -9 -8 -5 -19
3 -11 1 -22 -5 -26 -6 -4 -8 -15 -5 -25 3 -10 1 -21 -5 -25 -5 -3 -7 -17 -4
-30 3 -12 1 -26 -5 -29 -5 -4 -8 -13 -4 -21 3 -9 0 -22 -7 -30 -6 -8 -9 -19
-5 -25 4 -6 1 -17 -5 -25 -7 -8 -9 -22 -6 -31 3 -9 3 -21 -1 -27 -5 -7 -9 -21
-10 -32 -2 -19 -4 -33 -18 -117 -3 -18 -7 -44 -9 -58 -1 -14 -4 -28 -6 -32 -1
-5 -4 -20 -6 -35 -2 -16 -6 -44 -9 -63 -6 -45 -18 -139 -30 -235 -2 -22 -7
-58 -10 -80 -4 -38 -6 -56 -20 -185 -16 -164 -28 -317 -40 -530 -8 -146 -9
-1039 0 -1185 14 -248 44 -606 60 -725 3 -19 8 -54 11 -77 16 -132 24 -191 30
-233 3 -19 6 -47 8 -62 2 -16 5 -31 6 -35 2 -5 5 -19 6 -33 2 -14 6 -40 9 -57
14 -85 16 -99 18 -118 1 -11 6 -26 10 -33 5 -7 6 -21 2 -31 -3 -11 -1 -22 5
-26 6 -4 8 -15 5 -25 -3 -10 -1 -21 5 -25 7 -4 9 -18 6 -30 -3 -13 -1 -27 5
-30 6 -4 8 -14 5 -22 -4 -9 -1 -22 5 -29 6 -7 8 -18 4 -24 -4 -6 -1 -17 5 -25
6 -8 9 -19 5 -25 -4 -6 -1 -17 5 -25 6 -8 9 -19 6 -24 -4 -5 -1 -13 5 -16 5
-4 8 -14 5 -22 -4 -9 -1 -22 5 -29 6 -7 8 -18 4 -24 -4 -6 -1 -17 5 -25 6 -8
9 -19 6 -24 -4 -5 -2 -13 4 -16 6 -4 8 -15 5 -26 -4 -11 -2 -19 5 -19 7 0 9
-8 5 -19 -3 -11 -1 -22 5 -26 6 -3 8 -11 4 -16 -3 -5 0 -16 6 -24 6 -8 9 -19
6 -24 -4 -5 -2 -13 4 -16 6 -4 8 -15 5 -26 -4 -11 -2 -19 5 -19 7 0 9 -8 5
-20 -4 -12 -2 -20 5 -20 7 0 9 -8 5 -20 -4 -12 -2 -20 5 -20 7 0 9 -8 5 -20
-4 -12 -2 -20 5 -20 7 0 10 -7 7 -15 -4 -8 -2 -17 4 -21 6 -3 8 -12 5 -20 -3
-7 -1 -16 5 -20 6 -3 8 -12 5 -20 -3 -7 -1 -16 4 -19 5 -3 7 -12 3 -20 -3 -8
0 -15 7 -15 7 0 10 -7 7 -15 -4 -8 -2 -17 4 -21 6 -3 8 -12 5 -20 -3 -7 -1
-16 4 -19 5 -3 7 -12 3 -20 -3 -8 0 -15 7 -15 7 0 10 -7 7 -15 -4 -8 -2 -17 3
-20 5 -3 7 -12 3 -20 -3 -8 0 -15 7 -15 7 0 10 -7 7 -15 -4 -8 -2 -17 4 -20 5
-4 7 -10 4 -15 -3 -5 -1 -11 4 -15 6 -3 8 -12 4 -20 -3 -8 0 -15 7 -15 7 0 10
-7 7 -15 -4 -8 -2 -17 4 -20 5 -4 7 -10 4 -15 -3 -5 -1 -11 4 -15 6 -3 8 -12
4 -20 -3 -8 0 -15 6 -15 6 0 8 -7 5 -15 -4 -8 -1 -15 6 -15 7 0 10 -7 6 -15
-3 -8 -1 -15 5 -15 6 0 9 -6 6 -14 -3 -7 0 -19 6 -25 6 -6 7 -11 3 -11 -5 0
-3 -7 4 -15 7 -8 9 -15 5 -15 -4 0 -2 -7 5 -15 7 -8 9 -15 5 -15 -4 0 -2 -7 5
-15 7 -8 9 -15 5 -15 -4 0 -2 -7 5 -15 7 -8 9 -15 5 -15 -4 0 -2 -7 5 -15 7
-8 9 -15 5 -15 -4 0 -2 -7 5 -15 7 -8 9 -15 5 -15 -4 0 -2 -7 5 -15 7 -8 9
-15 5 -15 -4 0 -2 -6 4 -13 6 -8 8 -17 4 -20 -3 -4 -1 -7 6 -7 8 0 11 -7 7
-15 -3 -8 -1 -15 5 -15 6 0 9 -7 5 -15 -3 -8 -1 -15 4 -15 5 0 7 -7 4 -15 -4
-8 -1 -15 6 -15 6 0 9 -4 5 -9 -3 -5 -1 -12 5 -16 6 -4 8 -10 5 -15 -3 -5 -1
-11 5 -15 6 -4 8 -11 5 -16 -4 -5 -2 -9 4 -9 6 0 8 -7 5 -15 -4 -8 -1 -15 6
-15 6 0 9 -4 5 -9 -3 -5 -1 -12 5 -16 6 -4 8 -11 5 -16 -4 -5 -2 -9 4 -9 6 0
8 -7 5 -15 -4 -8 -1 -15 6 -15 6 0 9 -4 5 -9 -3 -5 -1 -12 5 -16 6 -4 8 -11 5
-16 -4 -5 -1 -9 5 -9 6 0 9 -4 5 -9 -3 -5 -1 -12 5 -16 6 -4 8 -11 5 -16 -4
-5 -2 -9 4 -9 6 0 8 -7 5 -15 -4 -8 -1 -15 6 -15 6 0 8 -5 5 -10 -3 -6 -2 -10
4 -10 6 0 8 -7 5 -15 -4 -8 -1 -15 6 -15 6 0 8 -4 5 -10 -3 -5 -1 -10 5 -10 7
0 10 -7 6 -15 -3 -8 -1 -15 5 -15 6 0 7 -4 4 -10 -3 -5 -1 -10 5 -10 7 0 10
-7 6 -15 -3 -8 -1 -15 5 -15 6 0 7 -4 4 -10 -3 -6 -1 -10 5 -10 6 0 9 -4 5 -9
-3 -5 -1 -12 5 -16 6 -4 8 -11 5 -16 -4 -5 -1 -9 5 -9 6 0 8 -4 5 -10 -3 -6
-1 -10 5 -10 7 0 10 -7 6 -15 -3 -8 -1 -15 5 -15 6 0 7 -4 4 -10 -3 -5 -2 -10
2 -10 5 0 10 -10 10 -22 1 -13 7 -24 13 -26 5 -2 8 -8 4 -13 -3 -5 0 -9 6 -9
6 0 9 -4 6 -9 -4 -5 -1 -11 4 -13 6 -2 12 -13 13 -26 0 -12 5 -22 10 -22 4 0
5 -4 2 -10 -3 -5 -1 -10 4 -10 6 0 10 -3 9 -7 -1 -5 3 -18 10 -29 6 -12 8 -24
5 -28 -3 -3 -1 -6 6 -6 7 0 9 -4 6 -10 -3 -6 -1 -10 5 -10 6 0 8 -5 5 -10 -3
-6 -1 -10 4 -10 6 0 10 -3 9 -7 -1 -5 3 -18 10 -29 6 -12 8 -24 5 -28 -3 -3
-1 -6 6 -6 7 0 9 -5 6 -10 -3 -6 -1 -10 5 -10 6 0 8 -4 5 -10 -3 -5 -1 -10 5
-10 6 0 8 -4 5 -10 -3 -5 -1 -10 5 -10 6 0 8 -5 5 -10 -3 -6 -1 -10 5 -10 6 0
8 -4 5 -10 -3 -5 -1 -10 5 -10 6 0 9 -4 6 -9 -4 -5 -3 -11 1 -13 10 -4 59
-110 56 -120 -2 -4 2 -8 8 -8 5 0 7 -4 4 -10 -3 -5 -1 -10 5 -10 6 0 8 -4 5
-10 -3 -5 -1 -10 5 -10 6 0 8 -4 5 -10 -3 -5 -3 -10 2 -10 4 0 14 -15 22 -32
8 -18 22 -45 32 -59 10 -14 16 -29 12 -33 -3 -3 -1 -6 6 -6 7 0 9 -4 6 -10 -3
-5 -1 -10 5 -10 6 0 8 -5 5 -10 -3 -6 -1 -10 5 -10 6 0 8 -4 5 -10 -3 -5 -1
-10 5 -10 6 0 8 -4 5 -10 -3 -5 -1 -10 5 -10 6 0 8 -5 5 -10 -3 -5 -1 -10 6
-10 7 0 10 -3 6 -6 -3 -3 3 -15 13 -27 11 -11 17 -24 14 -29 -3 -4 0 -8 6 -8
6 0 8 -4 5 -10 -3 -5 -1 -10 5 -10 6 0 8 -4 5 -10 -3 -5 -1 -10 5 -10 6 0 8
-4 5 -10 -3 -5 -1 -10 4 -10 6 0 11 -7 11 -15 0 -8 5 -15 11 -15 5 0 7 -4 4
-10 -3 -5 -1 -10 5 -10 6 0 8 -4 5 -10 -3 -6 -1 -10 5 -10 6 0 8 -4 5 -10 -3
-5 -1 -10 4 -10 6 0 11 -7 11 -15 0 -8 5 -15 11 -15 5 0 7 -4 4 -10 -3 -6 -1
-10 5 -10 6 0 8 -4 5 -10 -3 -5 -1 -10 4 -10 6 0 11 -7 11 -15 0 -8 5 -15 11
-15 5 0 7 -4 4 -10 -3 -6 -1 -10 5 -10 6 0 9 -4 6 -9 -3 -5 1 -12 10 -15 8 -3
12 -10 9 -16 -3 -5 -1 -10 5 -10 6 0 8 -4 5 -10 -3 -5 -1 -10 4 -10 6 0 11 -7
11 -15 0 -8 5 -15 11 -15 5 0 7 -4 4 -10 -3 -5 -1 -10 4 -10 6 0 11 -7 11 -15
0 -8 5 -15 11 -15 5 0 7 -5 4 -10 -3 -6 -1 -10 4 -10 6 0 11 -7 11 -15 0 -8 5
-15 11 -15 5 0 8 -4 5 -9 -3 -5 1 -12 10 -15 8 -3 12 -10 9 -16 -3 -5 -1 -10
5 -10 6 0 9 -4 6 -9 -3 -5 1 -12 10 -15 8 -3 12 -10 9 -16 -3 -5 -1 -10 4 -10
6 0 11 -7 11 -15 0 -8 5 -15 11 -15 5 0 8 -4 5 -9 -3 -5 1 -12 10 -15 8 -3 13
-10 10 -15 -3 -5 1 -12 10 -15 8 -3 12 -10 9 -16 -3 -5 -1 -10 4 -10 6 0 11
-7 11 -15 0 -8 5 -15 11 -15 5 0 8 -4 5 -9 -3 -5 1 -12 10 -15 8 -3 12 -10 9
-16 -3 -6 1 -13 9 -16 9 -3 14 -10 11 -14 -3 -4 2 -11 11 -14 8 -3 13 -10 10
-15 -3 -5 1 -12 10 -15 8 -3 13 -10 10 -15 -3 -5 1 -12 10 -15 8 -3 13 -10 10
-15 -3 -5 1 -12 10 -15 8 -3 13 -10 10 -15 -3 -5 1 -12 10 -15 8 -3 13 -10 10
-15 -3 -5 1 -12 10 -15 8 -3 13 -10 10 -15 -3 -5 1 -12 10 -15 8 -3 12 -10 9
-16 -3 -6 1 -13 9 -16 9 -3 13 -10 10 -15 -3 -5 2 -12 10 -15 9 -3 16 -12 16
-19 0 -7 7 -16 16 -19 8 -3 13 -10 10 -15 -3 -5 1 -12 10 -15 8 -3 13 -10 9
-15 -3 -6 4 -15 15 -21 11 -6 18 -15 15 -19 -3 -5 2 -12 11 -15 8 -3 13 -10 9
-15 -3 -6 4 -15 15 -21 11 -6 18 -15 15 -21 -4 -5 1 -12 9 -15 9 -3 16 -13 16
-20 0 -8 7 -17 15 -20 8 -4 13 -10 10 -15 -3 -4 4 -13 15 -19 11 -6 18 -15 15
-20 -3 -5 4 -14 15 -20 11 -6 18 -15 15 -20 -3 -5 4 -14 15 -20 11 -6 18 -15
15 -20 -3 -5 4 -14 15 -20 11 -6 20 -16 20 -23 0 -7 9 -18 20 -25 12 -7 18
-17 15 -22 -3 -5 4 -14 15 -20 11 -6 18 -15 15 -19 -2 -5 7 -16 20 -25 14 -9
23 -21 20 -25 -2 -5 7 -16 20 -25 14 -9 23 -21 20 -25 -2 -5 7 -16 20 -25 14
-9 23 -21 20 -25 -2 -5 7 -16 20 -25 14 -9 23 -21 20 -26 -3 -5 8 -18 25 -30
17 -12 28 -25 25 -30 -3 -5 8 -18 25 -30 17 -12 28 -25 25 -30 -3 -5 8 -18 25
-30 16 -12 30 -27 30 -34 0 -8 16 -26 35 -40 20 -15 33 -31 30 -36 -3 -4 13
-23 35 -40 22 -17 38 -35 35 -40 -3 -4 17 -27 45 -50 28 -23 48 -45 45 -50 -3
-4 24 -33 60 -65 35 -31 64 -59 63 -63 -3 -9 505 -517 514 -514 4 1 32 -28 63
-63 32 -36 61 -63 65 -60 5 3 25 -15 45 -40 21 -25 43 -45 50 -45 7 0 28 -18
45 -40 17 -22 36 -38 40 -35 5 3 21 -10 35 -30 15 -19 31 -32 36 -30 4 3 18
-8 30 -25 13 -16 28 -30 35 -30 7 0 22 -14 34 -30 12 -17 25 -28 30 -25 5 3
17 -6 26 -20 9 -14 22 -25 29 -25 7 0 20 -11 29 -25 9 -14 21 -23 25 -20 5 2
16 -7 25 -20 9 -14 21 -23 25 -20 5 2 16 -7 25 -20 9 -14 21 -23 26 -20 5 3
14 -4 20 -15 6 -11 17 -20 25 -20 8 0 19 -9 25 -20 6 -11 15 -18 20 -15 5 3
14 -4 20 -15 6 -11 15 -18 20 -15 5 3 14 -4 20 -15 6 -11 17 -20 26 -20 8 0
17 -7 20 -15 4 -8 13 -15 20 -15 8 0 17 -7 20 -15 4 -8 12 -15 19 -15 7 0 16
-7 19 -16 3 -8 10 -13 15 -9 6 3 15 -4 21 -15 6 -11 15 -18 20 -15 5 3 14 -4
20 -15 6 -11 15 -18 19 -15 5 3 11 -2 15 -10 3 -8 12 -15 20 -15 7 0 17 -7 20
-16 3 -8 10 -12 16 -9 6 3 13 -1 16 -9 3 -9 10 -14 15 -11 4 3 13 -4 19 -15 6
-11 15 -18 21 -15 5 4 12 -1 15 -9 3 -9 10 -13 15 -10 5 3 12 -2 15 -10 3 -9
10 -13 15 -10 5 3 12 -2 15 -10 3 -9 12 -16 19 -16 7 0 16 -7 19 -16 3 -8 10
-13 15 -10 5 3 12 -1 15 -10 3 -8 10 -13 15 -10 5 3 12 -1 15 -10 3 -8 10 -12
16 -9 6 3 13 -1 16 -9 3 -9 10 -14 14 -11 4 3 11 -2 14 -11 3 -8 10 -13 15
-10 5 3 12 -1 15 -10 3 -8 10 -13 15 -10 5 3 12 -1 15 -10 3 -8 10 -12 16 -9
5 3 10 1 10 -4 0 -6 7 -11 15 -11 8 0 15 -4 15 -10 0 -5 7 -10 15 -10 8 0 15
-5 15 -11 0 -5 5 -7 10 -4 6 3 13 -1 16 -9 3 -9 10 -14 14 -11 4 3 11 -2 14
-11 3 -8 10 -12 16 -9 5 3 10 1 10 -4 0 -6 7 -11 15 -11 8 0 15 -5 15 -11 0
-5 5 -7 10 -4 6 3 13 -1 16 -9 3 -9 10 -13 15 -10 5 3 9 0 9 -5 0 -6 7 -11 15
-11 8 0 15 -5 15 -11 0 -5 5 -7 10 -4 6 3 10 1 10 -4 0 -6 7 -11 15 -11 8 0
15 -5 15 -11 0 -5 5 -7 10 -4 6 3 10 1 10 -4 0 -6 7 -11 15 -11 8 0 15 -5 15
-11 0 -5 4 -7 10 -4 6 3 10 1 10 -4 0 -6 7 -11 15 -11 8 0 15 -5 15 -11 0 -5
5 -7 10 -4 6 3 10 1 10 -4 0 -6 7 -11 15 -11 8 0 15 -5 15 -11 0 -5 5 -7 10
-4 6 3 10 1 10 -5 0 -6 5 -8 10 -5 6 3 13 -1 16 -9 3 -9 10 -13 15 -10 5 3 9
0 9 -6 0 -6 4 -8 10 -5 5 3 10 1 10 -4 0 -6 7 -11 15 -11 8 0 15 -5 15 -11 0
-5 5 -7 10 -4 6 3 10 1 10 -5 0 -6 5 -8 10 -5 6 3 10 1 10 -5 0 -6 4 -9 8 -6
5 3 18 -3 29 -14 12 -10 24 -16 27 -13 3 4 6 1 6 -6 0 -7 5 -9 10 -6 6 3 10 1
10 -5 0 -6 4 -9 8 -6 5 3 18 -3 29 -14 12 -10 24 -16 27 -13 3 4 6 1 6 -6 0
-7 5 -9 10 -6 6 3 10 1 10 -5 0 -6 5 -8 10 -5 5 3 10 1 10 -5 0 -6 4 -8 10 -5
6 3 10 2 10 -3 0 -6 11 -13 25 -16 14 -4 25 -11 25 -17 0 -6 4 -7 10 -4 6 3
10 1 10 -5 0 -6 5 -8 10 -5 6 3 10 1 10 -5 0 -6 5 -8 10 -5 6 3 10 1 10 -5 0
-6 5 -8 10 -5 6 3 10 1 10 -5 0 -6 5 -8 10 -5 6 3 10 1 10 -5 0 -6 5 -8 10 -5
6 3 10 1 10 -5 0 -6 5 -8 10 -5 6 3 10 1 10 -5 0 -6 5 -8 10 -5 6 3 10 1 10
-5 0 -6 5 -8 10 -5 6 3 10 1 10 -5 0 -6 5 -8 10 -5 6 3 10 1 10 -5 0 -6 5 -8
10 -5 6 3 10 1 10 -5 0 -6 5 -8 10 -5 6 3 10 1 10 -5 0 -6 5 -8 10 -5 6 3 10
1 10 -5 0 -6 4 -8 10 -5 5 3 10 1 10 -5 0 -6 4 -8 10 -5 6 3 10 1 10 -5 0 -6
5 -8 10 -5 6 3 10 1 10 -5 0 -6 5 -8 10 -5 5 3 10 1 10 -5 0 -6 5 -8 10 -5 6
3 10 1 10 -5 0 -6 5 -8 10 -5 6 3 10 1 10 -5 0 -6 5 -8 10 -5 6 3 10 1 10 -5
0 -6 5 -8 10 -5 6 3 10 1 10 -5 0 -6 5 -8 10 -5 6 3 10 1 10 -6 0 -7 3 -9 6
-6 4 3 16 1 28 -5 11 -7 24 -11 29 -10 4 1 7 -3 7 -9 0 -5 5 -7 10 -4 6 3 10
1 10 -5 0 -6 5 -8 10 -5 6 3 10 1 10 -5 0 -6 5 -8 10 -5 6 3 10 2 10 -2 0 -5
10 -10 22 -10 13 -1 24 -7 26 -13 2 -5 8 -8 13 -4 5 3 9 0 9 -6 0 -6 5 -8 10
-5 6 3 10 1 10 -6 0 -7 3 -9 6 -6 4 3 16 1 28 -5 11 -7 24 -11 29 -10 4 1 7
-3 7 -9 0 -5 4 -7 10 -4 5 3 10 1 10 -5 0 -6 4 -9 9 -5 5 3 12 1 16 -5 4 -6
11 -8 16 -5 5 4 9 1 9 -5 0 -6 5 -8 10 -5 6 3 10 1 10 -5 0 -6 4 -9 9 -5 5 3
12 1 16 -5 4 -6 11 -8 16 -5 5 4 9 1 9 -5 0 -6 5 -8 10 -5 6 3 10 1 10 -5 0
-6 4 -9 9 -5 5 3 12 1 16 -5 4 -6 11 -8 16 -5 5 4 9 1 9 -5 0 -6 4 -9 9 -5 5
3 12 1 16 -5 4 -6 11 -8 16 -5 5 4 9 1 9 -5 0 -6 5 -8 10 -5 6 3 10 1 10 -5 0
-7 7 -10 15 -6 8 3 15 1 15 -5 0 -6 5 -7 10 -4 6 3 10 1 10 -5 0 -7 7 -10 15
-6 8 3 15 1 15 -5 0 -6 5 -7 10 -4 6 3 10 1 10 -5 0 -7 7 -10 15 -6 8 3 15 1
15 -5 0 -6 4 -8 9 -4 5 3 12 1 16 -5 4 -6 11 -8 16 -5 5 4 9 1 9 -5 0 -6 4 -9
9 -5 5 3 12 1 16 -5 4 -6 11 -8 16 -5 5 4 9 2 9 -4 0 -6 7 -8 15 -5 8 4 15 1
15 -6 0 -6 4 -9 9 -5 5 3 12 1 16 -5 4 -6 11 -8 16 -5 5 4 9 2 9 -4 0 -6 7 -8
15 -5 8 4 15 1 15 -6 0 -6 4 -9 9 -5 5 3 12 1 16 -5 4 -6 10 -8 15 -5 5 3 11
1 15 -5 4 -6 11 -8 16 -5 5 4 9 2 9 -4 0 -6 7 -8 15 -5 8 4 15 1 15 -5 0 -6 7
-8 15 -5 8 4 15 1 15 -6 0 -6 4 -9 9 -5 5 3 12 1 16 -5 4 -6 10 -8 15 -5 5 3
11 1 15 -5 4 -6 10 -8 15 -5 5 3 11 1 15 -5 4 -6 11 -8 16 -5 5 4 9 1 9 -5 0
-7 7 -10 15 -6 8 3 15 1 15 -5 0 -6 7 -9 15 -5 8 3 15 1 15 -5 0 -6 7 -9 15
-5 8 3 15 1 15 -5 0 -6 7 -9 15 -5 8 3 15 1 15 -5 0 -6 7 -9 15 -5 8 3 15 1
15 -5 0 -6 7 -9 15 -6 8 4 17 2 20 -4 4 -5 10 -7 15 -4 5 3 11 1 15 -5 4 -6
10 -8 15 -5 5 3 11 1 15 -4 3 -6 12 -8 20 -4 8 3 15 0 15 -6 0 -6 7 -8 15 -5
8 4 15 1 15 -6 0 -7 7 -10 15 -7 8 4 17 2 20 -4 4 -5 10 -7 15 -4 5 3 11 1 15
-4 3 -6 12 -8 20 -4 8 3 15 0 15 -6 0 -6 6 -8 14 -5 8 3 17 0 21 -5 3 -6 10
-9 15 -6 5 3 11 1 15 -4 3 -6 12 -8 20 -4 8 3 15 0 15 -7 0 -7 7 -10 15 -7 8
4 17 2 20 -3 3 -5 12 -7 20 -3 8 3 15 0 15 -7 0 -7 7 -10 15 -7 8 4 17 2 20
-3 3 -5 12 -7 19 -4 8 3 17 1 20 -5 4 -6 13 -8 21 -4 8 3 15 0 15 -7 0 -7 7
-10 15 -7 8 4 17 2 20 -3 3 -5 12 -7 19 -4 8 3 17 1 20 -5 4 -6 13 -8 20 -5 8
3 17 1 20 -5 4 -6 13 -8 20 -5 8 3 17 1 20 -5 4 -6 13 -8 21 -4 8 3 15 0 15
-7 0 -7 8 -9 20 -5 12 4 20 2 20 -5 0 -7 8 -9 19 -5 11 3 22 1 25 -4 4 -6 13
-8 20 -5 8 3 17 0 21 -5 3 -6 11 -9 16 -5 5 3 16 0 24 -6 8 -6 19 -9 24 -6 5
4 13 2 16 -4 4 -6 15 -8 25 -5 10 3 21 1 24 -4 4 -6 13 -8 20 -5 8 3 17 0 21
-6 4 -6 15 -8 25 -5 10 3 21 1 24 -4 4 -6 13 -8 20 -5 8 3 17 0 21 -6 4 -6 15
-8 25 -5 10 3 21 1 25 -5 4 -6 15 -8 25 -5 10 3 21 1 25 -5 4 -6 15 -8 25 -5
10 3 21 1 25 -5 4 -6 15 -8 25 -5 10 3 21 1 25 -5 4 -6 15 -8 25 -5 10 3 21 1
25 -5 4 -6 15 -8 25 -5 10 3 21 1 25 -5 4 -6 15 -8 26 -5 10 4 24 3 31 -2 7
-4 23 -9 36 -10 12 -2 32 -4 45 -6 12 -1 27 -5 34 -10 6 -4 18 -4 27 -1 8 3
21 2 28 -2 7 -5 25 -10 41 -11 47 -5 87 -10 92 -13 3 -1 17 -4 33 -6 15 -2 45
-6 67 -9 22 -3 54 -7 70 -9 17 -2 35 -4 40 -6 10 -3 30 -5 115 -14 25 -3 65
-7 90 -10 25 -3 66 -8 92 -11 27 -2 72 -7 100 -10 113 -11 156 -15 228 -20
292 -21 446 -25 860 -25 409 0 593 6 860 25 72 5 109 8 228 20 28 3 73 8 100
10 69 7 131 14 182 20 25 3 59 7 75 9 17 1 35 4 40 6 6 2 24 4 40 6 17 2 48 6
70 9 22 3 51 7 65 9 14 1 30 4 35 6 13 4 53 10 90 13 17 1 36 6 43 10 7 5 21
6 31 2 11 -3 22 -1 26 5 4 7 18 9 30 6 13 -3 27 -1 30 4 4 6 15 8 25 5 10 -3
21 -1 25 5 4 7 18 9 30 6 13 -3 27 -1 30 4 4 6 15 8 25 5 10 -3 21 -1 25 5 4
6 14 9 22 6 9 -4 22 -1 29 5 8 6 20 9 29 6 8 -4 17 -1 21 4 3 6 15 9 25 6 10
-3 22 -1 25 4 3 6 14 7 24 4 10 -3 21 -1 25 5 4 6 15 8 25 5 10 -3 21 -1 25 5
4 6 15 8 26 5 11 -4 19 -2 19 5 0 7 8 9 19 5 11 -3 22 -1 26 5 4 6 15 8 26 5
11 -4 19 -2 19 5 0 7 8 9 19 5 11 -3 22 -1 26 5 4 6 13 9 21 6 7 -3 16 -1 20
5 3 6 12 8 20 5 7 -3 16 -1 20 5 3 5 14 7 25 4 11 -4 19 -2 19 5 0 7 8 9 20 5
12 -4 20 -2 20 5 0 7 8 9 20 5 12 -4 20 -2 20 5 0 7 8 9 20 5 12 -4 20 -2 20
5 0 7 8 9 20 5 12 -4 20 -2 20 5 0 7 7 10 15 7 8 -4 17 -2 21 4 3 6 12 8 20 5
7 -3 16 -1 19 4 3 5 12 7 19 4 8 -3 17 -1 20 5 4 6 13 8 21 4 8 -3 15 0 15 7
0 7 7 10 15 7 8 -4 17 -2 20 3 3 5 12 7 20 3 8 -3 15 0 15 7 0 7 7 10 15 7 8
-4 17 -2 20 3 3 5 12 7 20 3 8 -3 15 0 15 7 0 7 7 10 15 7 8 -4 17 -2 20 3 3
5 12 7 20 3 8 -3 15 0 15 7 0 7 7 10 15 7 8 -4 17 -2 20 4 4 5 10 7 15 4 5 -3
11 -1 15 4 3 6 12 8 20 4 8 -3 15 0 15 7 0 7 7 10 15 6 8 -3 15 -1 15 5 0 6 7
9 15 6 8 -4 17 -2 20 4 4 5 10 7 15 4 5 -3 11 -1 15 5 4 6 10 8 15 5 5 -3 11
-1 15 4 3 6 12 8 20 4 8 -3 15 0 15 6 0 6 7 8 15 5 8 -4 15 -1 15 5 0 6 7 8
15 5 8 -4 15 -1 15 5 0 6 7 8 15 5 8 -4 15 -1 15 6 0 7 7 10 15 6 8 -3 15 -1
15 5 0 6 7 9 15 5 8 -3 15 -1 15 4 0 5 7 7 15 4 8 -4 15 -1 15 5 0 6 7 8 15 5
8 -4 15 -1 15 6 0 6 4 9 9 5 5 -3 12 -1 16 5 4 6 10 8 15 5 5 -3 11 -1 15 5 4
6 10 8 15 5 5 -3 11 -1 15 5 4 6 11 8 16 5 5 -4 9 -1 9 5 0 7 7 10 15 6 8 -3
15 -1 15 4 0 5 7 7 15 4 8 -4 15 -1 15 6 0 6 4 9 9 5 5 -3 12 -1 16 5 4 6 11
8 16 5 5 -4 9 -1 9 5 0 7 7 10 15 6 8 -3 15 -1 15 5 0 6 4 8 9 4 5 -3 12 -1
16 5 4 6 10 8 15 5 5 -3 11 -1 15 5 4 6 11 8 16 5 5 -4 9 -1 9 5 0 6 4 9 9 5
5 -3 12 -1 16 5 4 6 11 8 16 5 5 -4 9 -1 9 5 0 7 7 10 15 6 8 -3 15 -1 15 5 0
6 4 8 9 4 5 -3 12 -1 16 5 4 6 11 8 16 5 5 -4 9 -1 9 5 0 6 4 9 9 5 5 -3 12
-1 16 5 4 6 11 8 16 5 5 -4 9 -1 9 5 0 6 4 9 9 5 5 -3 12 -1 16 5 4 6 11 8 16
5 5 -4 9 -1 9 5 0 6 5 8 10 5 6 -3 10 -2 10 4 0 6 7 8 15 5 8 -4 15 -1 15 6 0
6 5 8 10 5 6 -3 10 -1 10 5 0 6 4 9 9 5 5 -3 12 -1 16 5 4 6 11 8 16 5 5 -4 9
-1 9 5 0 6 4 9 9 5 5 -3 12 -1 16 5 4 6 11 8 16 5 5 -4 9 -1 9 5 0 6 5 8 10 5
6 -3 10 -1 10 5 0 6 4 9 9 5 5 -3 12 -1 16 5 4 6 11 8 16 5 5 -4 9 -1 9 5 0 6
5 8 10 5 6 -3 10 -1 10 5 0 6 5 8 10 5 6 -3 10 -1 10 5 0 6 4 9 9 5 5 -3 12
-1 16 5 4 6 11 8 16 5 5 -4 9 -1 9 5 0 6 5 8 10 5 6 -3 10 -1 10 5 0 6 4 9 9
6 5 -4 11 -1 13 4 2 6 13 12 26 13 12 0 22 5 22 10 0 4 5 5 10 2 6 -3 10 -1
10 5 0 6 5 8 10 5 6 -3 10 -1 10 5 0 6 5 8 10 5 6 -3 10 -1 10 4 0 6 3 10 8 9
4 -1 17 3 28 10 12 6 24 8 28 5 3 -3 6 -1 6 6 0 7 5 9 10 6 6 -3 10 -1 10 5 0
6 5 8 10 5 6 -3 10 -1 10 5 0 6 5 8 10 5 6 -3 10 -1 10 5 0 6 5 8 10 5 6 -3
10 -1 10 5 0 6 5 8 10 5 6 -3 10 -1 10 5 0 6 5 8 10 5 6 -3 10 -1 10 5 0 6 5
8 10 5 6 -3 10 -1 10 5 0 6 5 8 10 5 6 -3 10 -1 10 4 0 6 3 10 8 9 11 -2 147
63 150 73 2 5 8 7 13 3 5 -3 9 0 9 6 0 6 5 8 10 5 6 -3 10 -1 10 5 0 6 5 8 10
5 6 -3 10 -1 10 5 0 6 5 8 10 5 6 -3 10 -1 10 5 0 6 5 8 10 5 6 -3 10 -1 10 5
0 6 5 8 10 5 6 -3 10 -1 10 5 0 6 5 8 10 5 6 -3 10 -1 10 5 0 6 5 8 10 5 6 -3
10 -2 10 3 0 9 50 37 63 34 4 -1 7 3 7 9 0 5 5 7 10 4 6 -3 10 -1 10 5 0 6 5
8 10 5 6 -3 10 -1 10 6 0 7 3 10 6 6 3 -3 15 3 27 13 11 11 24 17 29 14 4 -3
8 0 8 6 0 6 5 8 10 5 6 -3 10 -1 10 6 0 7 3 10 6 6 3 -3 15 3 27 13 11 11 24
17 29 14 4 -3 8 0 8 7 0 7 3 10 6 6 3 -3 15 3 27 13 11 11 24 17 29 14 4 -3 8
0 8 6 0 6 5 8 10 5 6 -3 10 -1 10 4 0 6 7 11 15 11 8 0 15 5 15 11 0 5 5 7 10
4 6 -3 10 -1 10 5 0 6 5 8 10 5 6 -3 13 1 16 9 3 9 10 13 15 10 5 -3 9 0 9 6
0 6 5 8 10 5 6 -3 13 1 16 9 3 9 10 13 15 10 5 -3 9 0 9 6 0 6 4 9 9 6 5 -3
12 1 15 10 3 8 10 12 16 9 5 -3 10 -1 10 5 0 6 4 9 9 6 5 -3 12 1 15 10 3 8
10 12 16 9 5 -3 10 -1 10 5 0 6 5 8 10 5 6 -3 13 1 16 9 3 9 10 13 15 10 5 -3
9 0 9 5 0 6 7 11 15 11 8 0 15 5 15 11 0 5 5 7 10 4 6 -3 13 1 16 9 3 9 10 14
14 11 4 -3 11 2 14 11 3 8 10 12 16 9 5 -3 10 -1 10 4 0 6 7 11 15 11 8 0 15
5 15 11 0 5 5 7 10 4 6 -3 13 1 16 9 3 9 10 14 14 11 4 -3 11 2 14 11 3 8 10
13 15 10 5 -3 12 1 15 10 3 8 10 13 15 10 5 -3 12 1 15 10 3 8 10 13 15 10 5
-3 12 1 15 10 3 8 10 13 15 10 5 -3 12 1 15 10 3 8 10 13 15 10 5 -3 12 1 15
10 3 8 10 13 15 10 5 -3 12 1 15 10 3 8 10 13 15 10 5 -3 12 1 15 10 3 8 10
12 16 9 6 -3 13 1 16 9 3 9 10 13 15 10 5 -3 12 2 15 10 3 9 12 16 19 16 7 0
16 7 19 16 3 8 10 13 15 10 5 -3 12 1 15 10 3 8 10 13 15 9 6 -3 15 4 21 15 6
11 15 18 19 15 5 -3 12 2 15 11 3 8 10 13 15 9 6 -3 15 4 21 15 6 11 15 18 19
15 5 -3 11 2 15 10 3 8 12 15 20 15 7 0 17 7 20 16 3 8 10 13 15 9 6 -3 15 4
21 15 6 11 15 18 20 15 5 -3 14 4 20 15 6 11 15 18 20 15 5 -3 14 4 20 15 6
11 15 18 20 15 5 -3 14 4 20 15 6 11 15 18 20 15 5 -3 14 4 20 15 6 11 17 20
25 20 8 0 19 9 25 20 6 11 15 18 19 15 5 -2 16 7 25 20 9 14 21 23 26 20 5 -3
14 4 20 15 6 11 17 20 25 20 8 0 19 9 25 20 6 11 17 20 24 20 8 0 21 11 30 25
9 14 21 23 25 20 5 -2 16 6 25 20 9 14 23 25 31 25 8 0 22 11 31 25 9 14 22
25 29 25 8 0 23 14 35 30 12 17 25 28 30 25 4 -3 20 11 35 30 14 20 30 33 35
30 4 -3 23 13 40 35 17 22 35 38 40 35 4 -3 27 17 50 45 23 28 45 48 50 45 4
-2 31 22 59 55 29 33 55 59 59 58 9 -3 567 555 564 564 -1 3 25 30 58 58 33
29 58 56 55 60 -3 5 15 25 40 45 25 21 43 41 40 45 -3 5 13 23 35 41 22 18 40
38 40 45 0 7 14 22 30 34 17 12 30 27 30 35 0 8 14 23 30 35 17 12 28 25 25
30 -3 5 8 18 25 30 17 12 28 25 25 30 -3 5 8 18 25 30 17 12 28 25 25 30 -3 5
6 17 20 26 13 9 22 20 20 25 -3 4 6 16 20 25 13 9 22 20 20 25 -3 4 6 16 20
25 13 9 22 20 20 25 -3 4 4 13 15 19 11 6 20 17 20 25 0 8 9 19 20 25 11 6 18
15 15 20 -3 5 4 14 15 20 11 6 18 15 15 20 -3 5 4 14 15 20 11 6 20 17 20 26
0 8 7 17 15 20 8 4 15 13 15 20 0 8 7 17 15 20 8 4 15 13 15 20 0 8 7 17 15
20 8 4 13 10 10 15 -3 4 4 13 15 19 11 6 18 15 15 20 -3 5 4 14 15 20 11 6 18
15 15 21 -4 5 1 12 9 15 9 3 14 10 11 15 -3 4 4 13 15 19 11 6 18 15 15 21 -4
5 1 12 9 15 9 3 14 10 11 15 -3 4 4 13 15 19 11 6 18 15 15 19 -3 5 2 12 11
15 8 3 12 10 9 16 -3 6 1 13 9 16 9 3 13 10 10 15 -3 5 2 12 10 15 9 3 16 12
16 20 0 8 5 14 10 14 6 0 10 6 10 14 0 8 7 17 16 20 8 3 13 10 10 15 -3 5 1
12 10 15 8 3 13 10 10 15 -3 5 1 12 10 15 8 3 13 10 10 15 -3 5 1 12 10 15 8
3 13 10 10 15 -3 5 1 12 10 15 8 3 12 10 9 16 -3 5 -1 10 4 10 6 0 11 7 11 15
0 8 5 15 10 15 6 0 10 7 10 15 0 8 5 15 11 15 5 0 7 5 4 10 -3 6 1 13 9 16 9
3 13 10 10 15 -3 5 2 12 10 15 9 3 13 10 10 15 -3 5 0 9 5 9 6 0 11 7 11 15 0
8 5 15 11 15 5 0 7 5 4 10 -3 6 1 13 9 16 9 3 13 10 10 15 -3 5 0 9 5 9 6 0
11 7 11 15 0 8 5 15 11 15 5 0 8 4 5 9 -3 5 1 12 10 15 8 3 12 10 9 16 -3 5
-1 10 5 10 6 0 8 5 5 10 -3 6 1 13 9 16 9 3 13 10 10 15 -3 5 0 9 5 9 6 0 11
7 11 15 0 8 5 15 11 15 5 0 7 5 4 10 -3 6 -1 10 4 10 6 0 11 7 11 15 0 8 5 15
11 15 5 0 7 4 4 10 -3 6 -1 10 5 10 6 0 8 5 5 10 -3 6 1 13 9 16 9 3 13 10 10
15 -3 5 0 9 6 9 6 0 8 4 5 10 -3 5 -1 10 4 10 6 0 11 7 11 15 0 8 5 15 11 15
5 0 7 5 4 10 -3 6 -1 10 5 10 6 0 8 5 5 10 -3 6 -1 10 4 10 6 0 11 7 11 15 0
8 5 15 11 15 5 0 7 5 4 10 -3 5 -1 10 5 10 6 0 8 5 5 10 -3 6 -1 10 5 10 6 0
8 4 5 10 -3 6 -1 10 4 10 6 0 11 7 11 15 0 8 5 15 11 15 5 0 7 5 4 10 -3 6 -1
10 5 10 6 0 8 4 5 10 -3 6 -1 10 5 10 6 0 9 4 6 8 -3 5 3 18 14 29 10 12 16
24 13 27 -4 3 -1 6 6 6 7 0 9 5 6 10 -3 6 -1 10 5 10 6 0 8 5 5 10 -3 6 -1 10
5 10 6 0 8 5 5 10 -3 6 -1 10 5 10 6 0 8 5 5 10 -3 6 -2 10 2 10 5 0 15 16 22
35 7 19 17 35 22 35 6 0 7 4 4 10 -3 5 -1 10 5 10 6 0 8 5 5 10 -3 6 -1 10 5
10 6 0 8 4 5 10 -3 5 -1 10 5 10 6 0 8 4 5 10 -3 6 -1 10 5 10 6 0 8 5 5 10
-3 6 -1 10 5 10 6 0 8 5 5 10 -3 6 -1 10 5 10 6 0 8 5 5 10 -3 6 -1 10 5 10 6
0 8 4 5 10 -3 5 -1 10 5 10 6 0 8 5 5 10 -3 6 -1 10 5 10 6 0 8 4 5 10 -3 5
-1 10 5 10 6 0 8 4 5 10 -3 5 -1 10 5 10 6 0 8 4 5 10 -3 6 -1 10 5 10 6 0 8
5 5 10 -3 6 -1 10 5 10 6 0 8 5 5 10 -3 6 -1 10 5 10 6 0 8 5 5 10 -3 5 -1 10
6 10 7 0 10 3 6 6 -3 4 1 21 10 38 10 17 16 34 15 39 -1 4 3 7 9 7 5 0 7 5 4
10 -3 5 -1 10 5 10 6 0 8 5 5 10 -3 6 -1 10 5 10 6 0 8 4 5 10 -3 5 -1 10 5
10 6 0 8 4 5 10 -3 6 -1 10 6 10 7 0 9 3 6 6 -3 4 -1 16 5 28 7 11 11 24 10
29 -1 4 3 7 9 7 5 0 7 5 4 10 -3 6 -1 10 5 10 6 0 8 5 5 10 -3 6 -1 10 5 10 6
0 9 4 5 9 -3 5 -1 12 5 16 6 4 8 11 5 16 -4 5 -1 9 5 9 6 0 8 5 5 10 -3 6 -1
10 5 10 6 0 8 5 5 10 -3 5 -1 10 5 10 6 0 9 4 5 9 -3 5 -1 12 5 16 6 4 8 11 5
16 -4 5 -1 9 5 9 6 0 8 5 5 10 -3 6 -1 10 5 10 6 0 9 4 5 9 -3 5 -1 12 5 16 6
4 8 11 5 16 -4 5 -1 9 5 9 6 0 8 5 5 10 -3 6 -1 10 5 10 6 0 9 4 5 9 -3 5 -1
12 5 16 6 4 8 11 5 16 -4 5 -1 9 5 9 6 0 9 4 5 9 -3 5 -1 12 5 16 6 4 8 11 5
16 -4 5 -1 9 5 9 6 0 9 4 5 9 -3 5 -1 12 5 16 6 4 8 11 5 16 -4 5 -1 9 5 9 6
0 8 5 5 10 -3 6 -2 10 4 10 6 0 8 7 5 15 -4 8 -1 15 6 15 6 0 8 4 5 10 -3 5
-1 10 5 10 7 0 10 7 6 15 -3 8 -1 15 5 15 6 0 8 4 4 9 -3 5 -1 12 5 16 6 4 8
11 5 16 -4 5 -1 9 5 9 6 0 9 4 5 9 -3 5 -1 12 5 16 6 4 8 11 5 16 -4 5 -2 9 4
9 6 0 8 7 5 15 -4 8 -1 15 6 15 6 0 9 4 5 9 -3 5 -1 12 5 16 6 4 8 11 5 16 -4
5 -2 9 4 9 6 0 8 7 5 15 -4 8 -1 15 6 15 6 0 9 4 5 9 -3 5 -1 12 5 16 6 4 8
11 5 16 -4 5 -1 9 5 9 7 0 10 7 6 15 -3 8 -1 15 4 15 5 0 7 7 4 15 -4 8 -1 15
6 15 6 0 9 4 5 9 -3 5 -1 12 5 16 6 4 8 10 5 15 -3 5 -1 11 5 15 6 4 8 11 5
16 -4 5 -1 9 5 9 7 0 10 7 6 15 -3 8 -1 15 5 15 6 0 9 7 5 15 -3 8 -1 15 4 15
5 0 7 7 4 15 -4 8 -1 15 5 15 6 0 8 7 5 15 -4 8 -1 15 5 15 6 0 8 7 5 15 -4 8
-1 15 5 15 6 0 8 7 5 15 -4 8 -1 15 5 15 6 0 8 7 5 15 -4 8 -1 15 5 15 6 0 8
7 5 15 -4 8 -1 15 6 15 7 0 10 7 6 15 -3 8 -1 15 5 15 6 0 9 7 6 15 -4 8 -2
17 4 20 5 4 7 10 4 15 -3 5 -1 11 5 15 6 4 8 10 5 15 -3 5 -1 11 4 15 6 3 8
12 4 20 -3 8 0 15 7 15 7 0 10 7 6 15 -3 8 -1 15 5 15 6 0 9 7 6 15 -4 8 -2
17 4 20 5 4 7 10 4 15 -3 5 -1 11 4 15 6 3 8 12 4 20 -3 8 0 15 7 15 7 0 10 7
7 15 -4 8 -2 17 3 20 5 3 7 12 3 20 -3 8 0 15 7 15 7 0 10 7 7 15 -4 8 -2 17
3 20 5 3 7 12 3 20 -3 8 0 15 7 15 7 0 10 7 7 15 -4 8 -2 17 4 21 6 3 8 12 5
20 -3 7 -1 16 4 19 5 3 7 12 3 20 -3 8 0 15 7 15 7 0 10 7 7 15 -4 8 -2 17 4
21 6 3 8 12 5 20 -3 7 -1 16 4 19 5 3 7 12 4 19 -3 8 -1 17 5 20 6 4 8 13 5
20 -3 8 -1 17 5 20 6 4 8 13 5 20 -3 8 -1 17 5 20 6 4 8 13 5 20 -3 8 -1 17 5
20 6 4 8 13 5 20 -3 8 0 17 5 21 6 3 9 11 5 16 -3 5 0 16 6 24 6 8 9 19 6 24
-4 5 -1 13 5 16 5 4 8 14 5 22 -4 9 -1 22 5 29 6 7 8 18 5 23 -4 5 -2 13 4 16
6 4 8 15 5 25 -3 10 -1 21 5 25 6 3 8 11 4 16 -3 5 -1 16 5 23 6 7 9 20 5 29
-3 8 -1 18 5 21 6 4 8 13 4 21 -3 9 0 21 6 29 6 7 8 16 4 19 -3 4 -1 13 6 20
6 8 9 21 5 30 -3 8 -1 18 5 22 6 3 8 17 5 30 -3 12 -1 26 5 29 5 4 8 13 4 21
-3 9 0 22 7 30 6 8 9 19 5 25 -4 6 -2 17 4 24 6 7 9 21 5 29 -3 9 -2 22 3 29
4 7 9 22 10 33 2 20 8 53 19 118 3 17 6 44 8 60 2 15 5 29 6 32 1 3 4 17 6 33
2 15 5 43 8 62 13 89 16 117 17 144 0 16 4 35 10 42 5 7 7 24 3 38 -3 15 -1
32 4 39 6 7 11 28 11 47 0 19 3 58 5 85 3 28 8 70 10 95 26 249 44 513 50 735
2 61 6 217 11 348 6 182 5 237 -4 237 -7 0 -10 -4 -6 -9 3 -5 1 -12 -5 -16 -6
-4 -8 -11 -5 -16 4 -5 2 -9 -4 -9 -6 0 -8 -7 -5 -15 4 -8 1 -15 -6 -15 -6 0
-9 -4 -5 -9 3 -5 1 -12 -5 -16 -6 -4 -8 -11 -5 -16 4 -5 1 -9 -5 -9 -7 0 -10
-7 -6 -15 3 -8 1 -15 -5 -15 -6 0 -8 -4 -4 -9 3 -5 1 -12 -5 -16 -6 -4 -8 -11
-5 -16 4 -5 1 -9 -5 -9 -6 0 -9 -4 -5 -9 3 -5 1 -12 -5 -16 -6 -4 -8 -11 -5
-16 4 -5 1 -9 -5 -9 -6 0 -9 -4 -5 -9 3 -5 1 -12 -5 -16 -6 -4 -8 -11 -5 -16
4 -5 1 -9 -5 -9 -6 0 -9 -4 -5 -9 3 -5 1 -12 -5 -16 -6 -4 -8 -11 -5 -16 4 -5
1 -9 -5 -9 -6 0 -9 -4 -5 -9 3 -5 1 -12 -5 -16 -6 -4 -8 -11 -5 -16 4 -5 1 -9
-5 -9 -6 0 -8 -4 -5 -10 3 -5 1 -10 -5 -10 -6 0 -9 -4 -5 -9 3 -5 1 -12 -5
-16 -6 -4 -8 -11 -5 -16 4 -5 1 -9 -5 -9 -6 0 -8 -4 -5 -10 3 -5 1 -10 -5 -10
-6 0 -9 -4 -5 -9 3 -5 1 -12 -5 -16 -6 -4 -8 -11 -5 -16 4 -5 1 -9 -5 -9 -6 0
-8 -4 -5 -10 3 -5 1 -10 -4 -10 -6 0 -10 -3 -9 -7 1 -5 -3 -18 -10 -29 -6 -12
-8 -24 -5 -28 3 -3 1 -6 -6 -6 -7 0 -9 -4 -6 -10 3 -5 1 -10 -5 -10 -6 0 -8
-4 -5 -10 3 -5 1 -10 -4 -10 -6 0 -10 -3 -9 -7 3 -16 -15 -63 -24 -63 -5 0 -6
-4 -3 -10 3 -5 1 -10 -5 -10 -6 0 -8 -4 -5 -10 3 -5 1 -10 -5 -10 -6 0 -8 -4
-5 -10 3 -5 1 -10 -5 -10 -6 0 -8 -4 -5 -10 3 -5 1 -10 -5 -10 -6 0 -8 -4 -5
-10 3 -5 1 -10 -5 -10 -6 0 -8 -4 -5 -10 3 -5 1 -10 -5 -10 -6 0 -8 -4 -5 -10
3 -5 1 -10 -5 -10 -6 0 -8 -4 -5 -10 3 -5 1 -10 -5 -10 -6 0 -8 -4 -5 -10 3
-6 1 -10 -5 -10 -6 0 -8 -5 -5 -10 3 -5 1 -10 -5 -10 -6 0 -8 -4 -5 -10 3 -5
1 -10 -5 -10 -6 0 -8 -5 -5 -10 3 -5 1 -10 -5 -10 -6 0 -8 -4 -5 -10 3 -6 1
-10 -5 -10 -6 0 -8 -5 -5 -10 3 -6 1 -10 -5 -10 -6 0 -8 -5 -5 -10 3 -5 1 -10
-5 -10 -6 0 -8 -4 -5 -10 3 -6 1 -10 -5 -10 -6 0 -8 -5 -5 -10 3 -5 1 -10 -5
-10 -6 0 -8 -5 -5 -10 3 -6 1 -10 -5 -10 -6 0 -8 -5 -5 -10 3 -6 1 -10 -4 -10
-6 0 -11 -7 -11 -15 0 -8 -5 -15 -11 -15 -5 0 -7 -4 -4 -10 3 -5 1 -10 -5 -10
-6 0 -8 -4 -5 -10 3 -5 1 -10 -5 -10 -6 0 -8 -4 -5 -10 3 -6 1 -10 -5 -10 -6
0 -8 -4 -5 -10 3 -5 1 -10 -4 -10 -6 0 -11 -7 -11 -15 0 -8 -5 -15 -11 -15 -5
0 -7 -4 -4 -10 3 -5 1 -10 -5 -10 -6 0 -8 -4 -5 -10 3 -5 1 -10 -5 -10 -6 0
-9 -4 -6 -8 3 -5 -3 -18 -14 -29 -10 -12 -16 -24 -13 -27 4 -3 1 -6 -6 -6 -7
0 -9 -5 -6 -10 3 -6 -1 -13 -9 -16 -9 -3 -13 -10 -10 -15 3 -5 0 -9 -6 -9 -6
0 -8 -4 -5 -10 3 -5 1 -10 -4 -10 -6 0 -11 -7 -11 -15 0 -8 -5 -15 -11 -15 -5
0 -7 -5 -4 -10 3 -6 1 -10 -4 -10 -6 0 -11 -7 -11 -15 0 -8 -5 -15 -11 -15 -5
0 -7 -4 -4 -10 3 -5 1 -10 -4 -10 -6 0 -11 -7 -11 -15 0 -8 -5 -15 -11 -15 -5
0 -8 -4 -5 -9 3 -5 -1 -12 -10 -15 -8 -3 -12 -10 -9 -16 3 -5 1 -10 -5 -10 -6
0 -8 -5 -5 -10 3 -6 -1 -13 -9 -16 -9 -3 -14 -10 -11 -14 3 -4 -2 -11 -11 -14
-8 -3 -12 -10 -9 -16 3 -5 1 -10 -4 -10 -6 0 -11 -7 -11 -15 0 -8 -5 -15 -11
-15 -5 0 -7 -5 -4 -10 3 -6 -1 -13 -9 -16 -9 -3 -13 -10 -10 -15 3 -5 -2 -12
-10 -15 -9 -3 -13 -10 -10 -15 3 -5 -2 -12 -10 -15 -9 -3 -13 -10 -10 -15 3
-5 -2 -12 -10 -15 -9 -3 -13 -10 -10 -15 3 -5 -2 -12 -10 -15 -9 -3 -13 -10
-10 -15 3 -5 -2 -12 -10 -15 -9 -3 -13 -10 -10 -15 3 -5 -2 -12 -10 -15 -9 -3
-13 -10 -10 -15 3 -5 -2 -12 -10 -15 -9 -3 -16 -12 -16 -19 0 -7 -7 -16 -16
-19 -8 -3 -12 -10 -9 -16 3 -6 -1 -13 -9 -16 -9 -3 -13 -10 -10 -15 3 -5 -2
-12 -10 -15 -9 -3 -16 -13 -16 -20 0 -8 -7 -17 -15 -20 -8 -4 -13 -10 -10 -15
3 -4 -4 -13 -15 -19 -11 -6 -18 -15 -15 -20 3 -5 -4 -14 -15 -20 -11 -6 -18
-15 -15 -21 4 -5 -1 -12 -9 -15 -9 -3 -16 -13 -16 -20 0 -8 -7 -17 -15 -20 -8
-4 -15 -12 -15 -20 0 -7 -9 -18 -20 -24 -11 -6 -18 -15 -15 -20 3 -5 -4 -14
-15 -20 -11 -6 -18 -15 -15 -20 3 -5 -6 -17 -20 -26 -13 -9 -23 -20 -20 -24 3
-4 -7 -15 -20 -24 -14 -9 -23 -21 -20 -25 2 -5 -7 -16 -20 -25 -14 -9 -23 -21
-20 -26 3 -5 -6 -17 -20 -26 -14 -9 -25 -22 -25 -29 0 -7 -11 -20 -25 -29 -14
-9 -25 -23 -25 -31 0 -7 -14 -23 -30 -35 -17 -12 -28 -25 -25 -30 3 -4 -13
-23 -35 -40 -22 -17 -38 -35 -35 -40 3 -4 -15 -24 -40 -45 -25 -20 -43 -40
-40 -44 2 -5 -27 -36 -65 -71 -39 -34 -68 -65 -66 -69 6 -10 -328 -344 -336
-336 -3 3 -34 -26 -68 -64 -34 -39 -66 -68 -71 -66 -4 3 -24 -15 -44 -40 -21
-25 -41 -43 -45 -40 -5 3 -23 -13 -40 -35 -17 -22 -36 -38 -40 -35 -5 3 -18
-8 -30 -25 -12 -16 -28 -30 -35 -30 -8 0 -22 -11 -31 -25 -9 -14 -22 -25 -29
-25 -7 0 -20 -11 -29 -25 -9 -14 -21 -23 -26 -20 -5 3 -17 -6 -26 -20 -9 -13
-20 -22 -25 -20 -4 3 -16 -6 -25 -20 -9 -13 -20 -23 -24 -20 -4 3 -15 -7 -24
-20 -9 -14 -21 -23 -26 -20 -5 3 -14 -4 -20 -15 -6 -11 -15 -18 -20 -15 -5 3
-14 -4 -20 -15 -6 -11 -15 -18 -20 -15 -5 3 -14 -4 -20 -15 -6 -11 -15 -18
-20 -15 -5 3 -14 -4 -20 -15 -6 -11 -15 -18 -20 -15 -5 3 -14 -4 -20 -15 -6
-11 -15 -18 -20 -15 -5 3 -14 -4 -20 -15 -6 -11 -15 -18 -21 -15 -5 4 -12 -1
-15 -9 -3 -9 -10 -14 -15 -11 -4 3 -13 -4 -19 -15 -6 -11 -15 -18 -19 -15 -5
3 -12 -2 -15 -11 -3 -8 -10 -12 -16 -9 -6 3 -13 -1 -16 -9 -3 -9 -12 -16 -19
-16 -7 0 -16 -7 -19 -16 -3 -8 -10 -13 -15 -10 -5 3 -12 -1 -15 -10 -3 -8 -10
-12 -16 -9 -6 3 -13 -1 -16 -9 -3 -9 -10 -14 -14 -11 -4 3 -11 -2 -14 -11 -3
-8 -10 -13 -15 -10 -5 3 -12 -1 -15 -10 -3 -8 -10 -13 -15 -10 -5 3 -12 -1
-15 -10 -3 -8 -10 -13 -15 -10 -5 3 -12 -1 -15 -10 -3 -8 -10 -12 -16 -9 -5 3
-10 1 -10 -4 0 -6 -7 -11 -15 -11 -8 0 -15 -4 -15 -10 0 -5 -7 -10 -15 -10 -8
0 -15 -5 -15 -11 0 -5 -5 -7 -10 -4 -6 3 -13 -1 -16 -9 -3 -9 -10 -13 -15 -10
-5 3 -9 0 -9 -5 0 -6 -7 -11 -15 -11 -8 0 -15 -5 -15 -11 0 -5 -4 -8 -9 -5 -5
3 -12 -1 -15 -10 -3 -8 -10 -12 -16 -9 -5 3 -10 1 -10 -4 0 -6 -7 -11 -15 -11
-8 0 -15 -5 -15 -11 0 -5 -4 -7 -10 -4 -5 3 -10 1 -10 -4 0 -6 -7 -11 -15 -11
-8 0 -15 -5 -15 -11 0 -5 -4 -7 -10 -4 -5 3 -10 1 -10 -4 0 -6 -7 -11 -15 -11
-8 0 -15 -5 -15 -11 0 -5 -4 -7 -10 -4 -5 3 -10 1 -10 -5 0 -6 -4 -8 -10 -5
-5 3 -10 1 -10 -4 0 -6 -7 -11 -15 -11 -8 0 -15 -5 -15 -11 0 -5 -4 -7 -10 -4
-5 3 -10 1 -10 -5 0 -6 -4 -9 -8 -6 -5 3 -18 -3 -29 -14 -12 -10 -24 -16 -27
-13 -3 4 -6 0 -6 -7 0 -7 -3 -11 -6 -7 -3 3 -15 -3 -27 -13 -11 -11 -24 -17
-29 -14 -4 3 -8 0 -8 -6 0 -6 -4 -8 -10 -5 -5 3 -10 1 -10 -5 0 -6 -4 -8 -10
-5 -5 3 -10 1 -10 -5 0 -6 -4 -8 -10 -5 -5 3 -10 2 -10 -4 0 -6 -11 -13 -25
-17 -14 -3 -25 -10 -25 -16 0 -5 -4 -6 -10 -3 -5 3 -10 1 -10 -5 0 -6 -4 -8
-10 -5 -5 3 -10 1 -10 -5 0 -6 -4 -8 -10 -5 -5 3 -10 1 -10 -5 0 -6 -4 -8 -10
-5 -5 3 -10 1 -10 -5 0 -6 -4 -8 -10 -5 -5 3 -10 1 -10 -5 0 -6 -4 -8 -10 -5
-5 3 -10 1 -10 -5 0 -6 -4 -8 -10 -5 -5 3 -10 1 -10 -5 0 -6 -4 -8 -10 -5 -5
3 -10 1 -10 -5 0 -6 -4 -8 -10 -5 -5 3 -10 1 -10 -5 0 -6 -4 -8 -10 -5 -5 3
-10 1 -10 -5 0 -6 -4 -8 -10 -5 -5 3 -10 1 -10 -5 0 -6 -4 -8 -10 -5 -5 3 -10
1 -10 -5 0 -6 -4 -8 -10 -5 -5 3 -10 1 -10 -5 0 -6 -4 -8 -10 -5 -5 3 -10 1
-10 -5 0 -6 -4 -8 -10 -5 -5 3 -10 1 -10 -5 0 -6 -4 -8 -10 -5 -5 3 -10 1 -10
-4 0 -6 -3 -10 -7 -9 -5 1 -22 -5 -39 -15 -17 -9 -34 -13 -38 -10 -3 4 -6 1
-6 -6 0 -7 -4 -9 -10 -6 -5 3 -10 1 -10 -5 0 -6 -4 -8 -10 -5 -5 3 -10 1 -10
-5 0 -6 -4 -9 -9 -6 -5 4 -11 1 -13 -4 -2 -6 -13 -12 -26 -13 -12 0 -22 -5
-22 -10 0 -4 -4 -5 -10 -2 -5 3 -10 1 -10 -5 0 -6 -4 -9 -9 -6 -5 4 -11 1 -13
-4 -2 -6 -13 -12 -26 -13 -12 0 -22 -5 -22 -10 0 -4 -4 -5 -10 -2 -5 3 -10 1
-10 -5 0 -6 -4 -9 -9 -5 -5 3 -12 1 -16 -5 -4 -6 -11 -8 -16 -5 -5 4 -9 2 -9
-2 0 -5 -10 -10 -22 -10 -13 -1 -24 -7 -26 -13 -2 -5 -8 -8 -13 -4 -5 3 -9 0
-9 -6 0 -6 -4 -9 -9 -5 -5 3 -12 1 -16 -5 -4 -6 -11 -8 -16 -5 -5 4 -9 1 -9
-5 0 -6 -4 -9 -9 -5 -5 3 -12 1 -16 -5 -4 -6 -11 -8 -16 -5 -5 4 -9 1 -9 -5 0
-6 -4 -9 -9 -5 -5 3 -12 1 -16 -5 -4 -6 -11 -8 -16 -5 -5 4 -9 1 -9 -5 0 -7
-7 -10 -15 -6 -8 3 -15 1 -15 -5 0 -6 -4 -8 -9 -4 -5 3 -12 1 -16 -5 -4 -6
-11 -8 -16 -5 -5 4 -9 1 -9 -5 0 -6 -4 -9 -9 -5 -5 3 -12 1 -16 -5 -4 -6 -10
-8 -15 -5 -5 3 -11 1 -15 -5 -4 -6 -11 -8 -16 -5 -5 4 -9 1 -9 -5 0 -7 -7 -10
-15 -6 -8 3 -15 1 -15 -5 0 -6 -4 -8 -9 -4 -5 3 -12 1 -16 -5 -4 -6 -10 -8
-15 -5 -5 3 -11 1 -15 -5 -4 -6 -10 -8 -15 -5 -5 3 -11 1 -15 -5 -4 -6 -11 -8
-16 -5 -5 4 -9 1 -9 -5 0 -7 -7 -10 -15 -6 -8 3 -15 1 -15 -5 0 -6 -7 -9 -15
-5 -8 3 -15 1 -15 -5 0 -6 -7 -9 -15 -5 -8 3 -15 1 -15 -5 0 -6 -7 -9 -15 -5
-8 3 -15 1 -15 -5 0 -6 -7 -9 -15 -5 -8 3 -15 1 -15 -5 0 -6 -7 -9 -15 -5 -8
3 -15 1 -15 -5 0 -6 -7 -9 -15 -6 -8 4 -17 2 -20 -4 -4 -5 -10 -7 -15 -4 -5 3
-11 1 -15 -5 -4 -6 -10 -8 -15 -5 -5 3 -11 1 -15 -4 -3 -6 -12 -8 -20 -4 -8 3
-15 0 -15 -7 0 -7 -7 -10 -15 -7 -8 4 -17 2 -20 -4 -4 -5 -10 -7 -15 -4 -5 3
-11 1 -15 -4 -3 -6 -12 -8 -20 -4 -8 3 -15 0 -15 -7 0 -7 -7 -10 -15 -7 -8 4
-17 2 -20 -3 -3 -5 -12 -7 -20 -3 -8 3 -15 0 -15 -7 0 -7 -7 -10 -15 -7 -8 4
-17 2 -21 -4 -3 -6 -12 -8 -20 -5 -7 3 -16 1 -19 -4 -3 -5 -12 -7 -20 -3 -8 3
-15 0 -15 -7 0 -7 -7 -10 -15 -7 -8 4 -17 2 -21 -4 -3 -6 -12 -8 -20 -5 -7 3
-16 1 -20 -5 -3 -6 -12 -8 -20 -5 -7 3 -16 1 -20 -5 -3 -6 -12 -8 -20 -5 -7 3
-16 1 -20 -5 -3 -6 -12 -8 -20 -5 -7 3 -16 1 -20 -5 -3 -6 -12 -8 -20 -5 -7 3
-16 1 -20 -5 -3 -5 -14 -7 -24 -4 -10 3 -21 1 -25 -5 -3 -6 -11 -8 -16 -4 -5
3 -16 1 -23 -5 -7 -6 -21 -9 -30 -5 -9 3 -16 1 -16 -6 0 -7 -8 -9 -19 -5 -11
3 -22 1 -26 -5 -4 -6 -15 -8 -25 -5 -10 3 -21 1 -24 -4 -4 -6 -13 -8 -21 -4
-9 3 -22 0 -30 -7 -8 -6 -19 -9 -25 -5 -6 4 -17 1 -25 -5 -8 -6 -19 -9 -25 -5
-6 4 -17 1 -25 -5 -8 -6 -19 -9 -25 -5 -6 4 -17 2 -24 -4 -7 -6 -21 -9 -30 -5
-9 3 -23 1 -31 -6 -8 -6 -23 -9 -34 -5 -10 3 -22 1 -26 -5 -4 -6 -16 -8 -26
-5 -11 4 -26 1 -34 -5 -8 -7 -22 -9 -31 -6 -9 3 -21 3 -27 -1 -7 -4 -23 -9
-37 -10 -14 -1 -43 -5 -65 -8 -61 -9 -176 -23 -245 -30 -25 -3 -65 -8 -90 -10
-262 -30 -413 -36 -885 -37 -451 0 -529 3 -895 37 -30 3 -72 5 -92 5 -20 0
-40 4 -43 10 -4 7 -19 9 -36 5 -16 -4 -34 -3 -41 2 -7 4 -26 9 -43 10 -16 1
-48 5 -70 8 -22 3 -51 7 -65 9 -14 1 -29 4 -35 6 -5 2 -22 5 -37 7 -16 1 -40
5 -55 6 -16 2 -30 5 -33 7 -5 2 -35 7 -82 13 -13 1 -29 6 -35 10 -7 5 -18 5
-23 2 -6 -4 -17 -1 -25 5 -8 6 -23 9 -34 5 -10 -3 -22 -1 -25 4 -4 6 -13 8
-21 4 -9 -3 -21 0 -29 6 -7 6 -16 8 -19 4 -4 -3 -13 0 -21 6 -8 7 -20 10 -26
6 -6 -4 -17 -2 -24 4 -7 6 -20 9 -29 5 -8 -3 -18 0 -22 5 -3 6 -11 9 -16 5 -5
-3 -16 -1 -23 5 -7 6 -20 9 -29 5 -8 -3 -18 -1 -21 5 -4 6 -13 8 -20 5 -8 -3
-17 0 -21 5 -3 6 -11 9 -16 5 -5 -3 -16 0 -24 6 -8 6 -19 9 -24 6 -5 -4 -13
-1 -16 5 -4 5 -13 8 -21 5 -7 -3 -16 -1 -20 5 -3 6 -12 8 -20 5 -7 -3 -16 -1
-19 4 -3 5 -12 7 -19 4 -8 -3 -17 -1 -20 5 -4 6 -13 8 -20 5 -8 -3 -17 -1 -20
5 -4 6 -13 8 -21 4 -8 -3 -15 0 -15 7 0 7 -7 10 -15 7 -8 -4 -17 -2 -20 4 -4
5 -11 7 -16 3 -5 -3 -16 0 -24 6 -8 7 -15 9 -15 5 0 -4 -6 -2 -13 4 -8 6 -17
8 -20 4 -4 -3 -13 0 -22 7 -8 7 -15 9 -15 4 0 -4 -5 -3 -11 3 -6 6 -18 9 -25
6 -8 -3 -14 0 -14 7 0 7 -7 10 -15 7 -8 -4 -17 -2 -20 4 -4 5 -10 7 -15 4 -5
-3 -11 -1 -15 4 -3 6 -12 8 -20 4 -8 -3 -15 0 -15 6 0 6 -7 8 -15 5 -8 -4 -15
-1 -15 6 0 7 -7 10 -15 6 -8 -3 -15 -1 -15 5 0 6 -7 9 -15 5 -8 -3 -15 -1 -15
5 0 6 -7 9 -15 5 -8 -3 -15 -1 -15 5 0 6 -7 9 -15 6 -8 -4 -17 -2 -20 4 -4 5
-11 7 -16 4 -5 -4 -9 -1 -9 5 0 7 -7 10 -15 6 -8 -3 -15 -1 -15 5 0 6 -7 9
-15 5 -8 -3 -15 -1 -15 5 0 6 -7 9 -15 5 -8 -3 -15 -1 -15 4 0 5 -7 7 -15 4
-8 -4 -15 -1 -15 6 0 6 -4 9 -9 5 -5 -3 -12 -1 -16 5 -4 6 -10 8 -15 5 -5 -3
-11 -1 -15 5 -4 6 -11 8 -16 5 -5 -4 -9 -2 -9 4 0 6 -7 8 -15 5 -8 -4 -15 -1
-15 6 0 6 -4 9 -9 5 -5 -3 -12 -1 -16 5 -4 6 -11 8 -16 5 -5 -4 -9 -2 -9 4 0
6 -7 8 -15 5 -8 -4 -15 -1 -15 6 0 6 -4 9 -9 5 -5 -3 -12 -1 -16 5 -4 6 -11 8
-16 5 -5 -4 -9 -1 -9 5 0 6 -4 9 -9 5 -5 -3 -12 -1 -16 5 -4 6 -11 8 -16 5 -5
-4 -9 -1 -9 5 0 6 -4 9 -9 5 -5 -3 -12 -1 -16 5 -4 6 -11 8 -16 5 -5 -4 -9 -1
-9 5 0 6 -4 9 -9 5 -5 -3 -12 -1 -16 5 -4 6 -11 8 -16 5 -5 -4 -9 -1 -9 5 0 6
-4 9 -9 5 -5 -3 -12 -1 -16 5 -4 6 -11 8 -16 5 -5 -4 -9 -1 -9 5 0 6 -4 8 -10
5 -5 -3 -10 -2 -10 4 0 6 -7 8 -15 5 -8 -4 -15 -1 -15 6 0 6 -4 8 -10 5 -5 -3
-10 -1 -10 6 0 7 -3 9 -6 6 -4 -3 -16 -1 -28 5 -11 7 -24 11 -28 10 -5 -1 -8
3 -8 9 0 5 -4 7 -10 4 -5 -3 -10 -2 -10 2 0 5 -10 10 -22 10 -13 1 -24 7 -26
13 -2 5 -8 8 -13 4 -5 -3 -9 0 -9 6 0 6 -4 8 -10 5 -5 -3 -10 -1 -10 5 0 6 -4
8 -10 5 -5 -3 -10 -1 -10 4 0 6 -3 10 -7 9 -5 -1 -18 3 -29 10 -12 6 -24 8
-28 5 -3 -3 -6 -1 -6 6 0 7 -4 9 -10 6 -5 -3 -10 -1 -10 5 0 6 -4 8 -10 5 -5
-3 -10 -1 -10 5 0 6 -4 8 -10 5 -5 -3 -10 -1 -10 5 0 6 -4 8 -10 5 -5 -3 -10
-1 -10 5 0 6 -4 8 -10 5 -5 -3 -10 -1 -10 5 0 6 -5 8 -10 5 -5 -3 -10 -1 -10
5 0 6 -5 8 -10 5 -5 -3 -10 -1 -10 5 0 6 -4 8 -10 5 -5 -3 -10 -1 -10 5 0 6
-4 8 -10 5 -5 -3 -10 -1 -10 5 0 6 -5 8 -10 5 -5 -3 -10 -1 -10 5 0 6 -4 8
-10 5 -5 -3 -10 -1 -10 5 0 6 -4 8 -10 5 -5 -3 -10 -1 -10 5 0 6 -4 8 -10 5
-5 -3 -10 -1 -10 5 0 6 -4 8 -10 5 -5 -3 -10 -1 -10 5 0 6 -4 8 -10 5 -5 -3
-10 -1 -10 5 0 6 -4 8 -10 5 -5 -3 -10 -1 -10 5 0 6 -4 8 -10 5 -5 -3 -10 -1
-10 5 0 6 -4 8 -10 5 -5 -3 -10 -1 -10 5 0 6 -4 8 -10 5 -5 -3 -10 -1 -10 5 0
6 -4 9 -8 6 -5 -3 -18 3 -29 14 -12 10 -24 16 -27 13 -3 -4 -6 -1 -6 6 0 7 -5
9 -10 6 -5 -3 -10 -1 -10 5 0 6 -4 8 -10 5 -5 -3 -10 -1 -10 6 0 7 -3 10 -6 6
-3 -3 -15 3 -27 13 -11 11 -24 17 -29 14 -4 -3 -8 0 -8 6 0 6 -4 8 -10 5 -5
-3 -10 -1 -10 5 0 6 -5 8 -10 5 -6 -3 -13 1 -16 9 -3 9 -10 13 -15 10 -5 -3
-9 0 -9 6 0 6 -4 8 -10 5 -5 -3 -10 -1 -10 4 0 6 -7 11 -15 11 -8 0 -15 5 -15
11 0 5 -4 7 -10 4 -5 -3 -10 -1 -10 5 0 6 -5 8 -10 5 -6 -3 -13 1 -16 9 -3 9
-10 13 -15 10 -5 -3 -9 0 -9 6 0 6 -5 8 -10 5 -6 -3 -13 1 -16 9 -3 9 -10 13
-15 10 -5 -3 -9 0 -9 6 0 6 -5 8 -10 5 -6 -3 -13 1 -16 9 -3 9 -10 13 -15 10
-5 -3 -9 0 -9 6 0 6 -5 8 -10 5 -6 -3 -13 1 -16 9 -3 9 -10 14 -14 11 -4 -3
-11 2 -14 11 -3 8 -10 12 -16 9 -5 -3 -10 -1 -10 5 0 6 -5 8 -10 5 -6 -3 -13
1 -16 9 -3 9 -10 13 -15 10 -5 -3 -12 2 -15 10 -3 9 -10 14 -14 11 -4 -3 -11
2 -14 11 -3 8 -10 12 -16 9 -5 -3 -10 -1 -10 4 0 6 -7 11 -15 11 -8 0 -15 5
-15 10 0 6 -7 10 -15 10 -8 0 -15 5 -15 10 0 6 -7 10 -15 10 -8 0 -15 5 -15
10 0 6 -7 10 -15 10 -8 0 -15 5 -15 10 0 6 -6 10 -14 10 -8 0 -17 7 -20 16 -3
8 -10 13 -15 10 -5 -3 -12 1 -15 10 -3 8 -10 12 -16 9 -6 -3 -13 1 -16 9 -3 9
-10 14 -15 11 -4 -3 -13 4 -19 15 -6 11 -15 18 -19 15 -5 -3 -12 2 -15 11 -3
8 -10 12 -16 9 -6 -3 -13 1 -16 9 -3 9 -13 16 -20 16 -8 0 -17 7 -20 15 -4 8
-10 13 -15 10 -4 -3 -13 4 -19 15 -6 11 -15 18 -20 15 -5 -3 -14 4 -20 15 -6
11 -15 18 -20 15 -5 -3 -14 4 -20 15 -6 11 -15 18 -20 15 -5 -3 -14 4 -20 15
-6 11 -15 18 -20 15 -5 -3 -14 4 -20 15 -6 11 -17 20 -25 20 -8 0 -19 9 -25
20 -6 11 -15 18 -19 15 -5 -2 -16 7 -25 20 -9 14 -21 23 -25 20 -5 -2 -16 7
-25 20 -9 14 -21 23 -26 20 -5 -3 -17 6 -26 20 -9 13 -20 23 -24 20 -5 -3 -18
8 -30 25 -12 17 -25 28 -30 25 -4 -3 -20 11 -35 30 -14 20 -30 33 -35 30 -4
-3 -20 11 -35 30 -14 20 -30 33 -35 30 -4 -3 -24 15 -45 40 -20 25 -40 43 -44
40 -5 -2 -32 22 -60 55 -29 33 -55 59 -59 58 -9 -3 -422 410 -422 421 0 5 -25
31 -55 56 -30 26 -55 53 -55 60 0 7 -18 28 -40 45 -22 17 -38 35 -35 40 3 5
-13 23 -35 40 -22 17 -38 36 -35 40 3 5 -8 18 -25 30 -17 12 -28 25 -25 30 3
5 -8 18 -25 30 -17 12 -28 25 -25 30 3 5 -6 17 -20 26 -14 9 -25 22 -25 29 0
7 -11 20 -25 29 -14 9 -23 21 -20 26 3 5 -4 14 -15 20 -11 6 -20 17 -20 25 0
8 -9 19 -20 25 -11 6 -18 15 -15 20 3 5 -4 14 -15 20 -11 6 -18 15 -15 20 3 5
-4 14 -15 20 -11 6 -20 17 -20 26 0 8 -7 17 -15 20 -8 4 -15 12 -15 19 0 7 -7
16 -16 19 -8 3 -13 10 -9 15 3 6 -4 15 -15 21 -11 6 -18 15 -15 20 3 5 -4 14
-15 20 -11 6 -18 15 -15 21 4 5 -1 12 -9 15 -9 3 -14 10 -11 15 3 4 -4 13 -15
19 -11 6 -18 15 -15 19 3 5 -2 12 -11 15 -8 3 -12 10 -9 16 3 6 -1 13 -9 16
-9 3 -16 12 -16 20 0 8 -4 14 -10 14 -5 0 -10 6 -10 14 0 8 -7 17 -16 20 -8 3
-13 10 -10 15 3 5 -1 12 -10 15 -8 3 -13 10 -10 15 3 5 -1 12 -10 15 -8 3 -13
10 -10 15 3 5 -1 12 -10 15 -8 3 -13 10 -10 15 3 5 -1 12 -10 15 -8 3 -13 10
-10 15 3 5 -1 12 -10 15 -8 3 -12 10 -9 16 3 5 1 10 -4 10 -6 0 -11 7 -11 15
0 8 -5 15 -11 15 -5 0 -7 5 -4 10 3 6 -1 13 -9 16 -9 3 -14 10 -11 14 3 4 -2
11 -11 14 -8 3 -12 10 -9 16 3 5 1 10 -4 10 -6 0 -11 7 -11 15 0 8 -5 15 -11
15 -5 0 -7 5 -4 10 3 6 1 10 -4 10 -6 0 -11 7 -11 15 0 8 -5 15 -11 15 -5 0
-8 4 -5 9 3 5 -1 12 -10 15 -8 3 -12 10 -9 16 3 5 1 10 -5 10 -6 0 -9 4 -6 9
3 5 -1 12 -10 15 -8 3 -12 10 -9 16 3 5 1 10 -5 10 -6 0 -8 5 -5 10 3 6 1 10
-4 10 -6 0 -11 7 -11 15 0 8 -5 15 -11 15 -5 0 -7 5 -4 10 3 6 1 10 -5 10 -6
0 -8 5 -5 10 3 6 -1 13 -9 16 -9 3 -13 10 -10 15 3 5 0 9 -6 9 -6 0 -8 5 -5
10 3 6 1 10 -5 10 -6 0 -8 5 -5 10 3 6 1 10 -4 10 -6 0 -11 7 -11 15 0 8 -5
15 -11 15 -5 0 -7 5 -4 10 3 5 1 10 -5 10 -6 0 -8 5 -5 10 3 6 1 10 -5 10 -6
0 -8 5 -5 10 3 6 1 10 -4 10 -6 0 -11 7 -11 15 0 8 -5 15 -11 15 -5 0 -7 5 -4
10 3 6 1 10 -5 10 -6 0 -8 5 -5 10 3 6 1 10 -5 10 -6 0 -8 5 -5 10 3 6 1 10
-5 10 -6 0 -8 5 -5 10 3 6 1 10 -5 10 -6 0 -8 5 -5 10 3 6 2 10 -3 10 -9 0
-47 70 -44 83 1 4 -3 7 -9 7 -5 0 -7 4 -4 10 3 6 1 10 -5 10 -6 0 -8 5 -5 10
3 6 1 10 -5 10 -6 0 -8 5 -5 10 3 6 1 10 -5 10 -6 0 -8 5 -5 10 3 5 1 10 -5
10 -6 0 -8 4 -5 10 3 6 1 10 -5 10 -6 0 -8 5 -5 10 3 6 1 10 -5 10 -6 0 -8 5
-5 10 3 5 2 10 -2 10 -9 0 -39 69 -35 83 1 4 -3 7 -9 7 -5 0 -7 5 -4 10 3 6 1
10 -5 10 -6 0 -8 5 -5 10 3 6 1 10 -5 10 -6 0 -8 5 -5 10 3 6 1 10 -5 10 -6 0
-8 5 -5 10 3 6 1 10 -4 10 -6 0 -10 3 -9 8 1 4 -3 17 -10 28 -6 12 -8 24 -5
28 3 3 1 6 -6 6 -7 0 -9 5 -6 10 3 6 1 10 -5 10 -6 0 -9 4 -6 9 4 5 1 11 -4
13 -6 2 -12 13 -13 26 0 12 -5 22 -10 22 -4 0 -5 5 -2 10 3 6 1 10 -5 10 -6 0
-9 4 -5 9 3 5 1 12 -5 16 -6 4 -8 11 -5 16 4 5 1 9 -5 9 -6 0 -8 5 -5 10 3 6
1 10 -5 10 -6 0 -9 4 -5 9 3 5 1 12 -5 16 -6 4 -8 11 -5 16 4 5 1 9 -5 9 -6 0
-9 4 -5 9 3 5 1 12 -5 16 -6 4 -8 11 -5 16 4 5 1 9 -5 9 -6 0 -8 5 -5 10 3 6
1 10 -5 10 -7 0 -10 7 -6 15 3 8 1 15 -5 15 -6 0 -7 5 -4 10 3 6 1 10 -5 10
-7 0 -10 7 -6 15 3 8 1 15 -5 15 -6 0 -8 4 -4 9 3 5 1 12 -5 16 -6 4 -8 11 -5
16 4 5 1 9 -5 9 -6 0 -9 4 -5 9 3 5 1 12 -5 16 -6 4 -8 11 -5 16 4 5 2 9 -4 9
-6 0 -8 7 -5 15 4 8 1 15 -6 15 -6 0 -9 4 -5 9 3 5 1 12 -5 16 -6 4 -8 11 -5
16 4 5 1 9 -5 9 -7 0 -10 7 -6 15 3 8 1 15 -5 15 -6 0 -8 4 -4 9 3 5 1 12 -5
16 -6 4 -8 10 -5 15 3 5 1 11 -5 15 -6 4 -8 10 -5 15 3 5 1 11 -5 15 -6 4 -8
11 -5 16 4 5 1 9 -5 9 -7 0 -10 7 -6 15 3 8 1 15 -5 15 -6 0 -9 7 -5 15 3 8 1
15 -5 15 -6 0 -9 7 -5 15 3 8 1 15 -4 15 -5 0 -7 7 -4 15 4 8 1 15 -6 15 -7 0
-10 7 -6 15 3 8 1 15 -5 15 -6 0 -9 7 -5 15 3 8 1 15 -5 15 -6 0 -9 7 -6 15 4
8 2 17 -4 20 -5 4 -7 10 -4 15 3 5 1 11 -5 15 -6 4 -8 10 -5 15 3 5 1 11 -4
15 -6 3 -8 12 -4 20 3 8 0 15 -7 15 -7 0 -10 7 -6 15 3 8 1 15 -5 15 -6 0 -9
7 -6 15 4 8 2 17 -3 20 -5 3 -7 12 -3 20 3 8 0 15 -7 15 -7 0 -10 7 -7 15 4 8
2 17 -3 20 -5 3 -7 12 -3 20 3 8 0 15 -7 15 -7 0 -10 7 -7 15 4 8 2 17 -3 20
-5 3 -7 12 -3 20 3 8 0 15 -7 15 -7 0 -10 7 -7 15 4 8 2 17 -4 21 -6 3 -8 12
-5 20 3 7 1 16 -4 19 -5 3 -7 12 -4 19 3 8 1 17 -5 20 -6 4 -8 13 -5 20 3 8 1
17 -5 20 -6 4 -8 13 -5 20 3 8 1 17 -5 20 -6 4 -8 13 -5 20 3 8 0 17 -5 21 -6
3 -9 11 -5 16 3 5 0 16 -6 24 -6 8 -9 19 -6 24 4 5 2 13 -4 16 -6 4 -8 15 -5
26 4 11 2 19 -5 19 -7 0 -9 7 -6 16 4 9 1 23 -5 30 -6 7 -8 18 -5 23 4 5 1 13
-5 16 -5 4 -8 14 -5 22 4 9 1 22 -5 29 -6 7 -8 18 -4 24 4 6 1 17 -5 25 -6 8
-9 19 -5 25 4 6 1 17 -5 25 -6 8 -9 19 -5 25 4 6 1 17 -5 25 -6 8 -9 19 -5 25
4 6 1 17 -5 25 -7 8 -9 22 -6 31 3 9 3 21 -1 27 -5 7 -9 21 -10 32 -1 11 -5
36 -8 55 -3 19 -6 46 -6 60 -1 14 -5 31 -11 37 -6 7 -7 20 -4 29 4 9 1 23 -5
30 -6 8 -8 25 -5 38 3 14 2 28 -4 31 -5 3 -10 20 -10 38 1 18 -2 50 -5 72 -30
224 -47 420 -61 715 -9 183 -9 605 0 770 15 269 19 339 31 450 10 97 15 147
20 190 3 25 5 56 5 70 1 14 4 32 7 40 7 14 12 56 14 110 0 14 5 30 10 37 6 6
7 22 4 36 -4 14 -2 28 4 32 6 3 8 17 5 30 -3 12 -1 26 5 30 6 3 8 17 5 30 -3
12 -1 26 5 30 6 3 8 17 5 30 -3 12 -1 26 6 30 6 4 8 15 5 25 -3 10 -1 21 5 25
6 4 8 15 5 25 -3 10 -1 21 5 25 5 3 7 17 4 30 -3 12 -1 26 6 30 6 4 8 15 5 25
-3 10 -1 21 5 25 6 3 8 11 4 16 -3 5 0 16 6 24 6 8 9 19 5 25 -4 6 -2 17 4 24
6 7 9 20 5 29 -3 8 0 18 5 22 6 3 9 11 5 16 -3 5 0 16 6 24 6 8 9 19 6 24 -4
5 -2 13 4 16 6 4 8 15 5 25 -3 10 -1 21 4 24 6 4 8 13 5 20 -3 8 -1 17 5 20 6
4 8 13 5 20 -3 8 -1 17 5 20 6 4 8 13 5 20 -3 8 -1 17 5 20 6 4 8 13 5 20 -3
8 -1 17 5 20 6 4 8 13 4 21 -3 8 0 15 7 15 7 0 10 7 7 15 -4 8 -2 17 4 21 6 3
8 12 5 20 -3 7 -1 16 4 19 5 3 7 12 3 20 -3 8 0 15 7 15 7 0 10 7 7 15 -4 8
-2 17 3 20 5 3 7 12 3 20 -3 8 0 15 7 15 7 0 10 7 7 15 -4 8 -2 17 3 20 5 3 7
12 3 20 -3 8 0 15 7 15 7 0 10 7 7 15 -4 8 -2 17 4 20 5 4 7 10 4 15 -3 5 -1
11 4 15 6 3 8 12 4 20 -3 8 0 15 7 15 7 0 10 7 6 15 -3 8 -1 15 5 15 6 0 9 6
6 14 -3 8 -3 17 1 21 4 4 8 11 8 16 1 5 3 11 4 14 1 3 4 10 5 15 1 6 4 12 5
15 1 3 4 10 5 15 1 6 4 12 5 15 1 3 4 10 5 15 1 6 4 12 5 15 1 3 4 10 5 15 1
6 4 12 5 15 1 3 4 10 5 15 1 6 4 12 5 15 1 3 4 10 5 15 1 6 4 13 5 18 1 4 2
10 1 15 0 4 4 7 10 7 6 0 9 7 5 15 -3 8 -1 15 4 15 5 0 7 7 4 15 -4 8 -1 15 6
15 6 0 9 4 5 9 -3 5 -1 12 5 16 6 4 8 11 5 16 -4 5 -1 9 5 9 7 0 10 7 6 15 -3
8 -1 15 5 15 6 0 8 4 4 9 -3 5 -1 12 5 16 6 4 8 10 5 15 -3 5 -1 11 5 15 6 4
8 11 5 16 -4 5 -1 9 5 9 6 0 9 4 5 9 -3 5 -1 12 5 16 6 4 8 11 5 16 -4 5 -1 9
5 9 6 0 9 4 5 9 -3 5 -1 12 5 16 6 4 8 11 5 16 -4 5 -2 9 4 9 6 0 8 7 5 15 -4
8 -1 15 6 15 6 0 8 5 5 10 -3 6 -1 10 5 10 6 0 9 4 5 9 -3 5 -1 12 5 16 6 4 8
11 5 16 -4 5 -1 9 5 9 6 0 9 4 5 9 -3 5 -1 12 5 16 6 4 8 11 5 16 -4 5 -1 9 5
9 6 0 8 5 5 10 -3 6 -1 10 5 10 6 0 9 4 5 9 -3 5 -1 12 5 16 6 4 8 11 5 16 -4
5 -1 9 5 9 6 0 8 5 5 10 -3 6 -1 10 5 10 6 0 9 4 5 9 -3 5 -1 12 5 16 6 4 8
11 5 16 -4 5 -1 9 5 9 6 0 8 5 5 10 -3 6 -1 10 6 10 7 0 9 3 6 6 -3 4 -1 16 5
28 7 11 11 24 10 29 -1 4 3 7 9 7 5 0 7 5 4 10 -3 6 -1 10 5 10 6 0 8 5 5 10
-3 6 -1 10 6 10 7 0 9 3 6 6 -3 4 -1 16 5 28 7 11 11 24 10 29 -1 4 3 7 9 7 5
0 7 5 4 10 -3 6 -1 10 5 10 6 0 8 5 5 10 -3 6 -1 10 5 10 6 0 8 5 5 10 -3 6
-1 10 5 10 6 0 8 5 5 10 -3 6 -1 10 5 10 6 0 8 5 5 10 -3 6 -1 10 5 10 6 0 8
5 5 10 -3 6 -1 10 5 10 6 0 8 5 5 10 -3 6 -1 10 5 10 6 0 8 5 5 10 -3 6 -1 10
5 10 6 0 8 5 5 10 -3 6 -1 10 5 10 6 0 8 5 5 10 -3 6 -1 10 5 10 6 0 8 5 5 10
-3 6 -1 10 5 10 6 0 8 5 5 10 -3 6 -1 10 5 10 6 0 8 5 5 10 -3 6 -1 10 5 10 6
0 8 5 5 10 -3 6 -1 10 5 10 6 0 8 5 5 10 -3 6 -1 10 5 10 6 0 8 5 5 10 -3 6
-1 10 5 10 6 0 8 5 5 10 -3 6 -1 10 5 10 6 0 8 5 5 10 -3 6 -1 10 4 10 6 0 11
6 11 14 0 7 7 19 15 26 8 7 12 16 9 21 -3 5 0 9 6 9 6 0 8 5 5 10 -3 6 -1 10
5 10 6 0 8 5 5 10 -3 6 -1 10 5 10 6 0 8 5 5 10 -3 6 -1 10 4 10 6 0 11 7 11
15 0 8 5 15 11 15 5 0 7 5 4 10 -3 6 -1 10 5 10 6 0 8 5 5 10 -3 6 -1 10 5 10
6 0 8 5 5 10 -3 6 1 13 9 16 9 3 13 10 10 15 -3 5 0 9 6 9 6 0 8 5 5 10 -3 6
-1 10 5 10 6 0 8 5 5 10 -3 6 1 13 9 16 9 3 13 10 10 15 -3 5 0 9 6 9 6 0 8 5
5 10 -3 6 -1 10 4 10 6 0 11 7 11 15 0 8 5 15 11 15 5 0 7 5 4 10 -3 6 -1 10
4 10 6 0 11 7 11 15 0 8 5 15 11 15 5 0 7 5 4 10 -3 6 -1 10 4 10 6 0 11 7 11
15 0 8 5 15 11 15 5 0 7 5 4 10 -3 6 1 13 9 16 9 3 13 10 10 15 -3 5 0 9 5 9
6 0 11 7 11 15 0 8 5 15 11 15 5 0 7 5 4 10 -3 6 1 13 9 16 9 3 14 10 11 14
-3 4 2 11 11 14 8 3 12 10 9 16 -3 5 -1 10 4 10 6 0 11 7 11 15 0 8 5 15 11
15 5 0 7 5 4 10 -3 6 1 13 9 16 9 3 13 10 10 15 -3 5 2 12 10 15 9 3 13 10 10
15 -3 5 2 12 10 15 9 3 13 10 10 15 -3 5 2 12 10 15 9 3 13 10 10 15 -3 5 2
12 10 15 9 3 13 10 10 15 -3 5 2 12 10 15 9 3 16 12 16 19 0 7 7 16 16 19 8 3
12 10 9 16 -3 6 1 13 9 16 9 3 13 10 10 15 -3 5 2 12 10 15 9 3 16 12 16 19 0
7 7 16 16 19 8 3 12 10 9 16 -3 6 1 13 9 16 9 3 16 13 16 20 0 8 7 17 15 20 8
4 13 10 10 15 -3 4 4 13 15 19 11 6 18 15 15 20 -3 5 4 14 15 20 11 6 18 15
15 20 -3 5 4 14 15 20 11 6 18 15 15 20 -3 5 4 14 15 20 11 6 18 15 15 19 -2
5 7 16 20 25 14 9 23 21 20 26 -3 5 4 14 15 20 11 6 20 17 20 25 0 8 9 19 20
25 11 6 20 17 20 24 0 8 11 21 25 30 14 9 23 21 20 26 -3 5 6 17 20 26 13 9
23 20 20 24 -3 5 8 18 25 30 16 12 30 27 30 35 0 8 14 23 30 35 17 12 30 27
30 34 0 8 16 26 35 40 19 15 35 33 35 40 0 8 20 30 45 50 25 21 45 43 45 50 0
7 36 45 80 85 44 40 78 76 76 80 -6 10 218 234 226 226 3 -3 39 30 79 74 40
45 78 81 85 81 7 0 31 23 54 50 23 28 46 48 50 45 5 -3 23 13 40 35 17 22 36
38 40 35 5 -3 18 8 30 25 12 16 27 30 35 30 8 0 23 14 35 30 12 17 25 28 30
25 5 -3 17 6 26 20 9 14 22 25 29 25 7 0 20 11 29 25 9 14 21 23 25 20 5 -2
16 7 25 20 9 14 21 23 26 20 5 -3 14 4 20 15 6 11 15 18 19 15 5 -2 16 7 25
20 9 14 21 23 26 20 5 -3 14 4 20 15 6 11 15 18 20 15 5 -3 14 4 20 15 6 11
15 18 20 15 5 -3 14 4 20 15 6 11 15 18 20 15 5 -3 14 4 20 15 6 11 15 18 21
15 5 -4 12 1 15 9 3 9 12 16 19 16 7 0 16 7 19 16 3 8 10 12 16 9 6 -3 13 1
16 9 3 9 12 16 19 16 7 0 16 7 19 16 3 8 10 12 16 9 6 -3 13 1 16 9 3 9 10 13
15 10 5 -3 12 2 15 10 3 9 12 16 19 16 7 0 16 7 19 16 3 8 10 13 15 10 5 -3
12 1 15 10 3 8 10 13 15 10 5 -3 12 1 15 10 3 8 10 13 15 10 5 -3 12 1 15 10
3 8 10 12 16 9 6 -3 13 1 16 9 3 9 10 14 14 11 4 -3 11 2 14 11 3 8 10 13 15
10 5 -3 12 1 15 10 3 8 10 12 16 9 5 -3 10 -1 10 4 0 6 7 11 15 11 8 0 15 5
15 11 0 5 4 8 9 5 5 -3 12 1 15 10 3 8 10 13 15 10 5 -3 12 1 15 10 3 8 10 12
16 9 5 -3 10 -1 10 5 0 6 4 9 9 6 5 -3 12 1 15 10 3 8 10 12 16 9 5 -3 10 -1
10 4 0 6 7 11 15 11 8 0 15 5 15 11 0 5 5 7 10 4 6 -3 10 -1 10 4 0 6 7 11 15
11 8 0 15 5 15 11 0 5 5 7 10 4 6 -3 10 -1 10 4 0 6 7 11 15 11 8 0 15 5 15
11 0 5 5 7 10 4 6 -3 10 -1 10 5 0 6 4 9 9 6 5 -3 12 1 15 10 3 8 10 12 16 9
5 -3 10 -1 10 6 0 7 3 10 6 6 3 -3 15 3 27 13 11 11 24 17 29 14 4 -3 8 0 8 6
0 6 5 8 10 5 6 -3 10 -1 10 5 0 6 4 9 8 6 5 -3 18 3 29 14 12 10 24 16 27 13
3 -4 6 -1 6 6 0 7 5 9 10 6 6 -3 10 -1 10 5 0 6 5 8 10 5 6 -3 10 -2 10 3 0 6
11 13 25 16 14 4 25 11 25 17 0 6 5 7 10 4 6 -3 10 -1 10 5 0 6 5 8 10 5 6 -3
10 -1 10 5 0 6 5 8 10 5 6 -3 10 -1 10 5 0 6 5 8 10 5 6 -3 10 -1 10 5 0 6 5
8 10 5 6 -3 10 -1 10 5 0 6 5 8 10 5 6 -3 10 -1 10 5 0 6 5 8 10 5 6 -3 10 -1
10 5 0 6 5 8 10 5 6 -3 10 -1 10 5 0 6 5 8 10 5 6 -3 10 -1 10 5 0 6 5 8 10 5
6 -3 10 -1 10 5 0 6 5 8 10 5 6 -3 10 -1 10 5 0 6 5 8 10 5 6 -3 10 -1 10 5 0
6 5 8 10 5 6 -3 10 -1 10 5 0 6 5 8 10 5 6 -3 10 -1 10 5 0 6 5 8 10 5 6 -3
10 -1 10 5 0 6 5 8 10 5 6 -3 10 -1 10 5 0 6 5 8 10 5 6 -3 10 -1 10 5 0 6 5
8 10 5 6 -3 10 -1 10 5 0 6 5 8 10 5 6 -3 10 -1 10 5 0 6 5 8 10 5 6 -3 10 -1
10 4 0 6 3 10 8 9 4 -1 17 3 28 10 12 6 24 8 28 5 3 -3 6 -1 6 6 0 7 5 9 10 6
6 -3 10 -1 10 5 0 6 5 8 10 5 6 -3 10 -1 10 5 0 6 4 9 9 5 5 -3 12 -1 16 5 4
6 11 8 16 5 5 -4 9 -1 9 5 0 6 5 8 10 5 6 -3 10 -1 10 5 0 6 5 8 10 5 6 -3 10
-1 10 5 0 6 4 9 9 5 5 -3 12 -1 16 5 4 6 11 8 16 5 5 -4 9 -1 9 5 0 6 5 8 10
5 6 -3 10 -1 10 5 0 6 4 9 9 5 5 -3 12 -1 16 5 4 6 11 8 16 5 5 -4 9 -1 9 5 0
6 5 8 10 5 6 -3 10 -1 10 5 0 7 7 10 15 6 8 -3 15 -1 15 5 0 6 5 7 10 4 6 -3
10 -1 10 5 0 6 4 9 9 5 5 -3 12 -1 16 5 4 6 11 8 16 5 5 -4 9 -1 9 5 0 6 4 9
9 5 5 -3 12 -1 16 5 4 6 11 8 16 5 5 -4 9 -1 9 5 0 6 4 9 9 5 5 -3 12 -1 16 5
4 6 11 8 16 5 5 -4 9 -1 9 5 0 7 7 10 15 6 8 -3 15 -1 15 5 0 6 4 8 9 4 5 -3
12 -1 16 5 4 6 11 8 16 5 5 -4 9 -1 9 5 0 7 7 10 15 6 8 -3 15 -1 15 5 0 6 4
8 9 4 5 -3 12 -1 16 5 4 6 11 8 16 5 5 -4 9 -1 9 4 0 6 -8 11 -17 11 -10 0
-119 1 -243 3 -124 2 -247 0 -275 -5z"/>
<path d="M28490 28175 c19 -19 36 -35 39 -35 3 0 -10 16 -29 35 -19 19 -36 35
-39 35 -3 0 10 -16 29 -35z"/>
<path d="M7795 28148 l-40 -43 43 40 c39 36 47 45 39 45 -2 0 -21 -19 -42 -42z"/>
<path d="M28710 27965 c47 -47 87 -85 90 -85 2 0 -33 38 -80 85 -47 47 -87 85
-90 85 -2 0 33 -38 80 -85z"/>
<path d="M7440 27803 l-205 -208 208 205 c114 113 207 206 207 207 0 8 -20
-12 -210 -204z"/>
<path d="M29020 27655 c47 -47 87 -85 90 -85 2 0 -33 38 -80 85 -47 47 -87 85
-90 85 -2 0 33 -38 80 -85z"/>
<path d="M7105 27458 l-40 -43 43 40 c39 36 47 45 39 45 -2 0 -21 -19 -42 -42z"/>
<path d="M29235 27430 c21 -22 41 -40 44 -40 3 0 -13 18 -34 40 -21 22 -41 40
-44 40 -3 0 13 -18 34 -40z"/>
<path d="M6974 27318 l-29 -33 33 29 c30 28 37 36 29 36 -2 0 -16 -15 -33 -32z"/>
<path d="M29330 27327 c0 -2 15 -16 33 -33 l32 -29 -29 33 c-28 30 -36 37 -36
29z"/>
<path d="M6879 27213 l-24 -28 28 24 c15 14 27 26 27 28 0 8 -8 1 -31 -24z"/>
<path d="M29450 27195 c13 -14 26 -25 28 -25 3 0 -5 11 -18 25 -13 14 -26 25
-28 25 -3 0 5 -11 18 -25z"/>
<path d="M6794 27118 l-19 -23 23 19 c21 18 27 26 19 26 -2 0 -12 -10 -23 -22z"/>
<path d="M29525 27110 c10 -11 20 -20 23 -20 3 0 -3 9 -13 20 -10 11 -20 20
-23 20 -3 0 3 -9 13 -20z"/>
<path d="M6724 27038 l-19 -23 23 19 c21 18 27 26 19 26 -2 0 -12 -10 -23 -22z"/>
<path d="M29595 27030 c10 -11 20 -20 23 -20 3 0 -3 9 -13 20 -10 11 -20 20
-23 20 -3 0 3 -9 13 -20z"/>
<path d="M6659 26963 c-13 -16 -12 -17 4 -4 9 7 17 15 17 17 0 8 -8 3 -21 -13z"/>
<path d="M29650 26966 c0 -2 8 -10 18 -17 15 -13 16 -12 3 4 -13 16 -21 21
-21 13z"/>
<path d="M6599 26893 c-13 -16 -12 -17 4 -4 16 13 21 21 13 21 -2 0 -10 -8
-17 -17z"/>
<path d="M29710 26896 c0 -2 8 -10 18 -17 15 -13 16 -12 3 4 -13 16 -21 21
-21 13z"/>
<path d="M6549 26833 c-13 -16 -12 -17 4 -4 16 13 21 21 13 21 -2 0 -10 -8
-17 -17z"/>
<path d="M29760 26836 c0 -2 8 -10 18 -17 15 -13 16 -12 3 4 -13 16 -21 21
-21 13z"/>
<path d="M6499 26773 c-13 -16 -12 -17 4 -4 9 7 17 15 17 17 0 8 -8 3 -21 -13z"/>
<path d="M29810 26776 c0 -2 8 -10 18 -17 15 -13 16 -12 3 4 -13 16 -21 21
-21 13z"/>
<path d="M6449 26713 c-13 -16 -12 -17 4 -4 9 7 17 15 17 17 0 8 -8 3 -21 -13z"/>
<path d="M29860 26716 c0 -2 8 -10 18 -17 15 -13 16 -12 3 4 -13 16 -21 21
-21 13z"/>
<path d="M6359 26603 c-13 -16 -12 -17 4 -4 16 13 21 21 13 21 -2 0 -10 -8
-17 -17z"/>
<path d="M6319 26553 c-13 -16 -12 -17 4 -4 9 7 17 15 17 17 0 8 -8 3 -21 -13z"/>
<path d="M29990 26556 c0 -2 8 -10 18 -17 15 -13 16 -12 3 4 -13 16 -21 21
-21 13z"/>
<path d="M6279 26503 c-13 -16 -12 -17 4 -4 9 7 17 15 17 17 0 8 -8 3 -21 -13z"/>
<path d="M30100 26416 c0 -2 8 -10 18 -17 15 -13 16 -12 3 4 -13 16 -21 21
-21 13z"/>
<path d="M30170 26326 c0 -2 8 -10 18 -17 15 -13 16 -12 3 4 -13 16 -21 21
-21 13z"/>
<path d="M3321 20184 c0 -11 3 -14 6 -6 3 7 2 16 -1 19 -3 4 -6 -2 -5 -13z"/>
<path d="M33001 20144 c0 -11 3 -14 6 -6 3 7 2 16 -1 19 -3 4 -6 -2 -5 -13z"/>
<path d="M33011 20094 c0 -11 3 -14 6 -6 3 7 2 16 -1 19 -3 4 -6 -2 -5 -13z"/>
<path d="M33021 20044 c0 -11 3 -14 6 -6 3 7 2 16 -1 19 -3 4 -6 -2 -5 -13z"/>
<path d="M33031 19994 c0 -11 3 -14 6 -6 3 7 2 16 -1 19 -3 4 -6 -2 -5 -13z"/>
<path d="M3281 19984 c0 -11 3 -14 6 -6 3 7 2 16 -1 19 -3 4 -6 -2 -5 -13z"/>
<path d="M3271 19934 c0 -11 3 -14 6 -6 3 7 2 16 -1 19 -3 4 -6 -2 -5 -13z"/>
<path d="M3251 19824 c0 -11 3 -14 6 -6 3 7 2 16 -1 19 -3 4 -6 -2 -5 -13z"/>
<path d="M3231 19714 c0 -11 3 -14 6 -6 3 7 2 16 -1 19 -3 4 -6 -2 -5 -13z"/>
<path d="M33091 19664 c0 -11 3 -14 6 -6 3 7 2 16 -1 19 -3 4 -6 -2 -5 -13z"/>
<path d="M3221 19654 c0 -11 3 -14 6 -6 3 7 2 16 -1 19 -3 4 -6 -2 -5 -13z"/>
<path d="M33101 19604 c0 -11 3 -14 6 -6 3 7 2 16 -1 19 -3 4 -6 -2 -5 -13z"/>
<path d="M3211 19594 c0 -11 3 -14 6 -6 3 7 2 16 -1 19 -3 4 -6 -2 -5 -13z"/>
<path d="M3201 19534 c0 -11 3 -14 6 -6 3 7 2 16 -1 19 -3 4 -6 -2 -5 -13z"/>
<path d="M33121 19484 c0 -11 3 -14 6 -6 3 7 2 16 -1 19 -3 4 -6 -2 -5 -13z"/>
<path d="M3191 19474 c0 -11 3 -14 6 -6 3 7 2 16 -1 19 -3 4 -6 -2 -5 -13z"/>
<path d="M33131 19414 c0 -11 3 -14 6 -6 3 7 2 16 -1 19 -3 4 -6 -2 -5 -13z"/>
<path d="M3181 19404 c0 -11 3 -14 6 -6 3 7 2 16 -1 19 -3 4 -6 -2 -5 -13z"/>
<path d="M33141 19354 c0 -11 3 -14 6 -6 3 7 2 16 -1 19 -3 4 -6 -2 -5 -13z"/>
<path d="M3171 19344 c0 -11 3 -14 6 -6 3 7 2 16 -1 19 -3 4 -6 -2 -5 -13z"/>
<path d="M33151 19284 c0 -11 3 -14 6 -6 3 7 2 16 -1 19 -3 4 -6 -2 -5 -13z"/>
<path d="M3161 19274 c0 -11 3 -14 6 -6 3 7 2 16 -1 19 -3 4 -6 -2 -5 -13z"/>
<path d="M33161 19214 c0 -11 3 -14 6 -6 3 7 2 16 -1 19 -3 4 -6 -2 -5 -13z"/>
<path d="M3151 19204 c0 -11 3 -14 6 -6 3 7 2 16 -1 19 -3 4 -6 -2 -5 -13z"/>
<path d="M33171 19144 c0 -11 3 -14 6 -6 3 7 2 16 -1 19 -3 4 -6 -2 -5 -13z"/>
<path d="M3142 19130 c0 -14 2 -19 5 -12 2 6 2 18 0 25 -3 6 -5 1 -5 -13z"/>
<path d="M33201 18904 c0 -11 3 -14 6 -6 3 7 2 16 -1 19 -3 4 -6 -2 -5 -13z"/>
<path d="M3112 18890 c0 -14 2 -19 5 -12 2 6 2 18 0 25 -3 6 -5 1 -5 -13z"/>
<path d="M33212 18820 c0 -14 2 -19 5 -12 2 6 2 18 0 25 -3 6 -5 1 -5 -13z"/>
<path d="M3102 18805 c0 -16 2 -22 5 -12 2 9 2 23 0 30 -3 6 -5 -1 -5 -18z"/>
<path d="M33222 18730 c0 -14 2 -19 5 -12 2 6 2 18 0 25 -3 6 -5 1 -5 -13z"/>
<path d="M3092 18710 c0 -14 2 -19 5 -12 2 6 2 18 0 25 -3 6 -5 1 -5 -13z"/>
<path d="M33232 18635 c0 -16 2 -22 5 -12 2 9 2 23 0 30 -3 6 -5 -1 -5 -18z"/>
<path d="M3082 18615 c0 -16 2 -22 5 -12 2 9 2 23 0 30 -3 6 -5 -1 -5 -18z"/>
<path d="M33242 18535 c0 -16 2 -22 5 -12 2 9 2 23 0 30 -3 6 -5 -1 -5 -18z"/>
<path d="M3072 18515 c0 -16 2 -22 5 -12 2 9 2 23 0 30 -3 6 -5 -1 -5 -18z"/>
<path d="M3062 18400 c0 -19 2 -27 5 -17 2 9 2 25 0 35 -3 9 -5 1 -5 -18z"/>
<path d="M33252 18410 c0 -14 2 -19 5 -12 2 6 2 18 0 25 -3 6 -5 1 -5 -13z"/>
<path d="M33262 18300 c0 -19 2 -27 5 -17 2 9 2 25 0 35 -3 9 -5 1 -5 -18z"/>
<path d="M3052 18280 c0 -19 2 -27 5 -17 2 9 2 25 0 35 -3 9 -5 1 -5 -18z"/>
<path d="M33273 18165 c0 -22 2 -30 4 -17 2 12 2 30 0 40 -3 9 -5 -1 -4 -23z"/>
<path d="M3042 18135 c0 -16 2 -22 5 -12 2 9 2 23 0 30 -3 6 -5 -1 -5 -18z"/>
<path d="M33282 17995 c0 -16 2 -22 5 -12 2 9 2 23 0 30 -3 6 -5 -1 -5 -18z"/>
<path d="M3033 17975 c0 -22 2 -30 4 -17 2 12 2 30 0 40 -3 9 -5 -1 -4 -23z"/>
<path d="M33293 17820 c0 -30 2 -43 4 -27 2 15 2 39 0 55 -2 15 -4 2 -4 -28z"/>
<path d="M3023 17785 c0 -33 2 -45 4 -27 2 18 2 45 0 60 -2 15 -4 0 -4 -33z"/>
<path d="M33302 17610 c0 -14 2 -19 5 -12 2 6 2 18 0 25 -3 6 -5 1 -5 -13z"/>
<path d="M3011 17584 c0 -11 3 -14 6 -6 3 7 2 16 -1 19 -3 4 -6 -2 -5 -13z"/>
<path d="M33303 17530 c0 -30 2 -43 4 -27 2 15 2 39 0 55 -2 15 -4 2 -4 -28z"/>
<path d="M3013 17485 c0 -44 2 -61 4 -37 2 23 2 59 0 80 -2 20 -4 1 -4 -43z"/>
<path d="M3013 16720 c0 -36 2 -50 4 -32 2 17 2 47 0 65 -2 17 -4 3 -4 -33z"/>
<path d="M33303 16655 c0 -33 2 -45 4 -27 2 18 2 45 0 60 -2 15 -4 0 -4 -33z"/>
<path d="M3012 16630 c0 -14 2 -19 5 -12 2 6 2 18 0 25 -3 6 -5 1 -5 -13z"/>
<path d="M3023 16420 c0 -25 2 -35 4 -22 2 12 2 32 0 45 -2 12 -4 2 -4 -23z"/>
<path d="M33293 16365 c0 -33 2 -45 4 -27 2 18 2 45 0 60 -2 15 -4 0 -4 -33z"/>
<path d="M3033 16210 c0 -25 2 -35 4 -22 2 12 2 32 0 45 -2 12 -4 2 -4 -23z"/>
<path d="M33283 16180 c0 -25 2 -35 4 -22 2 12 2 32 0 45 -2 12 -4 2 -4 -23z"/>
<path d="M3043 16045 c0 -22 2 -30 4 -17 2 12 2 30 0 40 -3 9 -5 -1 -4 -23z"/>
<path d="M33273 16025 c0 -22 2 -30 4 -17 2 12 2 30 0 40 -3 9 -5 -1 -4 -23z"/>
<path d="M3052 15920 c0 -14 2 -19 5 -12 2 6 2 18 0 25 -3 6 -5 1 -5 -13z"/>
<path d="M33262 15890 c0 -19 2 -27 5 -17 2 9 2 25 0 35 -3 9 -5 1 -5 -18z"/>
<path d="M3062 15790 c0 -19 2 -27 5 -17 2 9 2 25 0 35 -3 9 -5 1 -5 -18z"/>
<path d="M33252 15770 c0 -19 2 -27 5 -17 2 9 2 25 0 35 -3 9 -5 1 -5 -18z"/>
<path d="M3072 15680 c0 -14 2 -19 5 -12 2 6 2 18 0 25 -3 6 -5 1 -5 -13z"/>
<path d="M33242 15655 c0 -16 2 -22 5 -12 2 9 2 23 0 30 -3 6 -5 -1 -5 -18z"/>
<path d="M3082 15580 c0 -14 2 -19 5 -12 2 6 2 18 0 25 -3 6 -5 1 -5 -13z"/>
<path d="M33232 15555 c0 -16 2 -22 5 -12 2 9 2 23 0 30 -3 6 -5 -1 -5 -18z"/>
<path d="M3092 15475 c0 -16 2 -22 5 -12 2 9 2 23 0 30 -3 6 -5 -1 -5 -18z"/>
<path d="M33222 15460 c0 -14 2 -19 5 -12 2 6 2 18 0 25 -3 6 -5 1 -5 -13z"/>
<path d="M33212 15370 c0 -14 2 -19 5 -12 2 6 2 18 0 25 -3 6 -5 1 -5 -13z"/>
<path d="M3112 15300 c0 -14 2 -19 5 -12 2 6 2 18 0 25 -3 6 -5 1 -5 -13z"/>
<path d="M33202 15280 c0 -14 2 -19 5 -12 2 6 2 18 0 25 -3 6 -5 1 -5 -13z"/>
<path d="M3121 15214 c0 -11 3 -14 6 -6 3 7 2 16 -1 19 -3 4 -6 -2 -5 -13z"/>
<path d="M33192 15200 c0 -14 2 -19 5 -12 2 6 2 18 0 25 -3 6 -5 1 -5 -13z"/>
<path d="M3131 15134 c0 -11 3 -14 6 -6 3 7 2 16 -1 19 -3 4 -6 -2 -5 -13z"/>
<path d="M3141 15064 c0 -11 3 -14 6 -6 3 7 2 16 -1 19 -3 4 -6 -2 -5 -13z"/>
<path d="M33171 15044 c0 -11 3 -14 6 -6 3 7 2 16 -1 19 -3 4 -6 -2 -5 -13z"/>
<path d="M33161 14974 c0 -11 3 -14 6 -6 3 7 2 16 -1 19 -3 4 -6 -2 -5 -13z"/>
<path d="M3161 14914 c0 -11 3 -14 6 -6 3 7 2 16 -1 19 -3 4 -6 -2 -5 -13z"/>
<path d="M33151 14904 c0 -11 3 -14 6 -6 3 7 2 16 -1 19 -3 4 -6 -2 -5 -13z"/>
<path d="M3181 14784 c0 -11 3 -14 6 -6 3 7 2 16 -1 19 -3 4 -6 -2 -5 -13z"/>
<path d="M33131 14774 c0 -11 3 -14 6 -6 3 7 2 16 -1 19 -3 4 -6 -2 -5 -13z"/>
<path d="M3191 14714 c0 -11 3 -14 6 -6 3 7 2 16 -1 19 -3 4 -6 -2 -5 -13z"/>
<path d="M33111 14644 c0 -11 3 -14 6 -6 3 7 2 16 -1 19 -3 4 -6 -2 -5 -13z"/>
<path d="M3211 14594 c0 -11 3 -14 6 -6 3 7 2 16 -1 19 -3 4 -6 -2 -5 -13z"/>
<path d="M33101 14584 c0 -11 3 -14 6 -6 3 7 2 16 -1 19 -3 4 -6 -2 -5 -13z"/>
<path d="M3221 14534 c0 -11 3 -14 6 -6 3 7 2 16 -1 19 -3 4 -6 -2 -5 -13z"/>
<path d="M33091 14524 c0 -11 3 -14 6 -6 3 7 2 16 -1 19 -3 4 -6 -2 -5 -13z"/>
<path d="M3231 14474 c0 -11 3 -14 6 -6 3 7 2 16 -1 19 -3 4 -6 -2 -5 -13z"/>
<path d="M33081 14464 c0 -11 3 -14 6 -6 3 7 2 16 -1 19 -3 4 -6 -2 -5 -13z"/>
<path d="M3251 14364 c0 -11 3 -14 6 -6 3 7 2 16 -1 19 -3 4 -6 -2 -5 -13z"/>
<path d="M33061 14354 c0 -11 3 -14 6 -6 3 7 2 16 -1 19 -3 4 -6 -2 -5 -13z"/>
<path d="M3271 14254 c0 -11 3 -14 6 -6 3 7 2 16 -1 19 -3 4 -6 -2 -5 -13z"/>
<path d="M33031 14194 c0 -11 3 -14 6 -6 3 7 2 16 -1 19 -3 4 -6 -2 -5 -13z"/>
<path d="M33021 14144 c0 -11 3 -14 6 -6 3 7 2 16 -1 19 -3 4 -6 -2 -5 -13z"/>
<path d="M33001 14044 c0 -11 3 -14 6 -6 3 7 2 16 -1 19 -3 4 -6 -2 -5 -13z"/>
<path d="M32961 13854 c0 -11 3 -14 6 -6 3 7 2 16 -1 19 -3 4 -6 -2 -5 -13z"/>
<path d="M6160 7836 c0 -2 8 -10 18 -17 15 -13 16 -12 3 4 -13 16 -21 21 -21
13z"/>
<path d="M6230 7746 c0 -2 8 -10 18 -17 15 -13 16 -12 3 4 -13 16 -21 21 -21
13z"/>
<path d="M29999 7643 c-13 -16 -12 -17 4 -4 9 7 17 15 17 17 0 8 -8 3 -21 -13z"/>
<path d="M29959 7593 c-13 -16 -12 -17 4 -4 9 7 17 15 17 17 0 8 -8 3 -21 -13z"/>
<path d="M6350 7596 c0 -2 8 -10 18 -17 15 -13 16 -12 3 4 -13 16 -21 21 -21
13z"/>
<path d="M6390 7546 c0 -2 8 -10 18 -17 15 -13 16 -12 3 4 -13 16 -21 21 -21
13z"/>
<path d="M29829 7433 c-13 -16 -12 -17 4 -4 16 13 21 21 13 21 -2 0 -10 -8
-17 -17z"/>
<path d="M29779 7373 c-13 -16 -12 -17 4 -4 9 7 17 15 17 17 0 8 -8 3 -21 -13z"/>
<path d="M29719 7303 c-13 -16 -12 -17 4 -4 9 7 17 15 17 17 0 8 -8 3 -21 -13z"/>
<path d="M6590 7306 c0 -2 8 -10 18 -17 15 -13 16 -12 3 4 -13 16 -21 21 -21
13z"/>
<path d="M29664 7238 l-19 -23 23 19 c21 18 27 26 19 26 -2 0 -12 -10 -23 -22z"/>
<path d="M6655 7230 c10 -11 20 -20 23 -20 3 0 -3 9 -13 20 -10 11 -20 20 -23
20 -3 0 3 -9 13 -20z"/>
<path d="M29604 7168 l-19 -23 23 19 c21 18 27 26 19 26 -2 0 -12 -10 -23 -22z"/>
<path d="M6710 7166 c0 -2 8 -10 18 -17 15 -13 16 -12 3 4 -13 16 -21 21 -21
13z"/>
<path d="M29534 7088 l-19 -23 23 19 c12 11 22 21 22 23 0 8 -8 2 -26 -19z"/>
<path d="M6790 7075 c13 -14 26 -25 28 -25 3 0 -5 11 -18 25 -13 14 -26 25
-28 25 -3 0 5 -11 18 -25z"/>
<path d="M29454 6998 l-19 -23 23 19 c21 18 27 26 19 26 -2 0 -12 -10 -23 -22z"/>
<path d="M6870 6985 c13 -14 26 -25 28 -25 3 0 -5 11 -18 25 -13 14 -26 25
-28 25 -3 0 5 -11 18 -25z"/>
<path d="M29364 6898 l-29 -33 33 29 c17 17 32 31 32 33 0 8 -8 1 -36 -29z"/>
<path d="M6940 6907 c0 -2 15 -16 33 -33 l32 -29 -29 33 c-28 30 -36 37 -36
29z"/>
<path d="M29249 6773 l-34 -38 38 34 c20 19 37 36 37 38 0 8 -8 0 -41 -34z"/>
<path d="M7090 6745 c19 -19 36 -35 39 -35 3 0 -10 16 -29 35 -19 19 -36 35
-39 35 -3 0 10 -16 29 -35z"/>
<path d="M29055 6568 l-70 -73 73 70 c67 64 77 75 69 75 -1 0 -34 -33 -72 -72z"/>
<path d="M7440 6385 c124 -124 227 -225 230 -225 3 0 -96 101 -220 225 -124
124 -227 225 -230 225 -3 0 96 -101 220 -225z"/>
<path d="M28680 6195 c-41 -41 -72 -75 -69 -75 2 0 38 34 79 75 41 41 72 75
69 75 -2 0 -38 -34 -79 -75z"/>
<path d="M7805 6030 c21 -22 41 -40 44 -40 3 0 -13 18 -34 40 -21 22 -41 40
-44 40 -3 0 13 -18 34 -40z"/>
<path d="M28479 6003 l-34 -38 38 34 c20 19 37 36 37 38 0 8 -8 0 -41 -34z"/>
<path d="M7940 5905 c13 -14 26 -25 28 -25 3 0 -5 11 -18 25 -13 14 -26 25
-28 25 -3 0 5 -11 18 -25z"/>
<path d="M28354 5888 l-29 -33 33 29 c17 17 32 31 32 33 0 8 -8 1 -36 -29z"/>
<path d="M8050 5805 c13 -14 26 -25 28 -25 3 0 -5 11 -18 25 -13 14 -26 25
-28 25 -3 0 5 -11 18 -25z"/>
<path d="M28249 5793 l-24 -28 28 24 c25 23 32 31 24 31 -2 0 -14 -12 -28 -27z"/>
<path d="M8135 5730 c10 -11 20 -20 23 -20 3 0 -3 9 -13 20 -10 11 -20 20 -23
20 -3 0 3 -9 13 -20z"/>
<path d="M28164 5718 l-19 -23 23 19 c21 18 27 26 19 26 -2 0 -12 -10 -23 -22z"/>
<path d="M8215 5660 c10 -11 20 -20 23 -20 3 0 -3 9 -13 20 -10 11 -20 20 -23
20 -3 0 3 -9 13 -20z"/>
<path d="M28084 5648 l-19 -23 23 19 c21 18 27 26 19 26 -2 0 -12 -10 -23 -22z"/>
<path d="M8280 5606 c0 -2 8 -10 18 -17 15 -13 16 -12 3 4 -13 16 -21 21 -21
13z"/>
<path d="M28009 5583 c-13 -16 -12 -17 4 -4 9 7 17 15 17 17 0 8 -8 3 -21 -13z"/>
<path d="M8350 5546 c0 -2 8 -10 18 -17 15 -13 16 -12 3 4 -13 16 -21 21 -21
13z"/>
<path d="M27939 5523 c-13 -16 -12 -17 4 -4 16 13 21 21 13 21 -2 0 -10 -8
-17 -17z"/>
<path d="M8410 5496 c0 -2 8 -10 18 -17 15 -13 16 -12 3 4 -13 16 -21 21 -21
13z"/>
<path d="M27879 5473 c-13 -16 -12 -17 4 -4 9 7 17 15 17 17 0 8 -8 3 -21 -13z"/>
<path d="M8470 5446 c0 -2 8 -10 18 -17 15 -13 16 -12 3 4 -13 16 -21 21 -21
13z"/>
<path d="M27819 5423 c-13 -16 -12 -17 4 -4 9 7 17 15 17 17 0 8 -8 3 -21 -13z"/>
<path d="M8530 5396 c0 -2 8 -10 18 -17 15 -13 16 -12 3 4 -13 16 -21 21 -21
13z"/>
<path d="M27759 5373 c-13 -16 -12 -17 4 -4 9 7 17 15 17 17 0 8 -8 3 -21 -13z"/>
<path d="M27709 5333 c-13 -16 -12 -17 4 -4 9 7 17 15 17 17 0 8 -8 3 -21 -13z"/>
<path d="M8740 5226 c0 -2 8 -10 18 -17 15 -13 16 -12 3 4 -13 16 -21 21 -21
13z"/>
<path d="M21128 2233 c7 -3 16 -2 19 1 4 3 -2 6 -13 5 -11 0 -14 -3 -6 -6z"/>
<path d="M21078 2223 c7 -3 16 -2 19 1 4 3 -2 6 -13 5 -11 0 -14 -3 -6 -6z"/>
<path d="M15388 2193 c7 -3 16 -2 19 1 4 3 -2 6 -13 5 -11 0 -14 -3 -6 -6z"/>
<path d="M20918 2193 c7 -3 16 -2 19 1 4 3 -2 6 -13 5 -11 0 -14 -3 -6 -6z"/>
<path d="M15498 2173 c7 -3 16 -2 19 1 4 3 -2 6 -13 5 -11 0 -14 -3 -6 -6z"/>
<path d="M20808 2173 c7 -3 16 -2 19 1 4 3 -2 6 -13 5 -11 0 -14 -3 -6 -6z"/>
<path d="M20748 2163 c7 -3 16 -2 19 1 4 3 -2 6 -13 5 -11 0 -14 -3 -6 -6z"/>
<path d="M15618 2153 c7 -3 16 -2 19 1 4 3 -2 6 -13 5 -11 0 -14 -3 -6 -6z"/>
<path d="M15738 2133 c7 -3 16 -2 19 1 4 3 -2 6 -13 5 -11 0 -14 -3 -6 -6z"/>
<path d="M20568 2133 c7 -3 16 -2 19 1 4 3 -2 6 -13 5 -11 0 -14 -3 -6 -6z"/>
<path d="M15798 2123 c7 -3 16 -2 19 1 4 3 -2 6 -13 5 -11 0 -14 -3 -6 -6z"/>
<path d="M20508 2123 c7 -3 16 -2 19 1 4 3 -2 6 -13 5 -11 0 -14 -3 -6 -6z"/>
<path d="M20438 2113 c6 -2 18 -2 25 0 6 3 1 5 -13 5 -14 0 -19 -2 -12 -5z"/>
<path d="M15928 2103 c7 -3 16 -2 19 1 4 3 -2 6 -13 5 -11 0 -14 -3 -6 -6z"/>
<path d="M20378 2103 c7 -3 16 -2 19 1 4 3 -2 6 -13 5 -11 0 -14 -3 -6 -6z"/>
<path d="M15998 2093 c7 -3 16 -2 19 1 4 3 -2 6 -13 5 -11 0 -14 -3 -6 -6z"/>
<path d="M20308 2093 c7 -3 16 -2 19 1 4 3 -2 6 -13 5 -11 0 -14 -3 -6 -6z"/>
<path d="M16068 2083 c6 -2 18 -2 25 0 6 3 1 5 -13 5 -14 0 -19 -2 -12 -5z"/>
<path d="M20238 2083 c7 -3 16 -2 19 1 4 3 -2 6 -13 5 -11 0 -14 -3 -6 -6z"/>
<path d="M16148 2073 c7 -3 16 -2 19 1 4 3 -2 6 -13 5 -11 0 -14 -3 -6 -6z"/>
<path d="M16218 2063 c6 -2 18 -2 25 0 6 3 1 5 -13 5 -14 0 -19 -2 -12 -5z"/>
<path d="M20078 2063 c6 -2 18 -2 25 0 6 3 1 5 -13 5 -14 0 -19 -2 -12 -5z"/>
<path d="M16298 2053 c6 -2 18 -2 25 0 6 3 1 5 -13 5 -14 0 -19 -2 -12 -5z"/>
<path d="M19998 2053 c7 -3 16 -2 19 1 4 3 -2 6 -13 5 -11 0 -14 -3 -6 -6z"/>
<path d="M16388 2043 c6 -2 18 -2 25 0 6 3 1 5 -13 5 -14 0 -19 -2 -12 -5z"/>
<path d="M16468 2033 c6 -2 18 -2 25 0 6 3 1 5 -13 5 -14 0 -19 -2 -12 -5z"/>
<path d="M19828 2033 c6 -2 18 -2 25 0 6 3 1 5 -13 5 -14 0 -19 -2 -12 -5z"/>
<path d="M16563 2023 c9 -2 23 -2 30 0 6 3 -1 5 -18 5 -16 0 -22 -2 -12 -5z"/>
<path d="M19733 2023 c9 -2 23 -2 30 0 6 3 -1 5 -18 5 -16 0 -22 -2 -12 -5z"/>
<path d="M16663 2013 c9 -2 23 -2 30 0 6 3 -1 5 -18 5 -16 0 -22 -2 -12 -5z"/>
<path d="M19633 2013 c9 -2 23 -2 30 0 6 3 -1 5 -18 5 -16 0 -22 -2 -12 -5z"/>
<path d="M16773 2003 c9 -2 23 -2 30 0 6 3 -1 5 -18 5 -16 0 -22 -2 -12 -5z"/>
<path d="M19523 2003 c9 -2 25 -2 35 0 9 3 1 5 -18 5 -19 0 -27 -2 -17 -5z"/>
<path d="M16883 1993 c9 -2 25 -2 35 0 9 3 1 5 -18 5 -19 0 -27 -2 -17 -5z"/>
<path d="M19403 1993 c9 -2 25 -2 35 0 9 3 1 5 -18 5 -19 0 -27 -2 -17 -5z"/>
<path d="M17008 1983 c12 -2 30 -2 40 0 9 3 -1 5 -23 4 -22 0 -30 -2 -17 -4z"/>
<path d="M19278 1983 c12 -2 30 -2 40 0 9 3 -1 5 -23 4 -22 0 -30 -2 -17 -4z"/>
<path d="M17148 1973 c12 -2 32 -2 45 0 12 2 2 4 -23 4 -25 0 -35 -2 -22 -4z"/>
<path d="M19123 1973 c9 -2 25 -2 35 0 9 3 1 5 -18 5 -19 0 -27 -2 -17 -5z"/>
<path d="M17328 1963 c12 -2 32 -2 45 0 12 2 2 4 -23 4 -25 0 -35 -2 -22 -4z"/>
<path d="M18953 1963 c9 -2 25 -2 35 0 9 3 1 5 -18 5 -19 0 -27 -2 -17 -5z"/>
<path d="M17553 1953 c15 -2 37 -2 50 0 12 2 0 4 -28 4 -27 0 -38 -2 -22 -4z"/>
<path d="M18723 1953 c15 -2 37 -2 50 0 12 2 0 4 -28 4 -27 0 -38 -2 -22 -4z"/>
<path d="M17943 1943 c86 -2 228 -2 315 0 86 1 15 3 -158 3 -173 0 -244 -2
-157 -3z"/>
<path d="M18448 1943 c18 -2 45 -2 60 0 15 2 0 4 -33 4 -33 0 -45 -2 -27 -4z"/>
</g>
</svg>
