<?xml version="1.0" encoding="UTF-8"?>
<svg id="Layer_1" data-name="Layer 1" xmlns="http://www.w3.org/2000/svg" xmlns:xlink="http://www.w3.org/1999/xlink" viewBox="0 0 2307.29 2916.8">
  <defs>
    <style>
      .cls-1 {
        opacity: .75;
      }

      .cls-2 {
        fill: #61ed46;
      }

      .cls-3, .cls-4 {
        fill: #000072;
      }

      .cls-4, .cls-5 {
        fill-rule: evenodd;
      }

      .cls-6 {
        mask: url(#mask-1);
      }

      .cls-7 {
        opacity: .3;
      }

      .cls-8 {
        fill: #fdbd91;
      }

      .cls-9, .cls-5 {
        fill: #fff;
      }

      .cls-10 {
        mask: url(#mask);
      }

      .cls-11 {
        opacity: .4;
      }

      .cls-12 {
        opacity: .55;
      }

      .cls-13 {
        fill: url(#linear-gradient-2);
        opacity: .5;
      }

      .cls-14 {
        fill: #c6d3e3;
      }

      .cls-15 {
        opacity: .2;
      }

      .cls-16 {
        fill: #4d5a6a;
      }

      .cls-17 {
        fill: url(#linear-gradient);
        mix-blend-mode: multiply;
      }

      .cls-18 {
        fill: #fefefe;
      }

      .cls-19 {
        filter: url(#luminosity-noclip);
      }
    </style>
    <filter id="luminosity-noclip" x="287.96" y="1374.24" width="1753.08" height="1337.13" color-interpolation-filters="sRGB" filterUnits="userSpaceOnUse">
      <feFlood flood-color="#fff" result="bg"/>
      <feBlend in="SourceGraphic" in2="bg"/>
    </filter>
    <filter id="luminosity-noclip-2" x="287.96" y="-9612" width="1753.08" height="32766" color-interpolation-filters="sRGB" filterUnits="userSpaceOnUse">
      <feFlood flood-color="#fff" result="bg"/>
      <feBlend in="SourceGraphic" in2="bg"/>
    </filter>
    <mask id="mask-1" x="287.96" y="-9612" width="1753.08" height="32766" maskUnits="userSpaceOnUse"/>
    <linearGradient id="linear-gradient" x1="1164.51" y1="1380.33" x2="1155.24" y2="2714.91" gradientUnits="userSpaceOnUse">
      <stop offset="0" stop-color="#000"/>
      <stop offset="1" stop-color="#fff"/>
    </linearGradient>
    <mask id="mask" x="287.96" y="1374.24" width="1753.08" height="1337.13" maskUnits="userSpaceOnUse">
      <g class="cls-19">
        <g class="cls-6">
          <polygon class="cls-17" points="1687.42 2711.35 645.06 2711.37 287.96 1374.24 2041.04 1389.52 1687.42 2711.35"/>
        </g>
      </g>
    </mask>
    <linearGradient id="linear-gradient-2" x1="1164.51" y1="1380.33" x2="1155.24" y2="2714.91" gradientUnits="userSpaceOnUse">
      <stop offset="0" stop-color="#40e6ff"/>
      <stop offset="1" stop-color="#40e6ff"/>
    </linearGradient>
  </defs>
  <circle class="cls-3" cx="1153.65" cy="1153.65" r="1153.65"/>
  <g>
    <path class="cls-2" d="M2042.9,678.78h-222.1c-8.56,0-15.49-6.94-15.49-15.5s6.93-15.5,15.49-15.5h222.1c8.56,0,15.49,6.94,15.49,15.5s-6.93,15.5-15.49,15.5Z"/>
    <path class="cls-2" d="M1606.45,678.78h-909.38c-8.56,0-15.49-6.94-15.49-15.5s6.93-15.5,15.49-15.5h909.38c8.56,0,15.49,6.94,15.49,15.5s-6.93,15.5-15.49,15.5Z"/>
    <path class="cls-2" d="M553.61,678.78h-251.37c-8.56,0-15.49-6.94-15.49-15.5s6.93-15.5,15.49-15.5h251.37c8.56,0,15.49,6.94,15.49,15.5s-6.93,15.5-15.49,15.5Z"/>
    <path class="cls-2" d="M2042.9,807.91h-191.11c-8.56,0-15.49-6.94-15.49-15.5s6.93-15.5,15.49-15.5h191.11c8.56,0,15.49,6.94,15.49,15.5s-6.93,15.5-15.49,15.5Z"/>
    <path class="cls-2" d="M1734.71,807.91H592.66c-8.56,0-15.49-6.94-15.49-15.5s6.93-15.5,15.49-15.5h1142.05c8.56,0,15.49,6.94,15.49,15.5s-6.93,15.5-15.49,15.5Z"/>
    <path class="cls-2" d="M434.17,807.91h-131.92c-8.56,0-15.49-6.94-15.49-15.5s6.93-15.5,15.49-15.5h131.92c8.56,0,15.49,6.94,15.49,15.5s-6.93,15.5-15.49,15.5Z"/>
    <path class="cls-2" d="M2042.9,937.04H302.25c-8.56,0-15.49-6.94-15.49-15.5s6.93-15.5,15.49-15.5h1740.65c8.56,0,15.49,6.94,15.49,15.5s-6.93,15.5-15.49,15.5Z"/>
    <path class="cls-2" d="M2042.9,1066.16H570.84c-8.56,0-15.49-6.94-15.49-15.5s6.93-15.5,15.49-15.5h1472.06c8.56,0,15.49,6.94,15.49,15.5s-6.93,15.5-15.49,15.5Z"/>
    <path class="cls-2" d="M434.17,1066.16h-131.92c-8.56,0-15.49-6.94-15.49-15.5s6.93-15.5,15.49-15.5h131.92c8.56,0,15.49,6.94,15.49,15.5s-6.93,15.5-15.49,15.5Z"/>
    <path class="cls-2" d="M2042.9,1195.29h-111.05c-8.56,0-15.49-6.94-15.49-15.5s6.93-15.5,15.49-15.5h111.05c8.56,0,15.49,6.94,15.49,15.5s-6.93,15.5-15.49,15.5Z"/>
    <path class="cls-2" d="M1820.8,1195.29H302.25c-8.56,0-15.49-6.94-15.49-15.5s6.93-15.5,15.49-15.5h1518.55c8.56,0,15.49,6.94,15.49,15.5s-6.93,15.5-15.49,15.5Z"/>
    <path class="cls-2" d="M2042.9,1324.42H302.25c-8.56,0-15.49-6.94-15.49-15.5s6.93-15.5,15.49-15.5h1740.65c8.56,0,15.49,6.94,15.49,15.5s-6.93,15.5-15.49,15.5Z"/>
    <path class="cls-2" d="M2042.9,1453.55h-125.33c-8.56,0-15.49-6.94-15.49-15.5s6.93-15.5,15.49-15.5h125.33c8.56,0,15.49,6.94,15.49,15.5s-6.93,15.5-15.49,15.5Z"/>
    <path class="cls-2" d="M1786.01,1453.55H639.7c-8.56,0-15.49-6.94-15.49-15.5s6.93-15.5,15.49-15.5h1146.31c8.56,0,15.49,6.94,15.49,15.5s-6.93,15.5-15.49,15.5Z"/>
    <path class="cls-2" d="M450.31,1453.55h-148.07c-8.56,0-15.49-6.94-15.49-15.5s6.93-15.5,15.49-15.5h148.07c8.56,0,15.49,6.94,15.49,15.5s-6.93,15.5-15.49,15.5Z"/>
    <path class="cls-2" d="M2042.9,1582.68h-279.61c-8.56,0-15.49-6.94-15.49-15.5s6.93-15.5,15.49-15.5h279.61c8.56,0,15.49,6.94,15.49,15.5s-6.93,15.5-15.49,15.5Z"/>
    <path class="cls-2" d="M1545.32,1582.68H302.25c-8.56,0-15.49-6.94-15.49-15.5s6.93-15.5,15.49-15.5h1243.08c8.56,0,15.49,6.94,15.49,15.5s-6.93,15.5-15.49,15.5Z"/>
  </g>
  <g class="cls-7">
    <path class="cls-3" d="M59.61,2845.64c367.34,94.88,1820.64,94.88,2187.97,0,33.98-8.78,25.69-48.14-10.09-48.14H69.7c-35.78,0-44.07,39.36-10.09,48.14Z"/>
  </g>
  <path class="cls-3" d="M162.43,2792.26c41.3-8.07,82.6-10.22,123.9-11.09,41.3-1.13,82.6-.53,123.89.08,41.3.48,82.6.6,123.89.52h1362.84l61.95-.02c20.65.01,41.3-.71,61.95-1.04,41.3-.19,82.6.29,123.89,11.55,2.9.79,4.6,3.78,3.81,6.67-.52,1.92-2.02,3.32-3.81,3.81-41.3,11.26-82.6,11.73-123.89,11.55-20.65-.33-41.3-1.05-61.95-1.04l-61.95-.02H534.12c-41.3-.08-82.6.05-123.89.52-41.3.62-82.6,1.21-123.89.09-41.3-.88-82.6-3.02-123.9-11.09-2.9-.57-4.78-3.37-4.22-6.27.43-2.2,2.15-3.81,4.22-4.22Z"/>
  <g>
    <g>
      <path class="cls-16" d="M1664.43,2685.52l6.52-.78c181.96-21.63,306.51-194.24,269.67-373.74l-68.36-333.16c-31.2-152.03-165-261.17-320.2-261.17h-397.77,11.25-397.77c-155.2,0-289,109.13-320.2,261.17l-68.36,333.16c-36.83,179.5,87.72,352.11,269.67,373.74l6.52.78h1009.02Z"/>
      <path class="cls-3" d="M1664.58,2688.02h-1009.17l-6.82-.79c-87.43-10.4-167.11-57.3-218.62-128.7-51.51-71.39-70.9-161.79-53.21-248.03l68.36-333.16c31.29-152.49,166.99-263.16,322.65-263.16h784.29c155.66,0,291.35,110.68,322.65,263.16l68.36,333.16c17.7,86.24-1.7,176.65-53.21,248.04-51.51,71.39-131.2,118.3-218.62,128.69l-6.67.79ZM767.78,1719.18c-153.3,0-286.94,109-317.75,259.17l-68.36,333.16c-17.42,84.87,1.67,173.84,52.36,244.1,50.69,70.26,129.12,116.43,215.15,126.66l6.52.77,1008.58-.02,6.38-.76c86.04-10.23,164.45-56.39,215.15-126.65,50.7-70.26,69.79-159.23,52.37-244.11l-68.36-333.16c-30.81-150.17-164.44-259.17-317.74-259.17h-784.29Z"/>
    </g>
    <g class="cls-7">
      <path class="cls-3" d="M1670.96,2684.77l-6.51.76h-1009.04l-6.51-.76c-116.42-13.83-209.31-89.53-251.55-189.19,46.2,41.54,105.25,69.79,172.06,77.76l6.51.76h1009.04l6.51-.76c181.98-21.64,306.54-194.24,269.67-373.72l-68.32-333.16c-4.61-22.4-11.44-43.81-20.23-64.15,49.56,45.22,85.41,105.85,99.67,175.53l68.38,333.16c36.82,179.49-87.74,352.14-269.67,373.78Z"/>
    </g>
    <g class="cls-12">
      <path class="cls-9" d="M1713.37,1759.24c-37.25-14.69-77.71-22.67-119.73-22.67h-784.27c-155.19,0-289.02,109.1-320.2,261.15l-68.38,333.16c-28.09,136.92,37.69,269.77,151.24,334.74-138.49-53.9-224.17-201.77-192.83-354.64l68.38-333.16c31.18-152,165.01-261.15,320.2-261.15h784.27c58.24,0,113.44,15.35,161.32,42.57Z"/>
    </g>
    <path class="cls-3" d="M1664.43,2701.79h-1009.02c-.64,0-1.28-.04-1.91-.11l-6.52-.77c-91.25-10.85-174.4-59.8-228.16-134.31-53.76-74.51-74-168.86-55.53-258.86l68.36-333.16c32.6-158.86,173.96-274.16,336.14-274.16h784.29c162.17,0,303.54,115.3,336.13,274.16l68.36,333.16c18.47,90-1.78,184.35-55.54,258.86-53.76,74.51-136.92,123.46-228.15,134.31l-6.52.77c-.64.08-1.28.11-1.92.11ZM656.38,2669.25h1007.09l5.57-.66c82.21-9.78,157.16-53.89,205.61-121.04,48.45-67.15,66.69-152.17,50.04-233.28l-68.36-333.16c-29.51-143.8-157.47-248.17-304.26-248.17h-784.29c-146.8,0-274.76,104.37-304.26,248.17l-68.36,333.16c-16.65,81.11,1.59,166.14,50.04,233.28,48.45,67.15,123.39,111.26,205.62,121.04l5.57.66Z"/>
    <g>
      <path class="cls-16" d="M1739.23,1470.6c-.98,3.8-2.01,7.65-3.04,11.39-.81,2.87-1.63,5.69-2.44,8.51-.33,1.08-.6,2.11-.98,3.2-.65,2.33-1.41,4.66-2.11,6.94-.92,2.98-1.9,5.91-2.87,8.84-.43,1.3-.87,2.6-1.3,3.85-1.41,4.23-2.87,8.4-4.45,12.53-1.63,4.55-3.36,9.06-5.15,13.5-1.74,4.5-3.58,8.95-5.48,13.39-1.84,4.39-3.8,8.84-5.8,13.18-1.9,4.23-3.85,8.4-5.86,12.58-.27.54-.54,1.08-.81,1.63-1.84,3.9-3.8,7.75-5.8,11.6-.05.11-.11.22-.16.33-2.17,4.28-4.39,8.46-6.67,12.69-2.71,4.99-5.48,9.92-8.35,14.8-1.95,3.42-3.96,6.78-5.96,10.14-.11.11-.16.22-.16.27-2.49,4.12-5.04,8.19-7.65,12.26-4.34,6.78-8.78,13.5-13.39,20.17-2.01,2.93-4.07,5.8-6.13,8.68-1.74,2.44-3.47,4.83-5.26,7.27-2.66,3.63-5.37,7.21-8.08,10.79-2.66,3.47-5.31,6.83-8.03,10.25-1.52,1.9-3.04,3.8-4.55,5.64-.98,1.19-1.95,2.39-2.93,3.58-1.84,2.17-3.63,4.34-5.48,6.51-4.99,5.86-10.09,11.66-15.29,17.41-2.49,2.82-5.1,5.59-7.7,8.35-1.9,2.01-3.8,4.07-5.69,6.07-2.71,2.82-5.37,5.59-8.13,8.3-3.9,3.96-7.92,7.92-11.93,11.82-3.25,3.15-6.51,6.24-9.81,9.27-.49.49-.98.98-1.46,1.36-3.36,3.2-6.78,6.29-10.25,9.38-6.34,5.69-12.8,11.22-19.36,16.7-1.63,1.36-3.25,2.71-4.93,4.12-3.31,2.71-6.67,5.42-10.09,8.13-11.82,9.38-23.91,18.44-36.28,27.17-.22.16-.49.33-.7.49-48.21,33.95-100.64,59.16-155.09,75.7-18.87,5.75-38.01,10.47-57.32,14.15-85.51,16.27-174.12,11.98-258.01-12.74-56.39-16.59-110.67-42.46-160.51-77.6-3.9-2.77-7.81-5.59-11.71-8.41-.38-.33-.76-.6-1.19-.87-3.85-2.87-7.7-5.75-11.5-8.62-3.96-3.04-7.92-6.13-11.88-9.27h-.05c-3.9-3.15-7.75-6.29-11.6-9.44-3.9-3.2-7.7-6.45-11.5-9.71-3.8-3.25-7.54-6.51-11.22-9.81-3.74-3.36-7.43-6.67-11.06-10.09-3.63-3.36-7.21-6.78-10.79-10.25-3.58-3.42-7.1-6.89-10.57-10.41-3.47-3.52-6.94-7.05-10.36-10.63-3.42-3.63-6.83-7.27-10.25-10.95-3.25-3.58-6.45-7.16-9.65-10.85-2.49-2.82-4.99-5.69-7.43-8.57-7.1-8.41-14.04-16.97-20.77-25.7-2.71-3.58-5.48-7.16-8.08-10.79-.38-.43-.7-.92-1.03-1.36-1.84-2.44-3.63-4.93-5.37-7.43-4.01-5.64-7.92-11.28-11.71-17.03-2.11-3.15-4.23-6.34-6.24-9.54-3.09-4.83-6.13-9.65-9.11-14.59-2.06-3.47-4.18-6.99-6.24-10.52-2.82-4.93-5.59-9.98-8.35-15.02-2.01-3.8-4.01-7.59-5.96-11.39-2.01-3.85-3.96-7.75-5.8-11.66-.33-.54-.6-1.08-.81-1.63-4.12-8.4-7.97-16.92-11.55-25.49-.22-.38-.38-.71-.49-1.08-1.79-4.23-3.52-8.46-5.21-12.74-1.79-4.45-3.52-8.95-5.15-13.5-1.68-4.5-3.31-9.06-4.83-13.61-1.14-3.36-2.28-6.78-3.36-10.19-.87-2.71-1.68-5.42-2.49-8.13-.38-1.19-.76-2.44-1.08-3.63-.81-2.66-1.57-5.26-2.28-7.92-1.08-3.9-2.11-7.81-3.15-11.77-40.56-286.31,219.78-603.84,479.9-740,66.16-34.65,145.33-34.65,211.48,0,5.86,3.04,11.66,6.29,17.51,9.65l.05.05c254.16,146.08,501.97,450.43,462.33,730.29Z"/>
      <g class="cls-11">
        <path class="cls-3" d="M1253.64,1932.96c7.37-1.91,14.72-3.93,22.01-6.16,54.44-16.54,106.88-41.75,155.09-75.7.22-.16.49-.33.71-.49,12.36-8.73,24.45-17.78,36.28-27.17,3.42-2.71,6.78-5.42,10.09-8.13,1.68-1.41,3.31-2.76,4.94-4.12,6.56-5.48,13.01-11.01,19.36-16.7,3.47-3.09,6.89-6.18,10.25-9.38.49-.38.97-.87,1.46-1.36,3.31-3.04,6.56-6.13,9.82-9.28,4.01-3.9,8.02-7.86,11.93-11.82,2.77-2.71,5.42-5.48,8.13-8.3,1.9-2,3.8-4.07,5.7-6.07,2.6-2.77,5.21-5.53,7.7-8.35,5.21-5.75,10.3-11.55,15.29-17.41,1.84-2.17,3.63-4.34,5.48-6.51.97-1.19,1.95-2.39,2.93-3.58,1.52-1.84,3.03-3.74,4.55-5.64,2.71-3.42,5.37-6.78,8.03-10.25,2.71-3.58,5.42-7.16,8.08-10.79,1.79-2.44,3.53-4.83,5.26-7.27,2.06-2.87,4.12-5.75,6.13-8.68,4.61-6.67,9.06-13.39,13.39-20.17,2.6-4.07,5.15-8.13,7.64-12.26,0-.05.06-.16.16-.27,2-3.36,4.01-6.73,5.97-10.14,2.87-4.88,5.64-9.82,8.35-14.8,2.28-4.23,4.5-8.4,6.67-12.69.06-.11.11-.22.16-.33,2.01-3.85,3.96-7.7,5.8-11.61.27-.54.54-1.09.81-1.63,2.01-4.18,3.96-8.35,5.86-12.58,2.01-4.34,3.96-8.79,5.8-13.18,1.9-4.45,3.74-8.89,5.48-13.4,1.79-4.45,3.53-8.95,5.15-13.5,1.57-4.12,3.04-8.3,4.45-12.53.43-1.25.87-2.55,1.3-3.85.97-2.93,1.95-5.85,2.87-8.84.7-2.28,1.46-4.61,2.12-6.94.38-1.09.65-2.12.98-3.2.81-2.82,1.63-5.64,2.44-8.51,1.03-3.74,2.06-7.59,3.04-11.39,39.15-276.43-202.14-576.75-452.99-724.85,176.46,160.5,309.98,385.39,280.12,596.39-.98,3.8-2.01,7.65-3.04,11.39-.81,2.88-1.63,5.69-2.44,8.51-.33,1.09-.6,2.12-.97,3.2-.65,2.33-1.41,4.66-2.12,6.94-.92,2.98-1.9,5.91-2.88,8.84-.43,1.3-.87,2.6-1.3,3.85-1.41,4.23-2.87,8.4-4.45,12.52-1.63,4.56-3.36,9.06-5.15,13.5-1.73,4.5-3.58,8.95-5.48,13.39-1.85,4.39-3.8,8.84-5.8,13.18-1.9,4.23-3.85,8.41-5.86,12.58-.27.54-.54,1.09-.81,1.63-1.84,3.9-3.79,7.76-5.8,11.61-.06.11-.11.22-.16.32-2.17,4.28-4.39,8.46-6.67,12.69-2.71,4.99-5.48,9.92-8.35,14.8-1.95,3.42-3.96,6.78-5.97,10.14-.11.11-.16.22-.16.27-2.49,4.12-5.04,8.19-7.64,12.25-4.34,6.78-8.79,13.5-13.39,20.17-2.01,2.93-4.07,5.8-6.13,8.68-1.74,2.44-3.47,4.82-5.26,7.27-2.66,3.63-5.37,7.21-8.08,10.79-2.66,3.47-5.31,6.83-8.02,10.25-1.52,1.9-3.04,3.8-4.56,5.64-.98,1.19-1.95,2.39-2.93,3.58-1.84,2.17-3.63,4.34-5.48,6.51-4.99,5.85-10.09,11.66-15.29,17.41-2.5,2.82-5.1,5.58-7.7,8.35-1.9,2-3.79,4.07-5.69,6.07-2.71,2.82-5.37,5.59-8.13,8.3-3.91,3.96-7.92,7.92-11.93,11.82-3.25,3.15-6.51,6.24-9.82,9.27-.49.49-.97.97-1.46,1.36-3.36,3.2-6.78,6.29-10.25,9.38-6.35,5.7-12.8,11.23-19.36,16.7-1.63,1.36-3.25,2.71-4.93,4.12-3.31,2.71-6.67,5.42-10.09,8.13-11.82,9.38-23.91,18.44-36.28,27.17-.22.16-.49.33-.7.49-48.21,33.94-100.64,59.16-155.09,75.7-18.87,5.75-38.01,10.46-57.32,14.15-32.07,6.1-64.57,9.31-97.1,9.64,32.52-.33,65.03-3.54,97.1-9.64.92-.18,1.84-.38,2.77-.57-11.69,3.04-23.46,5.74-35.3,8-70.75,13.46-143.61,12.81-214.16-1.81-.82-.65-1.64-1.27-2.47-1.92,3.88,3.08,7.77,6.12,11.65,9.1,3.8,2.88,7.65,5.75,11.5,8.62.43.27.82.54,1.19.87,3.9,2.82,7.81,5.64,11.71,8.41,49.84,35.14,104.11,61,160.51,77.6,83.89,24.72,172.49,29.01,258.01,12.74,10.09-1.93,20.13-4.15,30.12-6.64-9.07,2.25-18.2,4.28-27.35,6.07Z"/>
      </g>
      <g class="cls-12">
        <path class="cls-9" d="M1369.9,804.36c-20.01-13.56-40.24-26.19-60.46-37.85l-.05-.05c-5.86-3.36-11.66-6.62-17.51-9.65-66.16-34.65-145.33-34.65-211.48,0-260.12,136.16-520.46,453.71-479.9,740.02,1.03,3.96,2.06,7.86,3.15,11.77.7,2.66,1.46,5.26,2.28,7.92.33,1.19.7,2.44,1.08,3.63.81,2.71,1.63,5.42,2.49,8.13,1.08,3.42,2.22,6.83,3.36,10.19,1.52,4.56,3.14,9.11,4.83,13.61,1.63,4.55,3.36,9.06,5.15,13.5,1.68,4.28,3.42,8.51,5.21,12.74.11.38.27.7.49,1.08,3.58,8.57,7.43,17.08,11.55,25.49.22.54.49,1.08.81,1.63,1.84,3.9,3.8,7.81,5.8,11.66,1.95,3.8,3.96,7.59,5.96,11.39,2.77,5.04,5.53,10.09,8.35,15.02,2.06,3.52,4.18,7.05,6.24,10.52,2.98,4.93,6.02,9.76,9.11,14.59,2.01,3.2,4.12,6.4,6.24,9.54,3.8,5.75,7.7,11.39,11.71,17.03,1.74,2.49,3.52,4.99,5.37,7.43.33.43.65.92,1.03,1.36,2.6,3.63,5.37,7.21,8.08,10.79,6.72,8.73,13.67,17.3,20.77,25.7,2.44,2.87,4.93,5.75,7.43,8.57,3.2,3.69,6.4,7.27,9.65,10.85,3.42,3.69,6.83,7.32,10.25,10.95,3.42,3.58,6.89,7.1,10.36,10.63,3.47,3.52,6.99,6.99,10.57,10.41,3.58,3.47,7.16,6.89,10.79,10.25,3.63,3.42,7.32,6.72,11.06,10.09,3.69,3.31,7.43,6.56,11.22,9.81,3.8,3.25,7.59,6.51,11.5,9.71,3.85,3.14,7.7,6.29,11.6,9.44h.05c3.96,3.14,7.92,6.24,11.88,9.27,3.52,2.66,7.1,5.31,10.68,8.03-4.5-2.93-8.95-5.96-13.39-9.11-3.9-2.77-7.81-5.59-11.71-8.41-.38-.33-.76-.6-1.19-.87-3.85-2.87-7.7-5.75-11.5-8.62-3.96-3.04-7.92-6.13-11.88-9.27h-.05c-3.9-3.15-7.75-6.29-11.6-9.44-3.9-3.2-7.7-6.45-11.5-9.71-3.8-3.25-7.54-6.51-11.22-9.81-3.74-3.36-7.43-6.67-11.06-10.09-3.63-3.36-7.21-6.78-10.79-10.25-3.58-3.42-7.1-6.89-10.57-10.41-3.47-3.52-6.94-7.05-10.36-10.63-3.42-3.63-6.83-7.27-10.25-10.95-3.25-3.58-6.45-7.16-9.65-10.85-2.49-2.82-4.99-5.69-7.43-8.57-7.1-8.4-14.04-16.97-20.77-25.7-2.71-3.58-5.48-7.16-8.08-10.79-.38-.43-.7-.92-1.03-1.36-1.84-2.44-3.63-4.93-5.37-7.43-4.01-5.64-7.92-11.28-11.71-17.03-2.11-3.15-4.23-6.34-6.24-9.54-3.09-4.83-6.13-9.65-9.11-14.59-2.06-3.47-4.18-7-6.24-10.52-2.82-4.93-5.59-9.98-8.35-15.02-2.01-3.8-4.01-7.59-5.96-11.39-2.01-3.85-3.96-7.75-5.8-11.66-.33-.54-.6-1.08-.81-1.63-4.12-8.41-7.97-16.92-11.55-25.49-.22-.38-.38-.7-.49-1.08-1.79-4.23-3.52-8.46-5.21-12.74-1.79-4.45-3.52-8.95-5.15-13.5-1.68-4.5-3.31-9.06-4.83-13.61-1.14-3.36-2.28-6.78-3.36-10.19-.87-2.71-1.68-5.42-2.49-8.13-.38-1.19-.76-2.44-1.08-3.63-.81-2.66-1.57-5.26-2.28-7.92-1.08-3.9-2.11-7.81-3.15-11.77-40.56-286.31,219.78-603.86,479.9-740.02,66.16-34.65,145.33-34.65,211.48,0,5.86,3.04,11.66,6.29,17.51,9.65l.05.05c29.44,16.92,58.78,35.95,87.58,56.83Z"/>
      </g>
      <path class="cls-3" d="M1153.59,1959.37c-113.99,0-227.96-34.3-325.19-102.89-3.97-2.81-7.92-5.66-11.87-8.52-.21-.15-.41-.3-.6-.46-.27-.18-.54-.37-.8-.56-4.09-3.06-7.87-5.88-11.58-8.69-3.84-2.95-7.62-5.9-11.39-8.88-.32-.22-.62-.44-.92-.69-3.81-3.07-7.57-6.14-11.34-9.21-4.38-3.59-8.27-6.92-12.15-10.25-3.89-3.34-7.73-6.67-11.5-10.06l-.53-.48c-3.66-3.28-7.26-6.52-10.81-9.87-3.63-3.36-7.3-6.86-10.97-10.42-3.6-3.44-7.25-7.03-10.84-10.67-3.68-3.73-7.13-7.25-10.54-10.82-3.53-3.75-6.96-7.4-10.41-11.12-3.45-3.79-6.73-7.46-10.01-11.24-2.47-2.79-5.04-5.75-7.55-8.72-7.45-8.81-14.59-17.65-21.25-26.29l-1.79-2.36c-2.12-2.79-4.25-5.59-6.29-8.42-.38-.47-.73-.95-1.07-1.42-2.01-2.66-3.92-5.33-5.78-8-4.36-6.12-8.29-11.84-11.93-17.36-2.14-3.18-4.35-6.52-6.45-9.87-3.09-4.82-6.2-9.77-9.25-14.83l-1.91-3.22c-1.48-2.49-2.98-5-4.44-7.5-2.8-4.9-5.47-9.76-8.13-14.61l-.43-.78c-2.16-4.08-4.2-7.93-6.18-11.78-1.96-3.77-3.92-7.67-5.77-11.57-.45-.82-.86-1.64-1.21-2.47-4.38-9.06-8.12-17.31-11.44-25.2-.32-.63-.66-1.39-.98-2.26-1.76-4.18-3.48-8.36-5.14-12.6-1.81-4.51-3.63-9.21-5.33-13.97-1.67-4.46-3.35-9.2-4.94-13.94-1.15-3.39-2.32-6.9-3.44-10.41-.88-2.78-1.72-5.58-2.57-8.37-.37-1.17-.81-2.63-1.19-4.02-.74-2.4-1.56-5.2-2.31-8.06-1.05-3.8-2.11-7.78-3.16-11.83-.16-.6-.28-1.21-.37-1.82-24.56-173.38,57.12-333.84,129.98-437.92,92.06-131.52,222.72-247.71,358.49-318.77,70.94-37.15,155.63-37.15,226.57,0,135.76,71.06,266.43,187.26,358.49,318.77,72.85,104.08,154.54,264.53,129.98,437.92-.09.6-.2,1.19-.36,1.77-1,3.88-2.05,7.82-3.11,11.65l-2.79,9.71c-.24.84-.49,1.67-.77,2.52-.49,1.71-1.02,3.42-1.55,5.11l-.56,1.79c-.89,2.88-1.83,5.71-2.76,8.53l-.21.64c-.47,1.4-.92,2.77-1.38,4.08-1.42,4.25-2.96,8.64-4.61,12.97-1.58,4.43-3.39,9.14-5.26,13.79-1.71,4.44-3.63,9.07-5.6,13.69-1.89,4.49-3.92,9.12-6.01,13.63-1.88,4.18-3.89,8.49-5.96,12.8l-.94,1.88c-1.75,3.74-3.8,7.78-5.91,11.82-2.3,4.56-4.59,8.85-6.93,13.2-2.83,5.21-5.69,10.31-8.65,15.35-1.9,3.33-3.96,6.78-6.02,10.23-.02.04-.04.07-.07.11-.05.08-.1.17-.15.25-2.56,4.24-5.19,8.42-7.86,12.6-4.77,7.45-9.26,14.21-13.71,20.65-2.04,2.97-4.16,5.94-6.29,8.91-1.75,2.46-3.53,4.9-5.36,7.4-2.71,3.71-5.47,7.35-8.24,11-2.77,3.62-5.48,7.06-8.26,10.55-1.6,2-3.16,3.96-4.74,5.86l-8.56,10.28c-5.11,5.99-10.36,11.97-15.63,17.79-2.39,2.71-5.04,5.53-7.69,8.34l-5.96,6.35c-2.97,3.09-5.71,5.94-8.55,8.73-3.78,3.84-7.88,7.88-11.97,11.86-3.31,3.2-6.59,6.32-9.92,9.38-.62.61-1.25,1.2-1.88,1.74-3.36,3.19-6.78,6.28-10.26,9.38-6.74,5.99-13.38,11.72-19.75,17.04l-4.9,4.09c-3.52,2.89-6.95,5.65-10.43,8.42-11.98,9.51-24.44,18.84-37.01,27.72-.1.07-.42.29-.6.42-.04.03-.09.06-.13.09-97.07,68.26-210.78,102.38-324.47,102.39ZM836,1821.89c3.73,2.69,7.46,5.38,11.18,8.02,182.96,129.09,428.97,129.28,612.16.46h0c.25-.18.53-.37.69-.48,12.07-8.53,24.03-17.48,35.54-26.61,3.34-2.66,6.64-5.32,9.88-7.97l4.82-4.03c6.1-5.1,12.49-10.61,18.97-16.37,3.33-2.96,6.62-5.93,9.84-9,.28-.27.57-.52.87-.77l.3-.3c.17-.16.34-.32.51-.48,3.2-2.94,6.35-5.94,9.5-8.98,3.9-3.79,7.83-7.67,11.65-11.55,2.82-2.76,5.33-5.38,7.89-8.04l5.69-6.07c2.62-2.78,5.03-5.34,7.34-7.95,5.19-5.73,10.22-11.46,15.1-17.19l8.17-9.8c1.53-1.86,3-3.69,4.47-5.53,2.62-3.3,5.22-6.59,7.82-9.98,2.6-3.44,5.26-6.95,7.87-10.52,1.74-2.38,3.44-4.71,5.13-7.09,2.03-2.82,4.02-5.61,5.96-8.44,4.27-6.18,8.55-12.62,13.11-19.75,2.52-3.94,5-7.89,7.42-11.89.04-.07.08-.13.12-.2h0c1.96-3.28,3.91-6.55,5.82-9.88,2.88-4.89,5.55-9.67,8.17-14.49,2.18-4.05,4.35-8.11,6.45-12.27.03-.06.22-.44.25-.5,1.9-3.66,3.76-7.31,5.51-11.02l1-2.02c1.81-3.76,3.7-7.81,5.53-11.9,2.01-4.35,3.89-8.62,5.66-12.83,1.85-4.35,3.62-8.62,5.29-12.94,1.8-4.48,3.46-8.78,5.01-13.12,1.61-4.24,3-8.2,4.34-12.2l1.5-4.47c.87-2.61,1.74-5.22,2.56-7.88l.6-1.92c.47-1.51.96-3.04,1.39-4.58.09-.35.2-.69.32-1.03.16-.45.28-.9.41-1.34l2.71-9.42c.89-3.25,1.82-6.7,2.71-10.12,17.68-126.88-26.53-273.79-124.54-413.8-89.17-127.39-215.62-239.88-346.92-308.61-61.48-32.21-134.9-32.21-196.39,0-131.3,68.73-257.75,181.21-346.93,308.61-98,140-142.2,286.91-124.54,413.78.93,3.56,1.87,7.08,2.84,10.61.7,2.66,1.41,5.06,2.16,7.52.4,1.45.72,2.49,1.04,3.49.85,2.84,1.65,5.46,2.48,8.09,1.06,3.34,2.17,6.65,3.28,9.92,1.48,4.44,3.04,8.82,4.65,13.14,1.64,4.57,3.3,8.87,5,13.12,1.68,4.28,3.36,8.38,5.1,12.48.03.08.06.15.09.23.15.31.29.62.42.92,3.2,7.66,6.86,15.73,11.19,24.67.1.21.2.43.3.65.21.36.4.73.58,1.11,1.76,3.71,3.61,7.43,5.52,11.09,1.97,3.83,3.95,7.56,5.92,11.3l.31.56c2.58,4.7,5.16,9.4,7.79,14,1.34,2.29,2.78,4.71,4.22,7.12l1.88,3.16c2.85,4.71,5.81,9.42,8.82,14.12,2,3.18,4.01,6.24,6.04,9.24,3.51,5.31,7.24,10.73,11.46,16.67,1.71,2.46,3.37,4.78,5.09,7.05.07.1.41.55.48.66l-.22-.24c.37.41.71.84,1.03,1.29,1.96,2.74,4.01,5.43,6.06,8.13l1.75,2.31c6.28,8.15,13.11,16.6,20.22,25.02,2.35,2.77,4.77,5.56,7.19,8.29,3.22,3.71,6.34,7.2,9.51,10.69,3.28,3.54,6.67,7.14,10.06,10.75,3.2,3.36,6.54,6.75,9.88,10.14,3.57,3.63,6.97,6.98,10.43,10.28,3.58,3.47,7.07,6.8,10.61,10.08,3.47,3.27,6.89,6.34,10.36,9.46l.52.47c3.59,3.22,7.24,6.39,10.94,9.57,3.7,3.17,7.41,6.35,11.22,9.47,3.76,3.08,7.24,5.91,10.73,8.73.25.18.5.36.74.55,3.89,3.09,7.77,6.12,11.66,9.1,3.54,2.68,7.21,5.42,10.88,8.17.64.42,1.25.86,1.84,1.34ZM815.52,1847.16s0,0,.01.01c0,0,0,0-.01-.01ZM1540.34,1764.82s-.08.06-.12.1c.04-.03.08-.06.12-.1ZM611.15,1547.66s0,.01,0,.02c0,0,0-.01,0-.02ZM610.15,1545.19s0,0,0,.01c0,0,0,0,0-.01ZM1739.23,1470.6h.05-.05Z"/>
      <g>
        <g>
          <path class="cls-8" d="M1609.28,1552.77c-1,3.05-2.09,6.13-3.22,9.31-30.15,77.23-89.28,118.39-125.09,71.79l21.36-104.9,14.53-71.31c55.87-38.16,130.35-21.01,92.41,95.11Z"/>
          <path class="cls-3" d="M1516.79,1655.47c-14.21,0-27.02-6.97-37.35-20.42l-.54-.7,36.23-177.85.65-.44c30.5-20.83,64.82-24.44,85.41-9,13.4,10.05,32.51,37.24,9.94,106.31h0c-1,3.06-2.09,6.17-3.23,9.36-20.15,51.62-53.38,87.82-84.68,92.27-2.17.31-4.31.46-6.42.46ZM1483.06,1633.39c10.87,13.78,24.53,19.92,39.61,17.79,29.93-4.27,61.96-39.51,81.59-89.79,1.11-3.11,2.19-6.18,3.18-9.21h0c16.17-49.49,13.12-85.72-8.59-102.01-19.11-14.34-51.28-10.84-80.24,8.66l-35.56,174.56Z"/>
        </g>
        <g class="cls-7">
          <path class="cls-3" d="M1609.28,1552.77c-1,3.05-2.09,6.13-3.22,9.31-30.15,77.23-89.28,118.39-125.09,71.79l21.36-104.9c5-.39,8.01-.61,8.01-.61,21.71,67.92,53.26,73.97,94.63,18.1,0,0,1.57,2.31,4.31,6.31Z"/>
        </g>
        <path class="cls-3" d="M1516.87,1666.57c-17.63,0-33.83-8.59-46.24-24.74-2.31-3-3.2-6.85-2.44-10.56l35.89-176.21c.67-3.33,2.62-6.26,5.42-8.17,34.85-23.8,74.65-27.1,99.02-8.19,16.35,12.68,39.38,46.14,9.81,127.83-22.01,56.38-57.81,94.38-93.55,99.48-2.67.38-5.31.57-7.92.57ZM1495.03,1630.26c7.68,8.05,16.27,11.28,26.07,9.9,25.63-3.65,54.88-36.94,72.8-82.82,17.37-48.01,16.91-83.85-1.37-98.02-14.29-11.08-40.07-8.37-63.97,6.31l-33.54,164.63Z"/>
        <g>
          <path class="cls-8" d="M698.01,1552.77c1,3.05,2.09,6.13,3.22,9.31,30.15,77.23,89.28,118.39,125.09,71.79l-21.36-104.9-14.53-71.31c-55.87-38.16-130.35-21.01-92.41,95.11Z"/>
          <path class="cls-3" d="M790.51,1656.25c-2.15,0-4.33-.16-6.54-.47-31.56-4.49-65.03-40.88-85.26-92.7-1.17-3.27-2.27-6.38-3.28-9.45h0c-22.71-69.54-3.35-97,10.22-107.18,20.84-15.64,55.53-12.04,86.3,8.98l.91.62,36.37,178.5-.76.98c-10.49,13.65-23.5,20.72-37.95,20.72ZM900.59,1551.93c.99,3.02,2.08,6.09,3.2,9.24,19.5,49.95,51.29,85.01,80.95,89.23,14.88,2.11,27.88-3.67,38.68-17.22l-35.43-173.9c-28.62-19.17-60.3-22.61-79.08-8.51-21.43,16.07-24.38,51.99-8.32,101.15h0Z"/>
        </g>
        <g class="cls-12">
          <path class="cls-9" d="M778.07,1652.25c-27.63-9.22-56.13-42.55-74.23-88.89-1.13-3.18-2.22-6.27-3.22-9.31-37.94-116.13,36.55-133.27,92.41-95.11l.26,1.31c-50.51-19.1-101.46,7.4-68.74,107.6,1,3.05,2.09,6.13,3.22,9.31,12.84,32.94,30.98,59.3,50.3,75.1Z"/>
        </g>
        <path class="cls-3" d="M790.42,1666.57c-2.61,0-5.25-.19-7.92-.57-35.74-5.1-71.54-43.1-93.43-99.17-29.68-82-6.66-115.46,9.69-128.14,24.38-18.9,64.17-15.61,99.02,8.19,2.8,1.91,4.75,4.85,5.42,8.17l35.9,176.21c.76,3.71-.13,7.56-2.44,10.56-12.41,16.14-28.61,24.74-46.24,24.74ZM737.4,1452.52c-8.88,0-16.74,2.22-22.65,6.8-18.28,14.17-18.74,50.01-1.25,98.32,17.8,45.58,47.05,78.86,72.68,82.51,9.81,1.39,18.38-1.85,26.07-9.9l-33.54-164.63c-14.02-8.62-28.7-13.11-41.32-13.11Z"/>
        <g>
          <path class="cls-8" d="M1509,1531.63v60.3c0,103.73-49.64,202.1-135.14,260.84-1.22.83-2.44,1.61-3.61,2.44-130.4,87.41-301.13,87.41-431.52.04-1.17-.83-2.39-1.65-3.61-2.48-85.54-58.69-135.18-157.07-135.18-260.84v-60.3s.22-3.87.65-10.83c3.22-55.04,17.8-302,20.14-308.31,77.62-208.93,853.65-157.72,688.27,319.14Z"/>
          <path class="cls-3" d="M1154.44,1923.82c-75.62,0-151.24-22.1-217.23-66.31-1.1-.77-2.18-1.51-3.27-2.25-85.75-58.83-136.72-157.18-136.72-263.32v-60.3c0-.15.22-4.03.66-11,5.31-90.78,17.91-302.65,20.31-309.08,20.37-54.84,89.44-95.48,189.5-111.48,96.58-15.45,209.09-4.98,300.94,28.01,91.71,32.93,295,138.22,203.08,404.02v59.85c0,106.09-50.96,204.43-136.31,263.07l-1.41.94c-.74.49-1.47.98-2.18,1.48-66.03,44.26-141.7,66.39-217.36,66.39ZM1099.23,1098.48c-31.01,0-61.58,2.28-90.69,6.94-98.07,15.68-165.6,55.05-185.27,108.02-1.88,6.95-11.94,170.02-19.99,307.52-.43,6.96-.65,10.82-.65,10.83v60.15c0,104.35,50.1,201.03,134.01,258.6,1.46.99,2.57,1.75,3.64,2.5,130.11,87.17,298.31,87.15,428.45-.08.7-.5,1.47-1.01,2.25-1.52l1.35-.91c83.87-57.62,133.95-154.29,133.95-258.59l.15-61.19c90.71-261.55-109.39-365.16-199.63-397.57-63.34-22.75-136.61-34.69-207.56-34.69Z"/>
        </g>
        <g class="cls-7">
          <path class="cls-3" d="M1509,1531.63v60.3c0,103.73-49.64,202.1-135.14,260.84-1.22.83-2.44,1.61-3.61,2.44-130.4,87.41-301.13,87.41-431.52.04-1.17-.83-2.39-1.65-3.61-2.48-2.7-1.87-5.4-3.79-8.05-5.74,122.7,59.65,269.76,50.77,385.19-26.63,1.17-.83,2.39-1.61,3.61-2.44,85.5-58.74,135.14-157.11,135.14-260.84l5.16-76.02c56.13-161.81-1.33-258.87-97.92-329.1,131.44,64.79,217.28,187.74,150.76,379.62Z"/>
        </g>
        <g class="cls-7">
          <path class="cls-3" d="M1509,1531.63v24.5c-38.98-57.43-46.51-214.15-46.51-214.15-34.08,37.01-225.5,79.69-359.84,8.32-7.25-3.85-15.2,3.85-11.56,11.2,1.64,3.31,2.3,4.43,2.3,4.43-17.67,10.94-100.9.28-146.05-26-12.56-7.31-28.57.61-30.82,14.96-10.12,64.55-42.25,109.49-111.02,176.73-1.7-3.61-3.35-7.22-4.92-10.83,3.22-55.04,17.8-302,20.14-308.31,77.62-208.93,853.65-157.72,688.27,319.14Z"/>
        </g>
        <g class="cls-12">
          <path class="cls-9" d="M1301.59,1891.8c-117.91,48.34-254.35,36.16-362.87-36.55-1.17-.83-2.39-1.65-3.61-2.48-85.54-58.69-135.18-157.07-135.18-260.84v-60.3s18.14-312.05,20.8-319.14c16.32-43.9,63.44-76.31,126.22-95.72-47.21,19.71-81.88,48.21-95.42,84.58-2.65,7.14-20.8,319.14-20.8,319.14v60.3c0,103.77,49.64,202.14,135.18,260.88,1.22.78,2.56,1.45,3.65,2.44,84.66,76.66,221.68,82.36,332.02,47.69Z"/>
        </g>
        <path class="cls-3" d="M1154.47,1934.18c-77.63,0-155.25-22.7-222.99-68.09-1.25-.83-2.5-1.68-3.75-2.54-88.2-60.52-140.85-162.06-140.85-271.62v-60.3c0-.25,0-.51.02-.76,18.25-313.76,20.77-320.72,21.6-322.94h0c47.77-128.52,316.87-156.67,503.67-89.58,88.98,31.96,156.36,82.65,194.84,146.58,45.29,75.24,50.35,165.7,15.04,268.89v58.12c0,109.53-52.64,211.06-140.82,271.59l-3.72,2.52c-67.74,45.42-145.4,68.13-223.04,68.13ZM812.98,1532.01v59.92c0,100.95,48.42,194.44,129.53,250.1,1.16.8,2.32,1.58,3.5,2.37,126.67,84.89,290.33,84.88,416.96-.02l3.48-2.36c81.09-55.67,129.5-149.15,129.5-250.08v-60.3c0-1.46.24-2.9.72-4.28,87.69-252.8-105.99-353.06-193.33-384.43-189.3-67.99-430.2-30.34-470.01,73.16-2.42,16.86-13.42,196.96-20.34,315.93ZM832.96,1217.02h0,0ZM833.06,1216.76c-.03.08-.06.17-.09.24.02-.07.05-.15.09-.24ZM820.73,1212.47h.05-.05Z"/>
        <g>
          <path d="M1504.91,1084.57c97.9,125.09,85.71,342.76,3.26,456.85-63.09-34.81-67.27-199.45-67.27-199.45-149.32,40.64-300.43,15.84-437.44-102.2-2.92,46.38,35.94,89.41,35.94,89.41-17.62-.52-33.42-3.09-47.6-7.35-49.56-14.84-79.06-50.73-97.11-95.85-17.4,156.63-18.49,191.44-94.76,305.65-76.14-163.16-90.15-364.39,36.77-424.56-176.95-60.91-111.69-184.22,40.59-74.71-74.71-107.34,19.58-148.71,39.16-30.46,110.12-201.14,593.9-130.53,659.47,97.9l-70.83-15.18c-.13-.04-.17-.04-.17-.04Z"/>
          <path class="cls-3" d="M1508.96,1544.95l-2.1-1.16c-59.37-32.75-67.57-173.74-68.55-198.31-158.62,42.16-304.01,8.54-432.29-99.96.42,42.55,35.03,81.44,35.4,81.84l4.25,4.71-6.34-.19c-17.27-.51-33.52-3.02-48.31-7.46-42.86-12.83-73.95-41.62-94.77-87.85l-.95,8.59c-15.48,140.25-19.64,177.95-93.12,287.97l-2.68,4-2.04-4.36c-76.68-164.34-89.43-361.42,32.3-425.28-71.47-25.95-99.58-60.9-101.9-85.39-1.22-12.79,4.28-23.38,15.47-29.8,20.98-12.04,64.12-9.89,124.1,29.95-25.13-41.12-24.42-70.88-15.35-84.52,5.32-7.99,13.65-11.45,22.78-9.48,15.27,3.28,34.13,22.38,42.91,65.88,60.56-100.62,206.66-122.86,324.97-109.71,140.97,15.67,299.46,88.11,335.78,214.62l1.25,4.35-68.26-14.63c94.99,128.48,78.49,344.06-1.14,454.24l-1.41,1.94ZM1443.53,1338.45l.09,3.45c.04,1.61,4.75,159.79,63.78,195.93,78.49-110.92,93.28-326.49-4.62-451.59l-3.43-4.38,6.63.2,66.04,14.13c-38-121.41-192.33-191.09-329.86-206.37-119.04-13.23-266.49,9.6-323.32,113.39l-3.77,6.89-1.28-7.75c-7.63-46.06-26.33-65.84-40.04-68.79-6.96-1.49-13.04,1.05-17.12,7.18-8.97,13.48-8.35,45.16,22.91,90.08l9.04,12.99-12.85-9.24c-63.93-45.97-109.82-48.96-129.67-37.56-9.24,5.3-13.77,14.03-12.77,24.59,2.13,22.42,30.73,57.59,104.32,82.91l6.29,2.17-6.01,2.85c-123.56,58.58-112.42,253.02-37.5,416.57,70.16-105.83,74.38-144.04,89.55-281.52l3.29-29.64,4.02,10.04c20.1,50.23,51.3,81.07,95.37,94.26,12.58,3.78,26.28,6.12,40.8,6.97-10.04-12.62-35.04-48.15-32.62-86.6l.34-5.44,4.13,3.56c128.77,110.94,275.11,145.15,434.96,101.64l3.33-.91Z"/>
        </g>
        <g class="cls-7">
          <path class="cls-3" d="M876.58,1198.71c6.49,12.52,12.41,26.63,16.33,43.37-15.79,143.1-19.41,179.34-92.98,289.55-8.61-18.49-16.45-37.42-23.32-56.61,60.41-93.71,67.48-146.65,81.43-272.9,1.07-9.71,14.05-12.08,18.54-3.41Z"/>
        </g>
        <g class="cls-12">
          <path class="cls-9" d="M848.53,1013.78c-95.81-40.59-130.48,29.59-37.16,83.45-134.7-58.74-86.67-154.37,37.16-83.45Z"/>
        </g>
        <g class="cls-12">
          <path class="cls-9" d="M833.65,1108.59c.09.04.18.08.27.12,12.06,5.33,14.61,21.16,4.46,29.58-86.69,71.88-83.39,233.6-26.18,374.59-3.83,6-7.92,12.27-12.27,18.75-75.53-161.85-89.93-361.13,33.72-423.04Z"/>
        </g>
        <g class="cls-12">
          <path class="cls-9" d="M871.33,1030.62l-.29-.16c-50.56-77.84-4.56-122.66,26.16-86.77-16.97,2.5-27.04,28.74-8.2,70.26,5,11.01-7.05,22.47-17.67,16.67Z"/>
        </g>
        <g class="cls-12">
          <path class="cls-9" d="M1479.89,982.33c-83.36-38.46-195.01-64.18-296.34-64.65-15.62,29.98-68.27,28.5-90.41,7.18-57,10.22-105.25,31.81-135.36,67.79-8.61,10.31-25.45,9.62-32.24-2-.39-.61-.74-1.26-1.04-2,94.41-120.39,412.9-130.31,555.39-6.31Z"/>
        </g>
        <path class="cls-3" d="M1508.16,1554.47c-2.14,0-4.31-.53-6.29-1.63-57.56-31.76-70.42-149.02-73.26-194.23-148.61,36.04-285.59,6.49-407.92-87.93,8.84,27.69,28.15,49.48,28.41,49.77,3.49,3.89,4.33,9.49,2.13,14.23-2.15,4.62-6.77,7.56-11.83,7.56-.13,0-.26,0-.4,0-59.93-1.84-105.54-26.04-136.07-72.07-13.78,123.09-21.64,163.14-92.15,268.72-2.62,3.92-7.1,6.11-11.85,5.77-4.7-.36-8.84-3.22-10.84-7.5-74.82-160.34-89.26-351.56,18.64-427.69-61.71-26.81-86.78-61.24-89.17-86.38-1.6-16.82,5.92-31.31,20.62-39.75,19.75-11.35,56.05-12.18,104.78,12.59-10.75-29.23-7.93-51.22.52-63.92,7.69-11.54,20.25-16.72,33.56-13.86,19.17,4.12,35.08,22.8,44.92,51.67,69.02-88.63,208.11-108.31,321.93-95.67,144.39,16.05,306.94,90.93,344.57,222.05,1.27,4.41.13,9.16-3,12.51-3.13,3.35-7.78,4.81-12.28,3.85l-38.83-8.33c35.33,57.96,53.95,132.28,52.88,213.06-1.18,88.71-26.13,173.18-68.47,231.77-2.53,3.5-6.52,5.41-10.59,5.41ZM1440.9,1328.92c2.78,0,5.52.89,7.8,2.58,3.21,2.39,5.15,6.13,5.25,10.14,1.05,40.56,12.38,145.94,50.98,181.39,71.11-110.19,82.36-312.02-10.3-430.41-3.39-4.33-3.7-10.31-.79-14.97,2.91-4.66,8.41-6.99,13.8-5.84l48.17,10.33c-45.23-106.42-187.34-167.88-314.82-182.05-145.43-16.15-268.32,26.26-313.11,108.08-2.68,4.89-8.15,7.54-13.64,6.6-5.49-.93-9.78-5.24-10.69-10.74-7.27-43.87-24.12-58.67-32.01-60.36-1.94-.42-4.21-.42-6.35,2.8-5.38,8.08-7.53,34.87,22.78,78.44,3.63,5.22,2.97,12.29-1.55,16.76-4.54,4.46-11.63,5-16.78,1.3-56.09-40.34-99.93-47.64-118.48-36.98-5.75,3.3-8.25,8.09-7.62,14.64,1.98,20.89,32.87,51.91,97.38,74.12,5.02,1.73,8.49,6.32,8.78,11.62.29,5.3-2.65,10.25-7.44,12.52-68.27,32.37-85.03,106.14-87.08,162.34-2.42,66.62,14.56,146.86,46.91,223.26,58.81-91.69,62.98-129.46,77.5-261.03l2.09-18.9c.66-5.95,5.29-10.69,11.22-11.49,5.95-.81,11.65,2.53,13.87,8.09,21.02,52.56,55.52,82.9,105.04,92.09-11.22-18.53-23.22-45.54-21.42-74.27.31-4.95,3.39-9.29,7.96-11.21,4.56-1.92,9.83-1.1,13.58,2.14,126.02,108.56,269.16,142.04,425.49,99.49,1.13-.31,2.28-.46,3.42-.46Z"/>
        <path class="cls-3" d="M1440.89,1355.03c-5.76,0-11.03-3.84-12.59-9.67-1.88-6.96,2.25-14.12,9.21-16,16.21-4.36,32.6-9.59,48.72-15.56,6.76-2.5,14.27.95,16.77,7.71,2.5,6.76-.95,14.27-7.71,16.77-16.87,6.24-34.02,11.72-51.01,16.29-1.13.31-2.28.45-3.4.45Z"/>
        <g class="cls-7">
          <path class="cls-3" d="M1508.17,1541.42c-63.09-34.81-67.27-199.45-67.27-199.45-149.32,40.64-300.43,15.84-437.44-102.2-2.92,46.38,35.94,89.41,35.94,89.41-17.62-.52-33.42-3.09-47.6-7.35-71.44-117.74-41.03-145.49,61.7-109.29,285.07,91.98,492.61,106.38,451.41-127.96,97.9,125.09,85.71,342.76,3.26,456.85Z"/>
        </g>
        <g class="cls-15">
          <path class="cls-18" d="M1435.8,1193.35c0,19.77-38.71,35.8-86.47,35.8s-86.47-16.03-86.47-35.8,38.71-20.28,86.47-20.28,86.47.51,86.47,20.28Z"/>
        </g>
        <path class="cls-3" d="M1200.21,1772.99s-18.72,11.96-67.51,11.96c-10.59.73-40.88-.93-79.16-35.88,0,0,17.68,50.97,78.02,50.97,0,0,34.33,3.12,68.65-27.05Z"/>
        <path class="cls-3" d="M923.18,1546.48c4.1-13.31,13.91-24.39,25.99-31.93,12.15-7.53,26.71-11.38,41.14-11.23,14.45.1,28.8,4.24,40.82,11.73,11.96,7.51,21.78,18.27,26.36,31.43-13.13-4.51-24.31-8.12-35.35-10.43-10.96-2.37-21.54-3.54-32.09-3.69-10.56-.11-21.1.83-31.96,3.13-10.94,2.26-21.99,5.95-34.9,10.99Z"/>
        <path class="cls-3" d="M1390.98,1546.48c-12.92-5.03-23.96-8.73-34.9-10.99-10.87-2.31-21.4-3.24-31.96-3.13-10.56.15-21.13,1.32-32.09,3.69-11.04,2.32-22.22,5.92-35.35,10.43,4.58-13.15,14.4-23.92,26.36-31.43,12.01-7.49,26.37-11.63,40.82-11.73,14.44-.15,28.99,3.7,41.14,11.23,12.09,7.54,21.89,18.61,25.99,31.93Z"/>
        <ellipse class="cls-3" cx="1003.46" cy="1625.99" rx="44.87" ry="59.19"/>
        <g>
          <ellipse class="cls-9" cx="1014.93" cy="1612.26" rx="13.56" ry="19.88"/>
          <path class="cls-3" d="M1014.93,1634.85c-9.13,0-16.27-9.92-16.27-22.59s7.14-22.59,16.27-22.59,16.26,9.92,16.26,22.59-7.14,22.59-16.26,22.59ZM1014.93,1595.09c-5.88,0-10.85,7.86-10.85,17.16s4.97,17.17,10.85,17.17,10.84-7.86,10.84-17.17-4.97-17.16-10.84-17.16Z"/>
        </g>
        <ellipse class="cls-3" cx="1313.72" cy="1625.99" rx="44.87" ry="59.19"/>
        <g>
          <ellipse class="cls-9" cx="1302.25" cy="1612.26" rx="13.56" ry="19.88"/>
          <path class="cls-3" d="M1302.26,1634.85c-9.13,0-16.27-9.92-16.27-22.59s7.14-22.59,16.27-22.59,16.26,9.92,16.26,22.59-7.14,22.59-16.26,22.59ZM1302.26,1595.09c-5.88,0-10.85,7.86-10.85,17.16s4.97,17.17,10.85,17.17,10.84-7.86,10.84-17.17-4.97-17.16-10.84-17.16Z"/>
        </g>
      </g>
    </g>
    <g class="cls-10">
      <polygon class="cls-13" points="1687.42 2711.35 645.06 2711.37 287.96 1374.24 2041.04 1389.52 1687.42 2711.35"/>
    </g>
    <g>
      <g>
        <path class="cls-14" d="M1809.71,2679.12c-6.96,34.41-25.58,64.01-51.25,85.03-25.67,20.97-58.4,33.35-93.52,33.35h-997.43c-70.25,0-130.81-49.52-144.77-118.38h1286.97Z"/>
        <path class="cls-3" d="M1664.94,2900.22h-997.43c-71.26,0-133.27-50.7-147.43-120.55l-.66-3.25h1293.61l-.66,3.25c-6.86,33.89-25.39,64.65-52.19,86.59-26.82,21.9-60.64,33.96-95.24,33.96ZM526.09,2681.84c14.89,65.65,73.84,112.95,141.42,112.95h997.43c33.35,0,65.96-11.63,91.81-32.74,24.97-20.45,42.5-48.84,49.61-80.22H526.09Z"/>
      </g>
      <path class="cls-3" d="M1664.96,2813.77h-997.44c-77.69,0-145.27-55.26-160.7-131.4-.97-4.78.26-9.75,3.35-13.53,3.09-3.78,7.71-5.97,12.59-5.97h1286.96c4.88,0,9.5,2.19,12.59,5.97s4.32,8.75,3.35,13.53c-15.43,76.14-83.02,131.4-160.71,131.4ZM544.26,2695.41c18.83,50.75,67.84,85.83,123.26,85.83h997.44c55.42,0,104.43-35.09,123.27-85.83H544.26Z"/>
      <g class="cls-7">
        <path class="cls-3" d="M1809.71,2679.12c-6.96,34.41-25.58,64.01-51.25,85.03-25.67,20.97-58.4,33.35-93.52,33.35h-616.95c101.39-4.8,191.27-32.77,268.62-86.13,0,0,5.33-13,17.13-32.25h475.97Z"/>
      </g>
      <g>
        <path class="cls-14" d="M1809.33,2053.68l-52.06,593.68c-3.17,36.23-33.49,64.01-69.87,64.01H645.06c-36.32,0-66.65-27.78-69.87-64.01l-52.02-593.68c-5.13-58.3,40.84-108.5,99.33-108.5h1087.45c19.15,0,36.95,5.37,52.06,14.64,31.09,19.1,50.77,54.66,47.31,93.86Z"/>
        <path class="cls-3" d="M1687.4,2714.08H645.06c-38.01,0-69.21-28.58-72.57-66.49l-52.02-593.68c-2.51-28.54,7.15-57.04,26.51-78.19,19.36-21.14,46.88-33.26,75.52-33.26h1087.45c18.93,0,37.42,5.2,53.48,15.04,33.41,20.52,52.03,57.47,48.6,96.41h0s-52.07,593.67-52.07,593.67c-3.31,37.91-34.51,66.49-72.57,66.49ZM622.5,1947.9c-27.12,0-53.19,11.48-71.52,31.5-18.34,20.02-27.49,47.01-25.11,74.05l52.02,593.68c3.11,35.08,31.99,61.54,67.17,61.54h1042.34c35.23,0,64.1-26.46,67.17-61.54l52.07-593.68c3.25-36.88-14.38-71.87-46.04-91.31-15.2-9.31-32.71-14.23-50.64-14.23H622.5Z"/>
      </g>
      <g class="cls-1">
        <path class="cls-9" d="M1792.73,1989.24c-12.72-5.95-26.92-9.26-41.99-9.26H663.29c-58.49,0-104.46,50.19-99.33,108.5l52.02,593.68c.82,9.26,3.41,17.95,7.44,25.77-26.1-8.45-45.68-31.86-48.23-60.56l-52.02-593.68c-5.13-58.3,40.84-108.5,99.33-108.5h1087.45c34.65,0,64.92,17.61,82.78,44.05Z"/>
      </g>
      <path class="cls-3" d="M1687.42,2727.62H645.07c-45.12,0-82.12-33.9-86.07-78.85l-52.06-593.69c-2.83-32.32,8.11-64.58,30.03-88.51,21.92-23.92,53.1-37.64,85.55-37.64h1087.45c32.45,0,63.63,13.72,85.55,37.64,21.92,23.93,32.86,56.19,30.03,88.51l-52.06,593.68c-3.94,44.95-40.94,78.85-86.07,78.85ZM622.52,1961.46c-23.69,0-45.55,9.62-61.56,27.09-16,17.47-23.68,40.09-21.61,63.69l52.06,593.68c2.46,28.02,25.53,49.16,53.66,49.16h1042.35c28.13,0,51.2-21.14,53.66-49.16l52.06-593.68c2.07-23.6-5.61-46.22-21.61-63.69-16.01-17.47-37.87-27.09-61.56-27.09H622.52Z"/>
      <g class="cls-7">
        <path class="cls-3" d="M1809.33,2053.68l-52.06,593.68c-3.17,36.23-33.49,64.01-69.87,64.01h-940.23c578.56-45.54,936.53-279.28,1014.66-751.6l.19.05c31.09,19.1,50.77,54.66,47.31,93.86Z"/>
      </g>
      <g class="cls-7">
        <path class="cls-9" d="M785.5,2443.5l-65.3,6.11c-16.93,1.58-31.94-10.86-33.53-27.79l-22.43-239.68c-1.58-16.93,10.86-31.94,27.79-33.53l65.3-6.11c16.93-1.58,31.94,10.86,33.53,27.79l22.43,239.68c1.58,16.93-10.86,31.94-27.79,33.53Z"/>
      </g>
      <g>
        <path class="cls-5" d="M1256.44,2459.52l-11.93,9.57-1.43,30.26c-.38,8.14-7.66,14.52-16.25,14.29h-.07c-8.58-.23-15.33-6.96-15.06-15.1l.41-12.8c.08-2.5-1.99-4.59-4.62-4.65h0c-2.63-.07-4.81,1.91-4.88,4.41l-.35,12.8c-.22,8.14-7.35,14.51-15.91,14.28h0c-8.56-.22-15.41-6.95-15.31-15.08l.13-10.7c.05-3.65-3.03-6.7-6.87-6.8h0c-3.84-.1-6.96,2.79-6.99,6.45l-.06,10.69c-.05,8.13-7.01,14.49-15.55,14.27h0c-8.53-.22-15.51-6.94-15.58-15.07l-.12-12.78c-.02-2.5-2.16-4.58-4.77-4.64h0c-2.61-.07-4.7,1.91-4.67,4.4l.17,12.78c.11,8.12-6.71,14.48-15.23,14.26h-.07c-8.51-.22-15.59-6.94-15.82-15.06l-.86-30.16-11.62-10.1c-30.17-26.2-49.02-64.05-51.25-104.44-4.6-83.32,60.15-154.81,145.03-153.48,85.36,1.34,149.76,75.58,143.52,159.5-3.03,40.66-22.91,77.96-53.99,102.88h0Z"/>
        <path class="cls-3" d="M1164.58,2197.13c.78,0,1.55,0,2.33.02,85.36,1.34,149.76,75.58,143.52,159.5-3.03,40.66-22.92,77.96-53.99,102.88l-11.93,9.58-1.43,30.26c-.38,8.01-7.41,14.3-15.81,14.3-.15,0-.29,0-.44,0h-.07c-8.58-.22-15.33-6.96-15.06-15.1l.41-12.8c.08-2.5-1.99-4.58-4.61-4.65h0s-.08,0-.13,0c-2.57,0-4.69,1.96-4.76,4.41l-.35,12.8c-.22,8-7.1,14.29-15.47,14.29-.15,0-.29,0-.44,0-8.56-.22-15.41-6.95-15.31-15.08l.14-10.7c.04-3.65-3.03-6.7-6.87-6.79-.06,0-.13,0-.19,0-3.75,0-6.77,2.86-6.79,6.45l-.06,10.69c-.05,7.99-6.78,14.27-15.11,14.27-.15,0-.29,0-.44,0-8.54-.22-15.51-6.94-15.58-15.07l-.12-12.78c-.02-2.5-2.16-4.58-4.78-4.64-.04,0-.08,0-.12,0-2.55,0-4.58,1.95-4.55,4.41l.17,12.78c.11,7.98-6.48,14.26-14.79,14.26-.15,0-.29,0-.43,0h-.07c-8.52-.22-15.6-6.94-15.83-15.06l-.86-30.16-11.62-10.1c-30.17-26.2-49.02-64.05-51.25-104.44-4.55-82.55,58.96-153.49,142.7-153.49M1164.58,2170.83h0c-46.73,0-90.09,18.64-122.1,52.46-32.39,34.23-49.47,81.17-46.84,128.77,2.6,47.07,24.57,91.84,60.26,122.85l2.91,2.52.53,18.63c.62,22.17,18.82,40,41.42,40.59.44.01.82.01,1.19.01,6.74,0,13.2-1.55,18.97-4.49,5.92,3.35,12.77,5.33,20.11,5.53.37,0,.75.01,1.12.01,7.78,0,15.07-2.13,21.31-5.83,6.39,4.22,14.01,6.76,22.21,6.98.38.01.75.02,1.13.02,6.96,0,13.51-1.63,19.26-4.54,6.01,3.46,12.85,5.39,20.04,5.58.43.01.81.02,1.19.02,22.56,0,41.04-17.29,42.07-39.36l.87-18.4,2.69-2.16c36.97-29.65,60.21-73.91,63.75-121.43,3.59-48.21-13.02-96.28-45.56-131.89-32.23-35.27-76.19-55.11-123.76-55.85-.92-.01-1.83-.02-2.75-.02h0Z"/>
        <g>
          <path class="cls-4" d="M1109.46,2316.24c-22.58-.11-39.96,18.34-38.84,40.93,1.09,22.1,19.67,39.88,41.52,40.04,21.89.16,39.36-17.38,38.98-39.53-.38-22.63-19.06-41.32-41.66-41.44h0Z"/>
          <path class="cls-4" d="M1222.15,2315.1c-22.76-.12-41.28,18.41-41.39,41.08-.1,22.18,17.66,40.02,39.69,40.18,22.06.16,40.63-17.44,41.45-39.67.84-22.72-16.97-41.47-39.76-41.59h0Z"/>
        </g>
      </g>
    </g>
  </g>
</svg>